<svg xmlns="http://www.w3.org/2000/svg" xmlns:xlink="http://www.w3.org/1999/xlink" version="1.1" width="457pt" height="322pt" viewBox="0 0 457 322">
<defs>
<clipPath id="clip_0">
<path transform="matrix(1,0,0,-1,0,322)" d="M66 264.791C68.76142 264.791 71 267.0469 71 269.8296 71 272.6124 68.76142 274.8682 66 274.8682 63.23858 274.8682 61 272.6124 61 269.8296 61 267.0469 63.23858 264.791 66 264.791Z" fill-rule="evenodd"/>
</clipPath>
<clipPath id="clip_1">
<path transform="matrix(1,0,0,-1,0,322)" d="M51 228.5131C53.76142 228.5131 56 230.769 56 233.5517 56 236.3345 53.76142 238.5903 51 238.5903 48.23858 238.5903 46 236.3345 46 233.5517 46 230.769 48.23858 228.5131 51 228.5131Z" fill-rule="evenodd"/>
</clipPath>
<clipPath id="clip_2">
<path transform="matrix(1,0,0,-1,0,322)" d="M61 228.5131C63.76142 228.5131 66 230.769 66 233.5517 66 236.3345 63.76142 238.5903 61 238.5903 58.23858 238.5903 56 236.3345 56 233.5517 56 230.769 58.23858 228.5131 61 228.5131Z" fill-rule="evenodd"/>
</clipPath>
<clipPath id="clip_3">
<path transform="matrix(1,0,0,-1,0,322)" d="M57 185.1812C59.76142 185.1812 62 187.437 62 190.2198 62 193.0025 59.76142 195.2584 57 195.2584 54.23858 195.2584 52 193.0025 52 190.2198 52 187.437 54.23858 185.1812 57 185.1812Z" fill-rule="evenodd"/>
</clipPath>
<clipPath id="clip_4">
<path transform="matrix(1,0,0,-1,0,322)" d="M80 185.1812C82.76142 185.1812 85 187.437 85 190.2198 85 193.0025 82.76142 195.2584 80 195.2584 77.23858 195.2584 75 193.0025 75 190.2198 75 187.437 77.23858 185.1812 80 185.1812Z" fill-rule="evenodd"/>
</clipPath>
<clipPath id="clip_5">
<path transform="matrix(1,0,0,-1,0,322)" d="M80 185.1812C82.76142 185.1812 85 187.437 85 190.2198 85 193.0025 82.76142 195.2584 80 195.2584 77.23858 195.2584 75 193.0025 75 190.2198 75 187.437 77.23858 185.1812 80 185.1812Z" fill-rule="evenodd"/>
</clipPath>
<clipPath id="clip_6">
<path transform="matrix(1,0,0,-1,0,322)" d="M70 142.8569C72.76142 142.8569 75 145.1128 75 147.8955 75 150.6783 72.76142 152.9341 70 152.9341 67.23858 152.9341 65 150.6783 65 147.8955 65 145.1128 67.23858 142.8569 70 142.8569Z" fill-rule="evenodd"/>
</clipPath>
<clipPath id="clip_7">
<path transform="matrix(1,0,0,-1,0,322)" d="M107 143.8646C109.7614 143.8646 112 146.1205 112 148.9032 112 151.686 109.7614 153.9418 107 153.9418 104.2386 153.9418 102 151.686 102 148.9032 102 146.1205 104.2386 143.8646 107 143.8646Z" fill-rule="evenodd"/>
</clipPath>
<clipPath id="clip_8">
<path transform="matrix(1,0,0,-1,0,322)" d="M60 102.5481C62.76142 102.5481 65 104.804 65 107.5867 65 110.3695 62.76142 112.6253 60 112.6253 57.23858 112.6253 55 110.3695 55 107.5867 55 104.804 57.23858 102.5481 60 102.5481Z" fill-rule="evenodd"/>
</clipPath>
<clipPath id="clip_9">
<path transform="matrix(1,0,0,-1,0,322)" d="M109 102.5481C111.7614 102.5481 114 104.804 114 107.5867 114 110.3695 111.7614 112.6253 109 112.6253 106.2386 112.6253 104 110.3695 104 107.5867 104 104.804 106.2386 102.5481 109 102.5481Z" fill-rule="evenodd"/>
</clipPath>
<clipPath id="clip_10">
<path transform="matrix(1,0,0,-1,0,322)" d="M45 69.29336C47.76142 69.29336 50 71.54922 50 74.33196 50 77.1147 47.76142 79.37056 45 79.37056 42.23858 79.37056 40 77.1147 40 74.33196 40 71.54922 42.23858 69.29336 45 69.29336Z" fill-rule="evenodd"/>
</clipPath>
<clipPath id="clip_11">
<path transform="matrix(1,0,0,-1,0,322)" d="M105 69.29336C107.7614 69.29336 110 71.54922 110 74.33196 110 77.1147 107.7614 79.37056 105 79.37056 102.2386 79.37056 100 77.1147 100 74.33196 100 71.54922 102.2386 69.29336 105 69.29336Z" fill-rule="evenodd"/>
</clipPath>
<clipPath id="clip_12">
<path transform="matrix(1,0,0,-1,0,322)" d="M46 31C48.76142 31 51 33.25586 51 36.0386 51 38.82134 48.76142 41.0772 46 41.0772 43.23858 41.0772 41 38.82134 41 36.0386 41 33.25586 43.23858 31 46 31Z" fill-rule="evenodd"/>
</clipPath>
<clipPath id="clip_13">
<path transform="matrix(1,0,0,-1,0,322)" d="M119 32.00772C121.7614 32.00772 124 34.26358 124 37.04632 124 39.82906 121.7614 42.08492 119 42.08492 116.2386 42.08492 114 39.82906 114 37.04632 114 34.26358 116.2386 32.00772 119 32.00772Z" fill-rule="evenodd"/>
</clipPath>
<clipPath id="clip_14">
<path transform="matrix(1,0,0,-1,0,322)" d="M72.5 107.5867H95.5" fill-rule="evenodd"/>
</clipPath>
<clipPath id="clip_15">
<path transform="matrix(1,0,0,-1,0,322)" d="M64.96912 108.0906 73.03088 112.5906V103.5906L64.96912 108.0906Z" fill-rule="evenodd"/>
</clipPath>
<clipPath id="clip_16">
<path transform="matrix(1,0,0,-1,0,322)" d="M104.0309 108.0906 95.96912 112.5906V103.5906L104.0309 108.0906Z" fill-rule="evenodd"/>
</clipPath>
<clipPath id="clip_17">
<path transform="matrix(1,0,0,-1,0,322)" d="M58.5 74.33196H94" fill-rule="evenodd"/>
</clipPath>
<clipPath id="clip_18">
<path transform="matrix(1,0,0,-1,0,322)" d="M49.96912 74.83582 58.03088 79.33582V70.33582L49.96912 74.83582Z" fill-rule="evenodd"/>
</clipPath>
<clipPath id="clip_19">
<path transform="matrix(1,0,0,-1,0,322)" d="M100.0309 74.83582 91.96912 79.33582V70.33582L100.0309 74.83582Z" fill-rule="evenodd"/>
</clipPath>
<clipPath id="clip_20">
<path transform="matrix(1,0,0,-1,0,322)" d="M59 36.0386H105" fill-rule="evenodd"/>
</clipPath>
<clipPath id="clip_21">
<path transform="matrix(1,0,0,-1,0,322)" d="M50.96912 36.54246 59.03088 41.04246V32.04246L50.96912 36.54246Z" fill-rule="evenodd"/>
</clipPath>
<clipPath id="clip_22">
<path transform="matrix(1,0,0,-1,0,322)" d="M114.0309 36.54246 105.9691 41.04246V32.04246L114.0309 36.54246Z" fill-rule="evenodd"/>
</clipPath>
<clipPath id="clip_23">
<path transform="matrix(1,0,0,-1,0,322)" d="M83.5 146.8878H97" fill-rule="evenodd"/>
</clipPath>
<clipPath id="clip_24">
<path transform="matrix(1,0,0,-1,0,322)" d="M66 190.2198H71" fill-rule="evenodd"/>
</clipPath>
<clipPath id="clip_25">
<path transform="matrix(1,0,0,-1,0,322)" d="M74.96912 147.3917 83.03088 151.8917V142.8917L74.96912 147.3917Z" fill-rule="evenodd"/>
</clipPath>
<clipPath id="clip_26">
<path transform="matrix(1,0,0,-1,0,322)" d="M61.97877 190.7236 67.52123 195.2236V186.2236L61.97877 190.7236Z" fill-rule="evenodd"/>
</clipPath>
<clipPath id="clip_27">
<path transform="matrix(1,0,0,-1,0,322)" d="M75.52123 190.7236 69.97877 195.2236V186.2236L75.52123 190.7236Z" fill-rule="evenodd"/>
</clipPath>
<clipPath id="clip_28">
<path transform="matrix(1,0,0,-1,0,322)" d="M102.0309 147.3917 93.96912 151.8917V142.8917L102.0309 147.3917Z" fill-rule="evenodd"/>
</clipPath>
<clipPath id="clip_29">
<path transform="matrix(1,0,0,-1,0,322)" d="M82.09857 240.8922 78.65865 242.273C77.80686 242.6018 75.8412 243.3908 75.8412 245.3634 75.8412 248.1907 79.28111 251.051 79.9691 251.051 80.03462 251.051 80.32947 250.9852 80.42775 250.9523 81.3123 250.6893 82.16409 250.6893 82.75379 250.6893 83.76938 250.6893 85.70229 250.6893 85.70229 251.6427 85.70229 252.366 84.52289 252.4646 83.11416 252.4646 82.45894 252.4646 81.57439 252.4646 80.39499 252.0701 79.60872 252.7276 79.28111 253.7797 79.28111 254.7659 79.28111 256.5741 80.46051 259.1385 83.04864 260.3549 83.63834 259.6645 84.42461 259.6645 85.11259 259.6645 85.93162 259.6645 87.93005 259.6645 87.93005 260.6179 87.93005 261.4398 86.35751 261.4398 85.30916 261.4398 84.65394 261.4398 84.16252 261.4398 83.24521 261.2754 83.0814 261.6699 83.04864 261.7357 83.04864 262.4589 83.04864 263.0507 83.17968 263.511 83.17968 263.6096 83.17968 263.8069 83.01588 263.9384 82.85208 263.9384 82.3279 263.9384 82.3279 262.722 82.3279 262.4589 82.3279 261.9987 82.36066 261.5384 82.55722 261.111 78.62589 259.9604 76.88955 257.1659 76.88955 255.029 76.88955 253.0564 78.2 251.9715 79.08455 251.4783 75.71015 249.6373 74.26866 246.2839 74.26866 244.5086 74.26866 241.6484 76.85679 240.6292 78.03619 240.1361L80.98469 238.9526C81.80372 238.6567 83.14692 238.0978 83.37625 237.9663 83.70386 237.7361 83.96595 237.3416 83.96595 236.8156 83.96595 236.1252 83.44178 235.0074 82.29514 235.0074 81.80372 235.0074 80.7226 235.1389 79.5432 236.0266 79.31388 236.2238 79.28111 236.2567 79.15007 236.2567 78.98626 236.2567 78.82246 236.1252 78.82246 235.928 78.82246 235.5663 80.52604 234.3499 82.29514 234.3499 84.39185 234.3499 85.66953 236.3882 85.66953 237.8019 85.66953 238.8211 85.11259 239.643 84.06424 240.1032L82.09857 240.8922ZM83.76938 260.6179C84.32632 260.7823 84.91602 260.7823 85.34192 260.7823 86.42304 260.7823 86.52132 260.7494 87.17654 260.585 86.78341 260.4206 86.52132 260.322 85.14535 260.322 84.52289 260.322 84.12976 260.322 83.76938 260.6179ZM81.18126 251.6098C81.96752 251.8071 82.68827 251.8071 83.0814 251.8071 84.16252 251.8071 84.22804 251.7742 84.94879 251.6098 84.58841 251.4455 84.29356 251.3468 82.88484 251.3468 82.09857 251.3468 81.77096 251.3468 81.18126 251.6098Z"/>
</clipPath>
<clipPath id="clip_30">
<path transform="matrix(1,0,0,-1,0,322)" d="M93.61147 238.2998H96.23925C95.61137 235.6552 95.21604 233.9315 95.21604 232.0425 95.21604 231.712 95.21604 229.1618 96.16949 229.1618 96.65784 229.1618 97.07642 229.6105 97.07642 230.0119 97.07642 230.1299 97.07642 230.1772 96.91364 230.5313 96.28576 232.1606 96.28576 234.1913 96.28576 234.3566 96.28576 234.4982 96.28576 236.1747 96.77411 238.2998H99.37863C99.68094 238.2998 100.4484 238.2998 100.4484 239.0554 100.4484 239.5749 100.0065 239.5749 99.58793 239.5749H91.93713C91.40227 239.5749 90.61161 239.5749 89.5419 238.4179 88.93728 237.7331 88.19312 236.4817 88.19312 236.34 88.19312 236.1983 88.3094 236.1511 88.44893 236.1511 88.61171 236.1511 88.63496 236.2219 88.75124 236.3636 89.96048 238.2998 91.16973 238.2998 91.75109 238.2998H93.07661C92.56501 236.5289 91.98364 234.4746 90.07675 230.3424 89.89072 229.9646 89.89072 229.9174 89.89072 229.7757 89.89072 229.2799 90.3093 229.1618 90.51859 229.1618 91.19298 229.1618 91.37902 229.7757 91.65807 230.7675 92.03015 231.9717 92.03015 232.0189 92.2627 232.9634L93.61147 238.2998Z"/>
</clipPath>
<clipPath id="clip_31">
<path transform="matrix(1,0,0,-1,0,322)" d="M265.0986 145.3922 261.6587 146.773C260.8069 147.1018 258.8412 147.8908 258.8412 149.8634 258.8412 152.6907 262.2811 155.551 262.9691 155.551 263.0346 155.551 263.3295 155.4852 263.4278 155.4523 264.3123 155.1893 265.1641 155.1893 265.7538 155.1893 266.7694 155.1893 268.7023 155.1893 268.7023 156.1427 268.7023 156.866 267.5229 156.9646 266.1142 156.9646 265.4589 156.9646 264.5744 156.9646 263.395 156.5701 262.6087 157.2276 262.2811 158.2797 262.2811 159.2659 262.2811 161.0741 263.4605 163.6385 266.0486 164.8549 266.6383 164.1645 267.4246 164.1645 268.1126 164.1645 268.9316 164.1645 270.93 164.1645 270.93 165.1179 270.93 165.9398 269.3575 165.9398 268.3092 165.9398 267.6539 165.9398 267.1625 165.9398 266.2452 165.7754 266.0814 166.1699 266.0486 166.2357 266.0486 166.9589 266.0486 167.5507 266.1797 168.011 266.1797 168.1096 266.1797 168.3069 266.0159 168.4384 265.8521 168.4384 265.3279 168.4384 265.3279 167.222 265.3279 166.9589 265.3279 166.4987 265.3607 166.0384 265.5572 165.611 261.6259 164.4604 259.8896 161.6659 259.8896 159.529 259.8896 157.5564 261.2 156.4715 262.0845 155.9783 258.7102 154.1373 257.2687 150.7839 257.2687 149.0086 257.2687 146.1484 259.8568 145.1292 261.0362 144.6361L263.9847 143.4526C264.8037 143.1567 266.1469 142.5978 266.3763 142.4663 266.7039 142.2361 266.966 141.8416 266.966 141.3156 266.966 140.6252 266.4418 139.5074 265.2951 139.5074 264.8037 139.5074 263.7226 139.6389 262.5432 140.5266 262.3139 140.7238 262.2811 140.7567 262.1501 140.7567 261.9863 140.7567 261.8225 140.6252 261.8225 140.428 261.8225 140.0663 263.526 138.8499 265.2951 138.8499 267.3918 138.8499 268.6695 140.8882 268.6695 142.3019 268.6695 143.3211 268.1126 144.143 267.0642 144.6032L265.0986 145.3922ZM266.7694 165.1179C267.3263 165.2823 267.916 165.2823 268.3419 165.2823 269.423 165.2823 269.5213 165.2494 270.1765 165.085 269.7834 164.9206 269.5213 164.822 268.1454 164.822 267.5229 164.822 267.1298 164.822 266.7694 165.1179ZM264.1813 156.1098C264.9675 156.3071 265.6883 156.3071 266.0814 156.3071 267.1625 156.3071 267.228 156.2742 267.9488 156.1098 267.5884 155.9455 267.2936 155.8468 265.8848 155.8468 265.0986 155.8468 264.771 155.8468 264.1813 156.1098Z"/>
</clipPath>
<clipPath id="clip_32">
<path transform="matrix(1,0,0,-1,0,322)" d="M276.6115 142.7998H279.2393C278.6114 140.1552 278.216 138.4315 278.216 136.5425 278.216 136.212 278.216 133.6618 279.1695 133.6618 279.6578 133.6618 280.0764 134.1105 280.0764 134.5119 280.0764 134.6299 280.0764 134.6772 279.9136 135.0313 279.2858 136.6606 279.2858 138.6913 279.2858 138.8566 279.2858 138.9982 279.2858 140.6747 279.7741 142.7998H282.3786C282.6809 142.7998 283.4484 142.7998 283.4484 143.5554 283.4484 144.0749 283.0065 144.0749 282.5879 144.0749H274.9371C274.4023 144.0749 273.6116 144.0749 272.5419 142.9179 271.9373 142.2331 271.1931 140.9817 271.1931 140.84 271.1931 140.6983 271.3094 140.6511 271.4489 140.6511 271.6117 140.6511 271.635 140.7219 271.7512 140.8636 272.9605 142.7998 274.1697 142.7998 274.7511 142.7998H276.0766C275.565 141.0289 274.9836 138.9746 273.0768 134.8424 272.8907 134.4646 272.8907 134.4174 272.8907 134.2757 272.8907 133.7799 273.3093 133.6618 273.5186 133.6618 274.193 133.6618 274.379 134.2757 274.6581 135.2675 275.0301 136.4717 275.0301 136.5189 275.2627 137.4634L276.6115 142.7998Z"/>
</clipPath>
<clipPath id="clip_33">
<path transform="matrix(1,0,0,-1,0,322)" d="M22.05215 243.8978 18.7015 245.2515C17.87182 245.5739 15.95716 246.3474 15.95716 248.2814 15.95716 251.0534 19.30781 253.8577 19.97794 253.8577 20.04176 253.8577 20.32896 253.7932 20.42469 253.761 21.28629 253.5031 22.11597 253.5031 22.69037 253.5031 23.67961 253.5031 25.56236 253.5031 25.56236 254.4379 25.56236 255.147 24.41356 255.2437 23.04139 255.2437 22.40317 255.2437 21.54158 255.2437 20.39278 254.8569 19.62692 255.5016 19.30781 256.533 19.30781 257.5 19.30781 259.2728 20.4566 261.787 22.97757 262.9796 23.55197 262.3027 24.31783 262.3027 24.98796 262.3027 25.78573 262.3027 27.7323 262.3027 27.7323 263.2374 27.7323 264.0433 26.20058 264.0433 25.17942 264.0433 24.54121 264.0433 24.06254 264.0433 23.16904 263.8821 23.00948 264.2689 22.97757 264.3334 22.97757 265.0425 22.97757 265.6227 23.10521 266.0739 23.10521 266.1706 23.10521 266.364 22.94566 266.493 22.7861 266.493 22.27553 266.493 22.27553 265.3003 22.27553 265.0425 22.27553 264.5912 22.30744 264.14 22.4989 263.7209 18.66959 262.5928 16.97831 259.853 16.97831 257.7579 16.97831 255.8239 18.25475 254.7602 19.11634 254.2767 15.82952 252.4717 14.42543 249.1839 14.42543 247.4434 14.42543 244.6391 16.9464 243.6399 18.09519 243.1564L20.96718 241.996C21.76495 241.7059 23.0733 241.158 23.29668 241.029 23.61579 240.8034 23.87107 240.4166 23.87107 239.9009 23.87107 239.224 23.3605 238.1281 22.24362 238.1281 21.76495 238.1281 20.71189 238.257 19.5631 239.1273 19.33972 239.3207 19.30781 239.3529 19.18017 239.3529 19.02061 239.3529 18.86106 239.224 18.86106 239.0306 18.86106 238.676 20.52043 237.4834 22.24362 237.4834 24.28592 237.4834 25.53044 239.4819 25.53044 240.8679 25.53044 241.8671 24.98796 242.6729 23.96681 243.1242L22.05215 243.8978ZM23.67961 263.2374C24.2221 263.3986 24.79649 263.3986 25.21134 263.3986 26.2644 263.3986 26.36013 263.3664 26.99835 263.2052 26.61542 263.044 26.36013 262.9473 25.01987 262.9473 24.41356 262.9473 24.03063 262.9473 23.67961 263.2374ZM21.15864 254.4056C21.92451 254.599 22.62655 254.599 23.00948 254.599 24.06254 254.599 24.12636 254.5668 24.82841 254.4056 24.47738 254.2445 24.19018 254.1478 22.81801 254.1478 22.05215 254.1478 21.73304 254.1478 21.15864 254.4056Z"/>
</clipPath>
<clipPath id="clip_34">
<path transform="matrix(1,0,0,-1,0,322)" d="M173.7653 245.8978 170.4146 247.2515C169.5849 247.5739 167.6703 248.3474 167.6703 250.2814 167.6703 253.0534 171.0209 255.8577 171.691 255.8577 171.7549 255.8577 172.0421 255.7932 172.1378 255.761 172.9994 255.5031 173.8291 255.5031 174.4035 255.5031 175.3927 255.5031 177.2755 255.5031 177.2755 256.4379 177.2755 257.147 176.1267 257.2437 174.7545 257.2437 174.1163 257.2437 173.2547 257.2437 172.1059 256.8569 171.34 257.5016 171.0209 258.533 171.0209 259.5 171.0209 261.2728 172.1697 263.787 174.6907 264.9796 175.2651 264.3027 176.0309 264.3027 176.7011 264.3027 177.4988 264.3027 179.4454 264.3027 179.4454 265.2374 179.4454 266.0433 177.9137 266.0433 176.8925 266.0433 176.2543 266.0433 175.7756 266.0433 174.8821 265.8821 174.7226 266.2689 174.6907 266.3334 174.6907 267.0425 174.6907 267.6227 174.8183 268.0739 174.8183 268.1706 174.8183 268.364 174.6588 268.493 174.4992 268.493 173.9886 268.493 173.9886 267.3003 173.9886 267.0425 173.9886 266.5912 174.0205 266.14 174.212 265.7209 170.3827 264.5928 168.6914 261.853 168.6914 259.7579 168.6914 257.8239 169.9679 256.7602 170.8295 256.2767 167.5426 254.4717 166.1385 251.1839 166.1385 249.4434 166.1385 246.6391 168.6595 245.6399 169.8083 245.1564L172.6803 243.996C173.4781 243.7059 174.7864 243.158 175.0098 243.029 175.3289 242.8034 175.5842 242.4166 175.5842 241.9009 175.5842 241.224 175.0736 240.1281 173.9567 240.1281 173.4781 240.1281 172.425 240.257 171.2762 241.1273 171.0528 241.3207 171.0209 241.3529 170.8933 241.3529 170.7337 241.3529 170.5742 241.224 170.5742 241.0306 170.5742 240.676 172.2335 239.4834 173.9567 239.4834 175.999 239.4834 177.2436 241.4819 177.2436 242.8679 177.2436 243.8671 176.7011 244.6729 175.6799 245.1242L173.7653 245.8978ZM175.3927 265.2374C175.9352 265.3986 176.5096 265.3986 176.9244 265.3986 177.9775 265.3986 178.0732 265.3664 178.7115 265.2052 178.3285 265.044 178.0732 264.9473 176.733 264.9473 176.1267 264.9473 175.7437 264.9473 175.3927 265.2374ZM172.8718 256.4056C173.6376 256.599 174.3397 256.599 174.7226 256.599 175.7756 256.599 175.8395 256.5668 176.5415 256.4056 176.1905 256.2445 175.9033 256.1478 174.5311 256.1478 173.7653 256.1478 173.4461 256.1478 172.8718 256.4056Z"/>
</clipPath>
<clipPath id="clip_35">
<path transform="matrix(1,0,0,-1,0,322)" d="M217.7131 264.9228C220.4745 264.9228 222.7131 267.1787 222.7131 269.9614 222.7131 272.7441 220.4745 275 217.7131 275 214.9517 275 212.7131 272.7441 212.7131 269.9614 212.7131 267.1787 214.9517 264.9228 217.7131 264.9228Z" fill-rule="evenodd"/>
</clipPath>
<clipPath id="clip_36">
<path transform="matrix(1,0,0,-1,0,322)" d="M202.7131 228.9228C205.4745 228.9228 207.7131 231.1787 207.7131 233.9614 207.7131 236.7441 205.4745 239 202.7131 239 199.9517 239 197.7131 236.7441 197.7131 233.9614 197.7131 231.1787 199.9517 228.9228 202.7131 228.9228Z" fill-rule="evenodd"/>
</clipPath>
<clipPath id="clip_37">
<path transform="matrix(1,0,0,-1,0,322)" d="M208.7131 185.9228C211.4745 185.9228 213.7131 188.1787 213.7131 190.9614 213.7131 193.7441 211.4745 196 208.7131 196 205.9517 196 203.7131 193.7441 203.7131 190.9614 203.7131 188.1787 205.9517 185.9228 208.7131 185.9228Z" fill-rule="evenodd"/>
</clipPath>
<clipPath id="clip_38">
<path transform="matrix(1,0,0,-1,0,322)" d="M221.7131 142.9228C224.4745 142.9228 226.7131 145.1787 226.7131 147.9614 226.7131 150.7441 224.4745 153 221.7131 153 218.9517 153 216.7131 150.7441 216.7131 147.9614 216.7131 145.1787 218.9517 142.9228 221.7131 142.9228Z" fill-rule="evenodd"/>
</clipPath>
<clipPath id="clip_39">
<path transform="matrix(1,0,0,-1,0,322)" d="M211.7131 102.9228C214.4745 102.9228 216.7131 105.1787 216.7131 107.9614 216.7131 110.7441 214.4745 113 211.7131 113 208.9517 113 206.7131 110.7441 206.7131 107.9614 206.7131 105.1787 208.9517 102.9228 211.7131 102.9228Z" fill-rule="evenodd"/>
</clipPath>
<clipPath id="clip_40">
<path transform="matrix(1,0,0,-1,0,322)" d="M260.7131 102.9228C263.4745 102.9228 265.7131 105.1787 265.7131 107.9614 265.7131 110.7441 263.4745 113 260.7131 113 257.9517 113 255.7131 110.7441 255.7131 107.9614 255.7131 105.1787 257.9517 102.9228 260.7131 102.9228Z" fill-rule="evenodd"/>
</clipPath>
<clipPath id="clip_41">
<path transform="matrix(1,0,0,-1,0,322)" d="M196.7131 69.9228C199.4745 69.9228 201.7131 72.17866 201.7131 74.9614 201.7131 77.74414 199.4745 80 196.7131 80 193.9517 80 191.7131 77.74414 191.7131 74.9614 191.7131 72.17866 193.9517 69.9228 196.7131 69.9228Z" fill-rule="evenodd"/>
</clipPath>
<clipPath id="clip_42">
<path transform="matrix(1,0,0,-1,0,322)" d="M256.7131 69.9228C259.4745 69.9228 261.7131 72.17866 261.7131 74.9614 261.7131 77.74414 259.4745 80 256.7131 80 253.9517 80 251.7131 77.74414 251.7131 74.9614 251.7131 72.17866 253.9517 69.9228 256.7131 69.9228Z" fill-rule="evenodd"/>
</clipPath>
<clipPath id="clip_43">
<path transform="matrix(1,0,0,-1,0,322)" d="M197.7131 30.9228C200.4745 30.9228 202.7131 33.17866 202.7131 35.9614 202.7131 38.74414 200.4745 41 197.7131 41 194.9517 41 192.7131 38.74414 192.7131 35.9614 192.7131 33.17866 194.9517 30.9228 197.7131 30.9228Z" fill-rule="evenodd"/>
</clipPath>
<clipPath id="clip_44">
<path transform="matrix(1,0,0,-1,0,322)" d="M270.7131 31.9228C273.4745 31.9228 275.7131 34.17866 275.7131 36.9614 275.7131 39.74414 273.4745 42 270.7131 42 267.9517 42 265.7131 39.74414 265.7131 36.9614 265.7131 34.17866 267.9517 31.9228 270.7131 31.9228Z" fill-rule="evenodd"/>
</clipPath>
<clipPath id="clip_45">
<path transform="matrix(1,0,0,-1,0,322)" d="M224.2131 107.9614H247.2131" fill-rule="evenodd"/>
</clipPath>
<clipPath id="clip_46">
<path transform="matrix(1,0,0,-1,0,322)" d="M216.6822 108.4653 224.744 112.9653V103.9653L216.6822 108.4653Z" fill-rule="evenodd"/>
</clipPath>
<clipPath id="clip_47">
<path transform="matrix(1,0,0,-1,0,322)" d="M255.744 108.4653 247.6822 112.9653V103.9653L255.744 108.4653Z" fill-rule="evenodd"/>
</clipPath>
<clipPath id="clip_48">
<path transform="matrix(1,0,0,-1,0,322)" d="M210.2131 74.99228H245.7131" fill-rule="evenodd"/>
</clipPath>
<clipPath id="clip_49">
<path transform="matrix(1,0,0,-1,0,322)" d="M201.7131 75.5 209.7749 80V71L201.7131 75.5Z" fill-rule="evenodd"/>
</clipPath>
<clipPath id="clip_50">
<path transform="matrix(1,0,0,-1,0,322)" d="M251.7749 75.5 243.7131 80V71L251.7749 75.5Z" fill-rule="evenodd"/>
</clipPath>
<clipPath id="clip_51">
<path transform="matrix(1,0,0,-1,0,322)" d="M210 35.99228H256.7131" fill-rule="evenodd"/>
</clipPath>
<clipPath id="clip_52">
<path transform="matrix(1,0,0,-1,0,322)" d="M202.7131 36.5 210.7749 41V32L202.7131 36.5Z" fill-rule="evenodd"/>
</clipPath>
<clipPath id="clip_53">
<path transform="matrix(1,0,0,-1,0,322)" d="M265.7749 36.5 257.7131 41V32L265.7749 36.5Z" fill-rule="evenodd"/>
</clipPath>
<clipPath id="clip_54">
<path transform="matrix(1,0,0,-1,0,322)" d="M411.633 156.527H415.6758C414.7098 152.6804 414.1016 150.1731 414.1016 147.4255 414.1016 146.9447 414.1016 143.2354 415.5684 143.2354 416.3197 143.2354 416.9637 143.8879 416.9637 144.4718 416.9637 144.6435 416.9637 144.7122 416.7133 145.2274 415.7473 147.5972 415.7473 150.5509 415.7473 150.7914 415.7473 150.9974 415.7473 153.436 416.4986 156.527H420.5056C420.9707 156.527 422.1513 156.527 422.1513 157.6261 422.1513 158.3817 421.4716 158.3817 420.8276 158.3817H409.0571C408.2343 158.3817 407.0179 158.3817 405.3721 156.6988 404.442 155.7027 403.2971 153.8824 403.2971 153.6764 403.2971 153.4703 403.476 153.4016 403.6907 153.4016 403.9411 153.4016 403.9769 153.5046 404.1557 153.7107 406.0161 156.527 407.8765 156.527 408.7709 156.527H410.8102C410.0231 153.9511 409.1287 150.9631 406.195 144.9526 405.9088 144.4031 405.9088 144.3344 405.9088 144.1283 405.9088 143.4071 406.5528 143.2354 406.8748 143.2354 407.9123 143.2354 408.1985 144.1283 408.6278 145.5709 409.2002 147.3225 409.2002 147.3912 409.558 148.765L411.633 156.527Z"/>
</clipPath>
<clipPath id="clip_55">
<path transform="matrix(1,0,0,-1,0,322)" d="M317.0522 245.8978 313.7015 247.2515C312.8718 247.5739 310.9572 248.3474 310.9572 250.2814 310.9572 253.0534 314.3078 255.8577 314.9779 255.8577 315.0418 255.8577 315.329 255.7932 315.4247 255.761 316.2863 255.5031 317.116 255.5031 317.6904 255.5031 318.6796 255.5031 320.5624 255.5031 320.5624 256.4379 320.5624 257.147 319.4136 257.2437 318.0414 257.2437 317.4032 257.2437 316.5416 257.2437 315.3928 256.8569 314.6269 257.5016 314.3078 258.533 314.3078 259.5 314.3078 261.2728 315.4566 263.787 317.9776 264.9796 318.552 264.3027 319.3178 264.3027 319.988 264.3027 320.7857 264.3027 322.7323 264.3027 322.7323 265.2374 322.7323 266.0433 321.2006 266.0433 320.1794 266.0433 319.5412 266.0433 319.0625 266.0433 318.169 265.8821 318.0095 266.2689 317.9776 266.3334 317.9776 267.0425 317.9776 267.6227 318.1052 268.0739 318.1052 268.1706 318.1052 268.364 317.9457 268.493 317.7861 268.493 317.2755 268.493 317.2755 267.3003 317.2755 267.0425 317.2755 266.5912 317.3074 266.14 317.4989 265.7209 313.6696 264.5928 311.9783 261.853 311.9783 259.7579 311.9783 257.8239 313.2547 256.7602 314.1163 256.2767 310.8295 254.4717 309.4254 251.1839 309.4254 249.4434 309.4254 246.6391 311.9464 245.6399 313.0952 245.1564L315.9672 243.996C316.765 243.7059 318.0733 243.158 318.2967 243.029 318.6158 242.8034 318.8711 242.4166 318.8711 241.9009 318.8711 241.224 318.3605 240.1281 317.2436 240.1281 316.765 240.1281 315.7119 240.257 314.5631 241.1273 314.3397 241.3207 314.3078 241.3529 314.1802 241.3529 314.0206 241.3529 313.8611 241.224 313.8611 241.0306 313.8611 240.676 315.5204 239.4834 317.2436 239.4834 319.2859 239.4834 320.5304 241.4819 320.5304 242.8679 320.5304 243.8671 319.988 244.6729 318.9668 245.1242L317.0522 245.8978ZM318.6796 265.2374C319.2221 265.3986 319.7965 265.3986 320.2113 265.3986 321.2644 265.3986 321.3601 265.3664 321.9983 265.2052 321.6154 265.044 321.3601 264.9473 320.0199 264.9473 319.4136 264.9473 319.0306 264.9473 318.6796 265.2374ZM316.1586 256.4056C316.9245 256.599 317.6265 256.599 318.0095 256.599 319.0625 256.599 319.1264 256.5668 319.8284 256.4056 319.4774 256.2445 319.1902 256.1478 317.818 256.1478 317.0522 256.1478 316.733 256.1478 316.1586 256.4056Z"/>
</clipPath>
<clipPath id="clip_56">
<path transform="matrix(1,0,0,-1,0,322)" d="M361 264.9228C363.7614 264.9228 366 267.1787 366 269.9614 366 272.7441 363.7614 275 361 275 358.2386 275 356 272.7441 356 269.9614 356 267.1787 358.2386 264.9228 361 264.9228Z" fill-rule="evenodd"/>
</clipPath>
<clipPath id="clip_57">
<path transform="matrix(1,0,0,-1,0,322)" d="M346 228.9228C348.7614 228.9228 351 231.1787 351 233.9614 351 236.7441 348.7614 239 346 239 343.2386 239 341 236.7441 341 233.9614 341 231.1787 343.2386 228.9228 346 228.9228Z" fill-rule="evenodd"/>
</clipPath>
<clipPath id="clip_58">
<path transform="matrix(1,0,0,-1,0,322)" d="M352 185.9228C354.7614 185.9228 357 188.1787 357 190.9614 357 193.7441 354.7614 196 352 196 349.2386 196 347 193.7441 347 190.9614 347 188.1787 349.2386 185.9228 352 185.9228Z" fill-rule="evenodd"/>
</clipPath>
<clipPath id="clip_59">
<path transform="matrix(1,0,0,-1,0,322)" d="M365 142.9228C367.7614 142.9228 370 145.1787 370 147.9614 370 150.7441 367.7614 153 365 153 362.2386 153 360 150.7441 360 147.9614 360 145.1787 362.2386 142.9228 365 142.9228Z" fill-rule="evenodd"/>
</clipPath>
<clipPath id="clip_60">
<path transform="matrix(1,0,0,-1,0,322)" d="M355 102.9228C357.7614 102.9228 360 105.1787 360 107.9614 360 110.7441 357.7614 113 355 113 352.2386 113 350 110.7441 350 107.9614 350 105.1787 352.2386 102.9228 355 102.9228Z" fill-rule="evenodd"/>
</clipPath>
<clipPath id="clip_61">
<path transform="matrix(1,0,0,-1,0,322)" d="M404 102.9228C406.7614 102.9228 409 105.1787 409 107.9614 409 110.7441 406.7614 113 404 113 401.2386 113 399 110.7441 399 107.9614 399 105.1787 401.2386 102.9228 404 102.9228Z" fill-rule="evenodd"/>
</clipPath>
<clipPath id="clip_62">
<path transform="matrix(1,0,0,-1,0,322)" d="M340 69.9228C342.7614 69.9228 345 72.17866 345 74.9614 345 77.74414 342.7614 80 340 80 337.2386 80 335 77.74414 335 74.9614 335 72.17866 337.2386 69.9228 340 69.9228Z" fill-rule="evenodd"/>
</clipPath>
<clipPath id="clip_63">
<path transform="matrix(1,0,0,-1,0,322)" d="M400 69.9228C402.7614 69.9228 405 72.17866 405 74.9614 405 77.74414 402.7614 80 400 80 397.2386 80 395 77.74414 395 74.9614 395 72.17866 397.2386 69.9228 400 69.9228Z" fill-rule="evenodd"/>
</clipPath>
<clipPath id="clip_64">
<path transform="matrix(1,0,0,-1,0,322)" d="M341 30.9228C343.7614 30.9228 346 33.17866 346 35.9614 346 38.74414 343.7614 41 341 41 338.2386 41 336 38.74414 336 35.9614 336 33.17866 338.2386 30.9228 341 30.9228Z" fill-rule="evenodd"/>
</clipPath>
<clipPath id="clip_65">
<path transform="matrix(1,0,0,-1,0,322)" d="M414 31.9228C416.7614 31.9228 419 34.17866 419 36.9614 419 39.74414 416.7614 42 414 42 411.2386 42 409 39.74414 409 36.9614 409 34.17866 411.2386 31.9228 414 31.9228Z" fill-rule="evenodd"/>
</clipPath>
<clipPath id="clip_66">
<path transform="matrix(1,0,0,-1,0,322)" d="M367.5 107.9614H390.5" fill-rule="evenodd"/>
</clipPath>
<clipPath id="clip_67">
<path transform="matrix(1,0,0,-1,0,322)" d="M359.9691 108.4653 368.0309 112.9653V103.9653L359.9691 108.4653Z" fill-rule="evenodd"/>
</clipPath>
<clipPath id="clip_68">
<path transform="matrix(1,0,0,-1,0,322)" d="M399.0309 108.4653 390.9691 112.9653V103.9653L399.0309 108.4653Z" fill-rule="evenodd"/>
</clipPath>
<clipPath id="clip_69">
<path transform="matrix(1,0,0,-1,0,322)" d="M353.5 74.99228H389" fill-rule="evenodd"/>
</clipPath>
<clipPath id="clip_70">
<path transform="matrix(1,0,0,-1,0,322)" d="M345 75.5 353.0618 80V71L345 75.5Z" fill-rule="evenodd"/>
</clipPath>
<clipPath id="clip_71">
<path transform="matrix(1,0,0,-1,0,322)" d="M395.0618 75.5 387 80V71L395.0618 75.5Z" fill-rule="evenodd"/>
</clipPath>
<clipPath id="clip_72">
<path transform="matrix(1,0,0,-1,0,322)" d="M354 35.99228H400" fill-rule="evenodd"/>
</clipPath>
<clipPath id="clip_73">
<path transform="matrix(1,0,0,-1,0,322)" d="M346 36.5 354.0618 41V32L346 36.5Z" fill-rule="evenodd"/>
</clipPath>
<clipPath id="clip_74">
<path transform="matrix(1,0,0,-1,0,322)" d="M409.0618 36.5 401 41V32L409.0618 36.5Z" fill-rule="evenodd"/>
</clipPath>
<clipPath id="clip_75">
<path transform="matrix(1,0,0,-1,0,322)" d="M362.633 63.4464H366.6758C365.7098 59.47428 365.1016 56.88531 365.1016 54.04808 365.1016 53.55156 365.1016 49.7213 366.5684 49.7213 367.3197 49.7213 367.9637 50.39515 367.9637 50.99806 367.9637 51.17538 367.9637 51.24632 367.7133 51.77829 366.7473 54.22541 366.7473 57.27543 366.7473 57.52368 366.7473 57.73647 366.7473 60.25451 367.4986 63.4464H371.5056C371.9707 63.4464 373.1513 63.4464 373.1513 64.58129 373.1513 65.36153 372.4716 65.36153 371.8276 65.36153H360.0571C359.2343 65.36153 358.0179 65.36153 356.3721 63.62372 355.442 62.59523 354.2971 60.71556 354.2971 60.50277 354.2971 60.28998 354.476 60.21905 354.6907 60.21905 354.9411 60.21905 354.9769 60.32545 355.1557 60.53824 357.0161 63.4464 358.8765 63.4464 359.7709 63.4464H361.8102C361.0231 60.7865 360.1287 57.70101 357.195 51.49457 356.9088 50.92713 356.9088 50.8562 356.9088 50.6434 356.9088 49.89863 357.5528 49.7213 357.8748 49.7213 358.9123 49.7213 359.1985 50.6434 359.6278 52.13295 360.2002 53.94168 360.2002 54.01261 360.558 55.43123L362.633 63.4464Z"/>
</clipPath>
<clipPath id="clip_76">
<path transform="matrix(1,0,0,-1,0,322)" d="M364.633 100.4464H368.6758C367.7098 96.47428 367.1016 93.88531 367.1016 91.04808 367.1016 90.55156 367.1016 86.7213 368.5684 86.7213 369.3197 86.7213 369.9637 87.39515 369.9637 87.99806 369.9637 88.17538 369.9637 88.24632 369.7133 88.77829 368.7473 91.22541 368.7473 94.27543 368.7473 94.52368 368.7473 94.73647 368.7473 97.25451 369.4986 100.4464H373.5056C373.9707 100.4464 375.1513 100.4464 375.1513 101.5813 375.1513 102.3615 374.4716 102.3615 373.8276 102.3615H362.0571C361.2343 102.3615 360.0179 102.3615 358.3721 100.6237 357.442 99.59523 356.2971 97.71556 356.2971 97.50277 356.2971 97.28998 356.476 97.21905 356.6907 97.21905 356.9411 97.21905 356.9769 97.32545 357.1557 97.53824 359.0161 100.4464 360.8765 100.4464 361.7709 100.4464H363.8102C363.0231 97.7865 362.1287 94.70101 359.195 88.49457 358.9088 87.92713 358.9088 87.8562 358.9088 87.6434 358.9088 86.89863 359.5528 86.7213 359.8748 86.7213 360.9123 86.7213 361.1985 87.6434 361.6278 89.13295 362.2002 90.94168 362.2002 91.01261 362.558 92.43123L364.633 100.4464Z"/>
</clipPath>
</defs>
<text xml:space="preserve" transform="matrix(1 0 0 1 13 2.0314027)" font-size="24" font-family="Palatino" font-weight="bold" font-style="italic"><tspan y="25" x=".07678412 9.069585 22.070385 35.071187 45.383989 54.37679 64.68959 75.002399 80.659198 97.644">Inverse RL</tspan></text>
<path transform="matrix(1,0,0,1,44,52.17041)" stroke-width="3" stroke-linecap="butt" stroke-miterlimit="10" stroke-linejoin="miter" fill="none" stroke="#008000" d="M26 0C19.36807 3.906609 19.40076 2.978716 13.03606 11.00123 10.16494 14.62019 8.714884 21.21276 7.452733 27.25386-2.074854 72.85628 25.43104 87.852 25.52536 128.3938 25.59337 157.6247 10.07877 165.9391 3.065497 185.204-2.438047 200.3219 .7325224 217.5231 2.850327 233.8462"/>
<path transform="matrix(.9510565,-.309017,.309017,.9510565,43.7232,62.251314)" stroke-width="3" stroke-linecap="butt" stroke-miterlimit="10" stroke-linejoin="miter" fill="none" stroke="#f79646" d="M26 0C19.36807 3.906609 19.40076 2.978716 13.03606 11.00123 10.16494 14.62019 8.714884 21.21276 7.452733 27.25386-2.074854 72.85628 25.43104 87.852 25.52536 128.3938 25.59337 157.6247 10.07877 165.9391 3.065497 185.204-2.438047 200.3219 .7325224 217.5231 2.850327 233.8462"/>
<g clip-path="url(#clip_0)">
<path transform="matrix(1,0,0,-1,0,322)" d="M56 279.8682H76V259.791H56Z"/>
</g>
<g clip-path="url(#clip_1)">
<path transform="matrix(1,0,0,-1,0,322)" d="M41 243.5903H61V223.5131H41Z" fill="#008000"/>
</g>
<g clip-path="url(#clip_2)">
<path transform="matrix(1,0,0,-1,0,322)" d="M51 243.5903H71V223.5131H51Z" fill="#f79646"/>
</g>
<g clip-path="url(#clip_3)">
<path transform="matrix(1,0,0,-1,0,322)" d="M47 200.2584H67V180.1812H47Z" fill="#008000"/>
</g>
<g clip-path="url(#clip_4)">
<path transform="matrix(1,0,0,-1,0,322)" d="M70 200.2584H90V180.1812H70Z" fill="#ff8c00"/>
</g>
<g clip-path="url(#clip_5)">
<path transform="matrix(1,0,0,-1,0,322)" d="M70 200.2584H90V180.1812H70Z" fill="#f79646"/>
</g>
<g clip-path="url(#clip_6)">
<path transform="matrix(1,0,0,-1,0,322)" d="M60 157.9341H80V137.8569H60Z" fill="#008000"/>
</g>
<g clip-path="url(#clip_7)">
<path transform="matrix(1,0,0,-1,0,322)" d="M97 158.9418H117V138.8646H97Z" fill="#f79646"/>
</g>
<g clip-path="url(#clip_8)">
<path transform="matrix(1,0,0,-1,0,322)" d="M50 117.6253H70V97.54812H50Z" fill="#008000"/>
</g>
<g clip-path="url(#clip_9)">
<path transform="matrix(1,0,0,-1,0,322)" d="M99 117.6253H119V97.54812H99Z" fill="#f79646"/>
</g>
<g clip-path="url(#clip_10)">
<path transform="matrix(1,0,0,-1,0,322)" d="M35 84.37056H55V64.29336H35Z" fill="#008000"/>
</g>
<g clip-path="url(#clip_11)">
<path transform="matrix(1,0,0,-1,0,322)" d="M95 84.37056H115V64.29336H95Z" fill="#f79646"/>
</g>
<g clip-path="url(#clip_12)">
<path transform="matrix(1,0,0,-1,0,322)" d="M36 46.0772H56V26H36Z" fill="#008000"/>
</g>
<g clip-path="url(#clip_13)">
<path transform="matrix(1,0,0,-1,0,322)" d="M109 47.08492H129V27.00772H109Z" fill="#f79646"/>
</g>
<g clip-path="url(#clip_14)">
<path transform="matrix(1,0,0,-1,0,322)" d="M67.5 112.5867H100.5V102.5867H67.5Z" fill="#f86565"/>
</g>
<path transform="matrix(1,0,0,1,72,213.40561)" stroke-width="2" stroke-linecap="square" stroke-miterlimit="10" stroke-linejoin="miter" fill="none" stroke="#f86565" d="M.5 1.00772H23.5"/>
<g clip-path="url(#clip_15)">
<path transform="matrix(1,0,0,-1,0,322)" d="M59.96912 98.59058V117.5906H78.03088V98.59058Z" fill="#f86565"/>
</g>
<g clip-path="url(#clip_16)">
<path transform="matrix(1,0,0,-1,0,322)" d="M109.0309 98.59058V117.5906H90.96912V98.59058Z" fill="#f86565"/>
</g>
<g clip-path="url(#clip_17)">
<path transform="matrix(1,0,0,-1,0,322)" d="M53.5 79.33196H99V69.33196H53.5Z" fill="#f86565"/>
</g>
<path transform="matrix(1,0,0,1,58,246.66031)" stroke-width="2" stroke-linecap="square" stroke-miterlimit="10" stroke-linejoin="miter" fill="none" stroke="#f86565" d="M.5 1.00772H36"/>
<g clip-path="url(#clip_18)">
<path transform="matrix(1,0,0,-1,0,322)" d="M44.96912 65.33582V84.33582H63.03088V65.33582Z" fill="#f86565"/>
</g>
<g clip-path="url(#clip_19)">
<path transform="matrix(1,0,0,-1,0,322)" d="M105.0309 65.33582V84.33582H86.96912V65.33582Z" fill="#f86565"/>
</g>
<g clip-path="url(#clip_20)">
<path transform="matrix(1,0,0,-1,0,322)" d="M54 41.0386H110V31.0386H54Z" fill="#f86565"/>
</g>
<path transform="matrix(1,0,0,1,59,284.95368)" stroke-width="2" stroke-linecap="square" stroke-miterlimit="10" stroke-linejoin="miter" fill="none" stroke="#f86565" d="M0 1.00772H46"/>
<g clip-path="url(#clip_21)">
<path transform="matrix(1,0,0,-1,0,322)" d="M45.96912 27.04246V46.04246H64.03088V27.04246Z" fill="#f86565"/>
</g>
<g clip-path="url(#clip_22)">
<path transform="matrix(1,0,0,-1,0,322)" d="M119.0309 27.04246V46.04246H100.9691V27.04246Z" fill="#f86565"/>
</g>
<g clip-path="url(#clip_23)">
<path transform="matrix(1,0,0,-1,0,322)" d="M78.5 151.8878H102V141.8878H78.5Z" fill="#f86565"/>
</g>
<path transform="matrix(1,0,0,1,83,174.1045)" stroke-width="2" stroke-linecap="square" stroke-miterlimit="10" stroke-linejoin="miter" fill="none" stroke="#f86565" d="M.5 1.00772H14"/>
<g clip-path="url(#clip_24)">
<path transform="matrix(1,0,0,-1,0,322)" d="M61 195.2198H76V185.2198H61Z" fill="#f86565"/>
</g>
<path transform="matrix(1,0,0,1,66,130.7725)" stroke-width="2" stroke-linecap="square" stroke-miterlimit="10" stroke-linejoin="miter" fill="none" stroke="#f86565" d="M0 1.00772H5"/>
<g clip-path="url(#clip_25)">
<path transform="matrix(1,0,0,-1,0,322)" d="M69.96912 137.8917V156.8917H88.03088V137.8917Z" fill="#f86565"/>
</g>
<g clip-path="url(#clip_26)">
<path transform="matrix(1,0,0,-1,0,322)" d="M56.97877 181.2236V200.2236H72.52123V181.2236Z" fill="#f86565"/>
</g>
<g clip-path="url(#clip_27)">
<path transform="matrix(1,0,0,-1,0,322)" d="M80.52123 181.2236V200.2236H64.97877V181.2236Z" fill="#f86565"/>
</g>
<g clip-path="url(#clip_28)">
<path transform="matrix(1,0,0,-1,0,322)" d="M107.0309 137.8917V156.8917H88.96912V137.8917Z" fill="#f86565"/>
</g>
<g clip-path="url(#clip_29)">
<path transform="matrix(1,0,0,-1,0,322)" d="M69.26866 268.9384H92.93005V229.3499H69.26866Z" fill="#ff8c00"/>
</g>
<g clip-path="url(#clip_30)">
<path transform="matrix(1,0,0,-1,0,322)" d="M83.19312 244.5749H105.4484V224.1618H83.19312Z" fill="#f79646"/>
</g>
<g clip-path="url(#clip_31)">
<path transform="matrix(1,0,0,-1,0,322)" d="M252.2687 173.4384H275.93V133.8499H252.2687Z" fill="#ff8c00"/>
</g>
<g clip-path="url(#clip_32)">
<path transform="matrix(1,0,0,-1,0,322)" d="M266.1931 149.0749H288.4484V128.6618H266.1931Z" fill="#f79646"/>
</g>
<text fill="#f86565" xml:space="preserve" transform="matrix(1 0 0 1 77 285)" font-size="20" font-family="Palatino" font-weight="bold" font-style="italic"><tspan y="20" x=".396926">r</tspan></text>
<text fill="#008f00" xml:space="preserve" transform="matrix(1 0 0 1 28 73)" font-size="20" font-family="Palatino" font-weight="bold" font-style="italic"><tspan y="20" x=".08481196">E</tspan></text>
<g clip-path="url(#clip_33)">
<path transform="matrix(1,0,0,-1,0,322)" d="M9.425435 271.493H32.7323V232.4834H9.425435Z" fill="#008000"/>
</g>
<text fill="#008f00" xml:space="preserve" transform="matrix(1 0 0 1 179.7131 71)" font-size="20" font-family="Palatino" font-weight="bold" font-style="italic"><tspan y="20" x=".08481196">E</tspan></text>
<g clip-path="url(#clip_34)">
<path transform="matrix(1,0,0,-1,0,322)" d="M161.1385 273.493H184.4454V234.4834H161.1385Z" fill="#008000"/>
</g>
<text xml:space="preserve" transform="matrix(1 0 0 1 185 2)" font-size="24" font-family="Palatino" font-weight="bold" font-style="italic"><tspan y="25" x=".04321365 18.362416 35.337617 57.640817">NRMM</tspan></text>
<path transform="matrix(1,0,0,1,195.7131,52)" stroke-width="3" stroke-linecap="butt" stroke-miterlimit="10" stroke-linejoin="miter" fill="none" stroke="#008000" d="M26 0C19.36807 3.906609 19.40076 2.978716 13.03606 11.00123 10.16494 14.62019 8.714884 21.21276 7.452733 27.25386-2.074854 72.85628 25.43104 87.852 25.52536 128.3938 25.59337 157.6247 10.07877 165.9391 3.065497 185.204-2.438047 200.3219 .7325224 217.5231 2.850327 233.8462"/>
<path transform="matrix(.9510565,-.309017,.309017,.9510565,224.7926,173.654)" stroke-width="3" stroke-linecap="butt" stroke-miterlimit="10" stroke-linejoin="miter" fill="none" stroke="#f79646" d="M0 0C15.58399 1.780504 26.76798 10.64981 26.13738 25.36766 24.90965 54.02249 16.91486 50.79656 9.90159 70.06147 4.398047 85.17928 7.568616 102.3805 9.686421 118.7036"/>
<g clip-path="url(#clip_35)">
<path transform="matrix(1,0,0,-1,0,322)" d="M207.7131 280H227.7131V259.9228H207.7131Z"/>
</g>
<g clip-path="url(#clip_36)">
<path transform="matrix(1,0,0,-1,0,322)" d="M192.7131 244H212.7131V223.9228H192.7131Z" fill="#008000"/>
</g>
<g clip-path="url(#clip_37)">
<path transform="matrix(1,0,0,-1,0,322)" d="M198.7131 201H218.7131V180.9228H198.7131Z" fill="#008000"/>
</g>
<g clip-path="url(#clip_38)">
<path transform="matrix(1,0,0,-1,0,322)" d="M211.7131 158H231.7131V137.9228H211.7131Z" fill="#008000"/>
</g>
<g clip-path="url(#clip_39)">
<path transform="matrix(1,0,0,-1,0,322)" d="M201.7131 118H221.7131V97.9228H201.7131Z" fill="#008000"/>
</g>
<g clip-path="url(#clip_40)">
<path transform="matrix(1,0,0,-1,0,322)" d="M250.7131 118H270.7131V97.9228H250.7131Z" fill="#f79646"/>
</g>
<g clip-path="url(#clip_41)">
<path transform="matrix(1,0,0,-1,0,322)" d="M186.7131 85H206.7131V64.9228H186.7131Z" fill="#008000"/>
</g>
<g clip-path="url(#clip_42)">
<path transform="matrix(1,0,0,-1,0,322)" d="M246.7131 85H266.7131V64.9228H246.7131Z" fill="#f79646"/>
</g>
<g clip-path="url(#clip_43)">
<path transform="matrix(1,0,0,-1,0,322)" d="M187.7131 46H207.7131V25.9228H187.7131Z" fill="#008000"/>
</g>
<g clip-path="url(#clip_44)">
<path transform="matrix(1,0,0,-1,0,322)" d="M260.7131 47H280.7131V26.9228H260.7131Z" fill="#f79646"/>
</g>
<g clip-path="url(#clip_45)">
<path transform="matrix(1,0,0,-1,0,322)" d="M219.2131 112.9614H252.2131V102.9614H219.2131Z" fill="#f86565"/>
</g>
<path transform="matrix(1,0,0,1,223.7131,213.0309)" stroke-width="2" stroke-linecap="square" stroke-miterlimit="10" stroke-linejoin="miter" fill="none" stroke="#f86565" d="M.5 1.00772H23.5"/>
<g clip-path="url(#clip_46)">
<path transform="matrix(1,0,0,-1,0,322)" d="M211.6822 98.96526V117.9653H229.744V98.96526Z" fill="#f86565"/>
</g>
<g clip-path="url(#clip_47)">
<path transform="matrix(1,0,0,-1,0,322)" d="M260.744 98.96526V117.9653H242.6822V98.96526Z" fill="#f86565"/>
</g>
<g clip-path="url(#clip_48)">
<path transform="matrix(1,0,0,-1,0,322)" d="M205.2131 79.99228H250.7131V69.99228H205.2131Z" fill="#f86565"/>
</g>
<path transform="matrix(1,0,0,1,209.7131,246)" stroke-width="2" stroke-linecap="square" stroke-miterlimit="10" stroke-linejoin="miter" fill="none" stroke="#f86565" d="M.5 1.00772H36"/>
<g clip-path="url(#clip_49)">
<path transform="matrix(1,0,0,-1,0,322)" d="M196.7131 66V85H214.7749V66Z" fill="#f86565"/>
</g>
<g clip-path="url(#clip_50)">
<path transform="matrix(1,0,0,-1,0,322)" d="M256.7749 66V85H238.7131V66Z" fill="#f86565"/>
</g>
<g clip-path="url(#clip_51)">
<path transform="matrix(1,0,0,-1,0,322)" d="M205 40.99228H261.7131V30.99228H205Z" fill="#f86565"/>
</g>
<path transform="matrix(1,0,0,1,209.7131,285)" stroke-width="2" stroke-linecap="square" stroke-miterlimit="10" stroke-linejoin="miter" fill="none" stroke="#f86565" d="M.2868916 1.00772H47"/>
<g clip-path="url(#clip_52)">
<path transform="matrix(1,0,0,-1,0,322)" d="M197.7131 27V46H215.7749V27Z" fill="#f86565"/>
</g>
<g clip-path="url(#clip_53)">
<path transform="matrix(1,0,0,-1,0,322)" d="M270.7749 27V46H252.7131V27Z" fill="#f86565"/>
</g>
<text fill="#f86565" xml:space="preserve" transform="matrix(1 0 0 1 228.7131 285)" font-size="20" font-family="Palatino" font-weight="bold" font-style="italic"><tspan y="20" x=".396926">r</tspan></text>
<g clip-path="url(#clip_54)">
<path transform="matrix(1,0,0,-1,0,322)" d="M398.2971 163.3817H427.1513V138.2354H398.2971Z" fill="#f79646"/>
</g>
<text fill="#008f00" xml:space="preserve" transform="matrix(1 0 0 1 323 71)" font-size="20" font-family="Palatino" font-weight="bold" font-style="italic"><tspan y="20" x=".08481196">E</tspan></text>
<g clip-path="url(#clip_55)">
<path transform="matrix(1,0,0,-1,0,322)" d="M304.4254 273.493H327.7323V234.4834H304.4254Z" fill="#008000"/>
</g>
<path transform="matrix(1,0,0,1,339,52)" stroke-width="3" stroke-linecap="butt" stroke-miterlimit="10" stroke-linejoin="miter" fill="none" stroke="#008000" d="M26 0C19.36807 3.906609 19.40076 2.978716 13.03606 11.00123 10.16494 14.62019 8.714884 21.21276 7.452733 27.25386-2.074854 72.85628 25.43104 87.852 25.52536 128.3938 25.59337 157.6247 10.07877 165.9391 3.065497 185.204-2.438047 200.3219 .7325224 217.5231 2.850327 233.8462"/>
<path transform="matrix(1,0,0,1,339,213.8624)" stroke-width="3" stroke-linecap="butt" stroke-miterlimit="10" stroke-linejoin="miter" fill="none" stroke="#000000" d="M16.16395 0C11.5939 7.577357 6.380185 14.23644 3.065497 23.34164-2.438047 38.45945 .7325224 55.66069 2.850327 71.98375"/>
<path transform="matrix(.9510565,-.309017,.309017,.9510565,368,173.0847)" stroke-width="3" stroke-linecap="butt" stroke-miterlimit="10" stroke-linejoin="miter" fill="none" stroke="#f79646" d="M0 0C15.58399 1.780504 26.76798 10.64981 26.13738 25.36766 24.90965 54.02249 16.91486 50.79656 9.90159 70.06147 4.398047 85.17928 7.568616 102.3805 9.686421 118.7036"/>
<path transform="matrix(.9510565,-.309017,.309017,.9510565,389.9172,218.41681)" stroke-width="3" stroke-linecap="butt" stroke-miterlimit="10" stroke-linejoin="miter" fill="none" stroke="#000000" d="M14.10813 0C10.96296 5.892879 6.869824 9.725171 3.065497 20.17537-2.438047 35.29317 .7325224 52.49442 2.850327 68.81748"/>
<g clip-path="url(#clip_56)">
<path transform="matrix(1,0,0,-1,0,322)" d="M351 280H371V259.9228H351Z"/>
</g>
<g clip-path="url(#clip_57)">
<path transform="matrix(1,0,0,-1,0,322)" d="M336 244H356V223.9228H336Z" fill="#008000"/>
</g>
<g clip-path="url(#clip_58)">
<path transform="matrix(1,0,0,-1,0,322)" d="M342 201H362V180.9228H342Z" fill="#008000"/>
</g>
<g clip-path="url(#clip_59)">
<path transform="matrix(1,0,0,-1,0,322)" d="M355 158H375V137.9228H355Z" fill="#008000"/>
</g>
<g clip-path="url(#clip_60)">
<path transform="matrix(1,0,0,-1,0,322)" d="M345 118H365V97.9228H345Z"/>
</g>
<g clip-path="url(#clip_61)">
<path transform="matrix(1,0,0,-1,0,322)" d="M394 118H414V97.9228H394Z"/>
</g>
<g clip-path="url(#clip_62)">
<path transform="matrix(1,0,0,-1,0,322)" d="M330 85H350V64.9228H330Z"/>
</g>
<g clip-path="url(#clip_63)">
<path transform="matrix(1,0,0,-1,0,322)" d="M390 85H410V64.9228H390Z"/>
</g>
<g clip-path="url(#clip_64)">
<path transform="matrix(1,0,0,-1,0,322)" d="M331 46H351V25.9228H331Z"/>
</g>
<g clip-path="url(#clip_65)">
<path transform="matrix(1,0,0,-1,0,322)" d="M404 47H424V26.9228H404Z"/>
</g>
<g clip-path="url(#clip_66)">
<path transform="matrix(1,0,0,-1,0,322)" d="M362.5 112.9614H395.5V102.9614H362.5Z" fill="#f86565"/>
</g>
<path transform="matrix(1,0,0,1,367,213.0309)" stroke-width="2" stroke-linecap="square" stroke-miterlimit="10" stroke-linejoin="miter" fill="none" stroke="#f86565" d="M.5 1.00772H23.5"/>
<g clip-path="url(#clip_67)">
<path transform="matrix(1,0,0,-1,0,322)" d="M354.9691 98.96526V117.9653H373.0309V98.96526Z" fill="#f86565"/>
</g>
<g clip-path="url(#clip_68)">
<path transform="matrix(1,0,0,-1,0,322)" d="M404.0309 98.96526V117.9653H385.9691V98.96526Z" fill="#f86565"/>
</g>
<g clip-path="url(#clip_69)">
<path transform="matrix(1,0,0,-1,0,322)" d="M348.5 79.99228H394V69.99228H348.5Z" fill="#f86565"/>
</g>
<path transform="matrix(1,0,0,1,353,246)" stroke-width="2" stroke-linecap="square" stroke-miterlimit="10" stroke-linejoin="miter" fill="none" stroke="#f86565" d="M.5 1.00772H36"/>
<g clip-path="url(#clip_70)">
<path transform="matrix(1,0,0,-1,0,322)" d="M340 66V85H358.0618V66Z" fill="#f86565"/>
</g>
<g clip-path="url(#clip_71)">
<path transform="matrix(1,0,0,-1,0,322)" d="M400.0618 66V85H382V66Z" fill="#f86565"/>
</g>
<g clip-path="url(#clip_72)">
<path transform="matrix(1,0,0,-1,0,322)" d="M349 40.99228H405V30.99228H349Z" fill="#f86565"/>
</g>
<path transform="matrix(1,0,0,1,354,285)" stroke-width="2" stroke-linecap="square" stroke-miterlimit="10" stroke-linejoin="miter" fill="none" stroke="#f86565" d="M0 1.00772H46"/>
<g clip-path="url(#clip_73)">
<path transform="matrix(1,0,0,-1,0,322)" d="M341 27V46H359.0618V27Z" fill="#f86565"/>
</g>
<g clip-path="url(#clip_74)">
<path transform="matrix(1,0,0,-1,0,322)" d="M414.0618 27V46H396V27Z" fill="#f86565"/>
</g>
<text fill="#f86565" xml:space="preserve" transform="matrix(1 0 0 1 372 285)" font-size="20" font-family="Palatino" font-weight="bold" font-style="italic"><tspan y="20" x=".396926">r</tspan></text>
<text xml:space="preserve" transform="matrix(1 0 0 1 338.5 2)" font-size="24" font-family="Palatino" font-weight="bold" font-style="italic"><tspan y="25" x=".205323 22.510926 44.81653 63.13813">MMDP</tspan></text>
<path transform="matrix(1,0,0,1,149,4)" stroke-width="2" stroke-linecap="square" stroke-miterlimit="10" stroke-linejoin="miter" fill="none" stroke="#171717" d="M1 .51058V306.9198"/>
<path transform="matrix(1,0,0,1,302,4)" stroke-width="2" stroke-linecap="square" stroke-miterlimit="10" stroke-linejoin="miter" fill="none" stroke="#171717" d="M1 .51058V306.9198"/>
<text fill="#f9a757" xml:space="preserve" transform="matrix(1 0 0 1 420 172)" font-size="16" font-family="Palatino" font-weight="bold" font-style="italic"><tspan y="16" x=".04128706">t</tspan></text>
<g clip-path="url(#clip_75)">
<path transform="matrix(1,0,0,-1,0,322)" d="M349.2971 70.36153H378.1513V44.7213H349.2971Z"/>
</g>
<text xml:space="preserve" transform="matrix(1 0 0 1 372 225)" font-size="16" font-family="Palatino" font-weight="bold" font-style="italic"><tspan y="16" x=".002767444 5.919568 15.308368">t+1</tspan></text>
<g clip-path="url(#clip_76)">
<path transform="matrix(1,0,0,-1,0,322)" d="M351.2971 107.3615H380.1513V81.7213H351.2971Z"/>
</g>
<text xml:space="preserve" transform="matrix(1 0 0 1 370 260)" font-size="16" font-family="Palatino" font-weight="bold" font-style="italic"><tspan y="16" x=".002767444 5.919568 15.308368">t+2</tspan></text>
</svg>
