<?xml version="1.0" encoding="UTF-8" standalone="no"?>
<!DOCTYPE svg PUBLIC "-//W3C//DTD SVG 1.1//EN" "http://www.w3.org/Graphics/SVG/1.1/DTD/svg11.dtd">
<svg xmlns="http://www.w3.org/2000/svg" xmlns:xlink="http://www.w3.org/1999/xlink" version="1.1" width="954.8532pt" height="660.54757pt" viewBox="0 0 954.8532 660.54757">
<g enable-background="new">
<path transform="matrix(2.7777777,0,0,-2.7777777,0,660.54757)" d="M 0 0 L 343.74717 0 L 343.74717 237.79714 L 0 237.79714 Z " fill="#ffffff"/>
<path transform="matrix(2.7777777,0,0,-2.7777777,0,660.54757)" d="M 57.547166 46.30171 L 336.54719 46.30171 L 336.54719 212.6217 L 57.547166 212.6217 Z " fill="#ffffff"/>
<path transform="matrix(2.7777777,0,0,-2.7777777,0,660.54757)" stroke-width="1.25" stroke-linecap="butt" stroke-linejoin="round" fill="none" stroke="#333333" d="M 70.22898 46.30171 L 70.22898 52.30171 "/>
<symbol id="font_0_d4">
<path d="M .23400001 .709 C .079 .709 0 .586 0 .344 C 0 .22700002 .021 .126 .056 .07700001 C .091000009 .028 .14700002 0 .209 0 C .36 0 .43600003 .13000001 .43600003 .38600005 C .43600003 .605 .371 .709 .23400001 .709 M .216 .674 C .313 .674 .352 .57600006 .352 .33600004 C .352 .12300001 .314 .035000005 .22200002 .035000005 C .12500002 .035000005 .08400001 .136 .08400001 .38000003 C .08400001 .591 .12100001 .674 .216 .674 Z "/>
</symbol>
<use xlink:href="#font_0_d4" transform="matrix(41.510999,0,0,-41.510999,185.90657,572.1851)" fill="#333333"/>
<path transform="matrix(2.7777777,0,0,-2.7777777,0,660.54757)" stroke-width="1.25" stroke-linecap="butt" stroke-linejoin="round" fill="none" stroke="#333333" d="M 133.63808 46.30171 L 133.63808 52.30171 "/>
<symbol id="font_0_cb">
<path d="M .0069999995 .558 L .017000005 .558 L .14600002 .61600008 C .14700002 .61700007 .148 .61700007 .149 .61700007 C .155 .61700007 .157 .60800006 .157 .58400008 L .157 .099 C .157 .047000003 .14600002 .036 .09200001 .033 L .036 .030000002 L .036 0 C .19 .003 .19 .003 .201 .003 C .21400002 .003 .236 .003 .27 .0019999999 C .282 .0009999999 .317 .0009999999 .358 0 L .358 .030000002 L .30600003 .033 C .25100003 .036 .24100003 .047000003 .24100003 .099 L .24100003 .69200006 L .227 .697 C .16200002 .66300007 .091000009 .6330001 0 .6010001 L .0069999995 .558 Z "/>
</symbol>
<use xlink:href="#font_0_cb" transform="matrix(41.510999,0,0,-41.510999,363.32978,571.47946)" fill="#333333"/>
<path transform="matrix(2.7777777,0,0,-2.7777777,0,660.54757)" stroke-width="1.25" stroke-linecap="butt" stroke-linejoin="round" fill="none" stroke="#333333" d="M 197.04717 46.30171 L 197.04717 52.30171 "/>
<symbol id="font_0_cc">
<path d="M 0 .026000003 L 0 0 C .187 .003 .187 .003 .223 .003 C .259 .003 .259 .003 .45200003 0 C .45000003 .021000002 .45000003 .031000002 .45000003 .045 C .45000003 .058000003 .45000003 .068 .45200003 .09 C .337 .085 .291 .084 .106000009 .080000009 L .28800003 .273 C .38500003 .37600003 .41500003 .43100003 .41500003 .50600007 C .41500003 .62100008 .337 .69200006 .21000001 .69200006 C .13800001 .69200006 .089 .67200008 .04 .62200006 L .023 .486 L .052 .486 L .065 .53200009 C .081 .59000006 .117 .61500009 .184 .61500009 C .27 .61500009 .32500003 .56100007 .32500003 .476 C .32500003 .40100003 .28300003 .327 .17 .20700002 L 0 .026000003 Z "/>
</symbol>
<use xlink:href="#font_0_cc" transform="matrix(41.510999,0,0,-41.510999,537.63967,571.47946)" fill="#333333"/>
<path transform="matrix(2.7777777,0,0,-2.7777777,0,660.54757)" stroke-width="1.25" stroke-linecap="butt" stroke-linejoin="round" fill="none" stroke="#333333" d="M 260.45628 46.30171 L 260.45628 52.30171 "/>
<symbol id="font_0_cd">
<path d="M .028 .518 L .059 .518 L .07700001 .574 C .08800001 .608 .15100001 .642 .20300001 .642 C .268 .642 .32100005 .589 .32100005 .526 C .32100005 .45100004 .26200003 .38800005 .19100002 .38800005 C .18300002 .38800005 .172 .38900004 .15900001 .39000003 L .14400001 .39100004 L .132 .33800004 L .13900002 .33200003 C .177 .34900005 .19600001 .35400004 .223 .35400004 C .306 .35400004 .35400004 .30100004 .35400004 .21000001 C .35400004 .10800001 .29300005 .041 .2 .041 C .15400002 .041 .113000009 .056 .083000008 .08400001 C .059 .106000009 .046000005 .12900001 .027000003 .183 L 0 .17300001 C .021000002 .11200001 .029000003 .076000008 .035 .026 C .08800001 .008000001 .132 0 .16900002 0 C .249 0 .34100003 .045 .39600004 .11200001 C .43 .153 .44700004 .197 .44700004 .244 C .44700004 .29200004 .42700006 .33400003 .39100004 .35900004 C .366 .37700004 .343 .38500003 .29300005 .39400003 C .37300004 .45600004 .403 .50200006 .403 .561 C .403 .65000006 .329 .709 .21800001 .709 C .15 .709 .105000007 .69 .057000005 .642 L .028 .518 Z "/>
</symbol>
<use xlink:href="#font_0_cd" transform="matrix(41.510999,0,0,-41.510999,713.73458,572.1851)" fill="#333333"/>
<path transform="matrix(2.7777777,0,0,-2.7777777,0,660.54757)" stroke-width="1.25" stroke-linecap="butt" stroke-linejoin="round" fill="none" stroke="#333333" d="M 323.86537 46.30171 L 323.86537 52.30171 "/>
<symbol id="font_0_ce">
<path d="M .278 .18400002 L .278 .109000008 C .278 .049000004 .26700003 .035 .21800001 .033 L .156 .030000002 L .156 0 C .289 .003 .289 .003 .31300003 .003 C .337 .003 .337 .003 .47000004 0 L .47000004 .030000002 L .42200003 .033 C .37300004 .036 .36200003 .049000004 .36200003 .109000008 L .36200003 .18400002 C .421 .18400002 .44200004 .18300002 .47000004 .18 L .47000004 .25100003 C .423 .24700003 .404 .24700003 .38900004 .24800001 L .386 .24800001 L .36200003 .24800001 L .36200003 .387 C .36200003 .56500008 .36400003 .651 .36900003 .69200006 L .35700003 .697 L .28300003 .6700001 L 0 .20700002 L .011 .18400002 L .278 .18400002 M .278 .24800001 L .06300001 .24800001 L .278 .6 L .278 .24800001 Z "/>
</symbol>
<use xlink:href="#font_0_ce" transform="matrix(41.510999,0,0,-41.510999,889.3312,571.47946)" fill="#333333"/>
<symbol id="font_1_4b">
<path d="M .20700002 .55300006 L .30900003 .55300006 C .323 .55300006 .349 .55300006 .349 .582 C .349 .611 .323 .611 .30900003 .611 L .04 .611 C .026 .611 0 .611 0 .582 C 0 .55300006 .026 .55300006 .04 .55300006 L .142 .55300006 L .142 .058000003 L .04 .058000003 C .026 .058000003 0 .058000003 0 .029000001 C 0 0 .026 0 .04 0 L .30900003 0 C .323 0 .349 0 .349 .029000001 C .349 .058000003 .323 .058000003 .30900003 .058000003 L .20700002 .058000003 L .20700002 .55300006 Z "/>
</symbol>
<symbol id="font_1_45">
<path d="M .43400005 .59700009 C .43400005 .61300006 .43400005 .63500007 .40600003 .63500007 C .38800005 .63500007 .38300003 .6240001 .37900005 .61700007 C .37600003 .609 .36800004 .5910001 .36500005 .58400008 C .32400004 .62000009 .27800004 .63500007 .23600002 .63500007 C .10699999 .63500007 0 .497 0 .31800003 C 0 .135 .11 0 .23600002 0 C .35300002 0 .43400005 .093 .43400005 .18100001 C .43400005 .212 .41300003 .212 .40100003 .212 C .38700003 .212 .37100003 .207 .36900003 .19 C .36100004 .065000008 .26000003 .058000007 .24300002 .058000007 C .15 .058000007 .065 .167 .065 .31800003 C .065 .469 .15100001 .577 .242 .577 C .29600004 .577 .35500003 .53400006 .36900003 .442 C .37200005 .42000003 .38100005 .414 .40100003 .414 C .43400005 .414 .43400005 .432 .43400005 .45200003 L .43400005 .59700009 Z "/>
</symbol>
<symbol id="font_1_4e">
<path d="M .139 .55300006 L .19100002 .55300006 C .20500002 .55300006 .231 .55300006 .231 .582 C .231 .611 .20500002 .611 .19100002 .611 L .041 .611 C .027000003 .611 0 .611 0 .582 C 0 .55300006 .027000003 .55300006 .041 .55300006 L .074 .55300006 L .074 .058000003 L .041 .058000003 C .027000003 .058000003 0 .058000003 0 .029000001 C 0 0 .027000003 0 .041 0 L .405 0 C .43800003 0 .44500003 .009000001 .44500003 .041 L .44500003 .123 C .44500003 .14 .44500003 .163 .41300003 .163 C .38000003 .163 .38000003 .141 .38000003 .123 L .38000003 .058000003 L .139 .058000003 L .139 .55300006 Z "/>
</symbol>
<use xlink:href="#font_1_4b" transform="matrix(46.492326,0,0,-46.492326,421.59858,627.437)" fill="#333333"/>
<use xlink:href="#font_1_45" transform="matrix(46.492326,0,0,-46.492326,443.49647,627.99496)" fill="#333333"/>
<use xlink:href="#font_1_4e" transform="matrix(46.492326,0,0,-46.492326,467.11457,627.437)" fill="#333333"/>
<symbol id="font_0_8d">
<path d="M .194 .572 C .194 .651 .19900002 .65900006 .24500002 .66200008 L .293 .6650001 L .293 .69500008 C .22000002 .69200006 .19800002 .69200006 .14600002 .69200006 C .09600001 .69200006 .072000008 .6930001 0 .69500008 L 0 .6650001 L .048 .66200008 C .094000007 .65900006 .09900001 .651 .09900001 .572 L .09900001 .123 C .09900001 .044 .094000007 .036 .048 .033 L 0 .030000002 L 0 0 C .059 .0019999999 .094000007 .003 .14600002 .003 C .19800002 .003 .23400001 .0019999999 .293 0 L .293 .030000002 L .24500002 .033 C .19900002 .036 .194 .044 .194 .123 L .194 .572 Z "/>
</symbol>
<symbol id="font_0_b9">
<path d="M .076000008 .39400003 L .076000008 .106000009 C .076000008 .032 .10900001 0 .186 0 C .209 0 .23300003 .005 .23900001 .012 L .287 .065000008 L .274 .082 C .24900003 .068 .23400001 .063 .21500002 .063 C .17600002 .063 .16000001 .083000008 .16000001 .132 L .16000001 .39400003 L .288 .39400003 L .297 .448 L .16000001 .442 L .16000001 .48000003 C .16000001 .5220001 .163 .558 .171 .62200006 L .15900001 .6330001 C .135 .61800006 .105000007 .6050001 .074 .595 C .07700001 .56500008 .078 .54600009 .078 .51600006 L .078 .446 L 0 .411 L 0 .39000003 L .076000008 .39400003 Z "/>
</symbol>
<symbol id="font_0_aa">
<path d="M .411 .09 L .39800004 .10000001 C .33400003 .062000008 .31100003 .053000004 .268 .053000004 C .20300001 .053000004 .14900002 .082 .121 .13100001 C .102000009 .164 .095000009 .192 .093 .25 L .23900002 .25 C .30800004 .25 .351 .25300003 .42000003 .26400004 C .42100004 .27800004 .42200003 .28700004 .42200003 .29900003 C .42200003 .41400004 .34800003 .48900003 .23600003 .48900003 C .199 .48900003 .15600002 .47600005 .115 .45200003 C .033000005 .40500004 0 .34300003 0 .23900001 C 0 .176 .015000001 .12200001 .042000005 .08400001 C .082 .031000004 .14900002 0 .224 0 C .261 0 .298 .008000001 .33900003 .026 C .36600004 .037 .38700003 .050000006 .39100004 .056 L .411 .09 M .33300004 .28700004 C .28100003 .28500004 .25700004 .284 .22100002 .284 C .17500001 .284 .14900002 .28500004 .095000009 .29000003 C .095000009 .337 .099 .35900004 .11200001 .38500003 C .13300002 .42900003 .176 .45600004 .224 .45600004 C .25700004 .45600004 .28300003 .44300003 .30100004 .41600005 C .323 .38300003 .33 .35400004 .33300004 .28700004 Z "/>
</symbol>
<symbol id="font_0_b7">
<path d="M .0020000004 .403 L .039 .403 C .078999999 .403 .083000008 .396 .083000008 .33 L .083000008 .105000007 C .083000008 .042 .08 .035 .046 .033 L 0 .030000002 L 0 0 C .072 .0019999999 .098000008 .003 .12300001 .003 C .143 .003 .143 .003 .266 0 L .266 .030000002 L .21400002 .033 C .16900002 .036 .16700001 .039 .16700001 .105000007 L .16700001 .277 C .16700001 .337 .20700002 .387 .256 .387 C .286 .387 .307 .373 .323 .34100003 L .344 .34100003 L .35300002 .46100004 C .342 .46800003 .32400004 .472 .30600003 .472 C .27600003 .472 .24400002 .456 .22300002 .43100003 L .16700001 .365 L .16700001 .46800003 L .158 .472 C .10700001 .451 .055000005 .437 .0020000004 .43100003 L .0020000004 .403 Z "/>
</symbol>
<symbol id="font_0_a6">
<path d="M .292 .094000007 L .287 .009 C .352 .012 .352 .012 .365 .012 C .37 .012 .395 .011 .439 .009 L .439 .039 L .4 .041 C .37600003 .042000005 .372 .050000006 .372 .09900001 L .372 .282 C .372 .428 .33 .481 .214 .481 C .171 .481 .131 .47000004 .092999998 .44700004 L .040000004 .41500003 L .040000004 .35000003 L .066 .34300003 L .07900001 .374 C .099999997 .421 .11 .428 .156 .428 C .25 .428 .289 .391 .292 .3 L .193 .282 C .057 .257 0 .21000001 0 .12300001 C 0 .045 .047000003 0 .126 0 C .14400001 0 .161 .0029999996 .168 .007999999 L .292 .094000007 M .292 .136 C .263 .095000009 .2 .057000005 .161 .057000005 C .12100001 .057000005 .08600001 .094000007 .08600001 .137 C .08600001 .174 .106000009 .209 .136 .228 C .161 .243 .216 .257 .292 .268 L .292 .136 Z "/>
</symbol>
<symbol id="font_0_ae">
<path d="M .16700001 .46800003 L .158 .472 C .10700001 .451 .055000005 .437 .0020000004 .43100003 L .0020000004 .403 L .039 .403 C .078999999 .403 .083000008 .396 .083000008 .33 L .083000008 .105000007 C .083000008 .042 .08 .035 .046 .033 L 0 .030000002 L 0 0 C .10000001 .003 .10000001 .003 .12500002 .003 C .15 .003 .15 .003 .25000004 0 L .25000004 .030000002 L .20400001 .033 C .17000002 .035 .16700001 .042 .16700001 .105000007 L .16700001 .46800003 M .12100001 .69000008 C .091000009 .69000008 .065 .66400006 .065 .63400009 C .065 .6050001 .091000009 .57900008 .120000008 .57900008 C .149 .57900008 .17600002 .6050001 .17600002 .63400009 C .17600002 .66200008 .149 .69000008 .12100001 .69000008 Z "/>
</symbol>
<symbol id="font_0_b4">
<path d="M .24700001 .48900003 C .100999999 .48900003 0 .38600005 0 .237 C 0 .09600001 .089 0 .218 0 C .372 0 .482 .10700001 .482 .25700004 C .482 .39200003 .384 .48900003 .24700001 .48900003 M .229 .45600004 C .321 .45600004 .38900004 .35600005 .38900004 .22 C .38900004 .105000007 .338 .033 .257 .033 C .15900001 .033 .092999998 .12900001 .092999998 .27100004 C .092999998 .39100004 .141 .45600004 .229 .45600004 Z "/>
</symbol>
<symbol id="font_0_b3">
<path d="M .404 0 C .465 .003 .46600003 .003 .483 .003 C .497 .003 .497 .003 .56600007 0 L .56600007 .030000002 L .52500006 .033 C .491 .035 .488 .041 .488 .105000007 L .488 .298 C .488 .41500003 .433 .472 .321 .472 C .284 .472 .263 .465 .24200002 .44700004 L .16600001 .381 L .16600001 .46800003 L .157 .472 C .106000009 .451 .054 .437 .0010000002 .43100003 L .0010000002 .403 L .038000004 .403 C .07800001 .403 .08200001 .396 .08200001 .33 L .08200001 .105000007 C .08200001 .042 .079 .035 .045 .033 L 0 .030000002 L 0 0 C .068 .0019999999 .095000009 .003 .12400001 .003 C .15300001 .003 .18 .0019999999 .24800001 0 L .24800001 .030000002 L .20300001 .033 C .16900002 .035 .16600001 .042 .16600001 .105000007 L .16600001 .317 C .16600001 .36200003 .23200001 .411 .293 .411 C .36 .411 .404 .361 .404 .284 L .404 0 Z "/>
</symbol>
<use xlink:href="#font_0_8d" transform="matrix(46.492326,0,0,-46.492326,502.1582,627.5765)" fill="#333333"/>
<use xlink:href="#font_0_b9" transform="matrix(46.492326,0,0,-46.492326,517.7796,627.99496)" fill="#333333"/>
<use xlink:href="#font_0_aa" transform="matrix(46.492326,0,0,-46.492326,533.0756,628.3669)" fill="#333333"/>
<use xlink:href="#font_0_b7" transform="matrix(46.492326,0,0,-46.492326,555.06649,627.5765)" fill="#333333"/>
<use xlink:href="#font_0_a6" transform="matrix(46.492326,0,0,-46.492326,573.8958,627.99496)" fill="#333333"/>
<use xlink:href="#font_0_b9" transform="matrix(46.492326,0,0,-46.492326,596.6771,627.99496)" fill="#333333"/>
<use xlink:href="#font_0_ae" transform="matrix(46.492326,0,0,-46.492326,611.7406,627.5765)" fill="#333333"/>
<use xlink:href="#font_0_b4" transform="matrix(46.492326,0,0,-46.492326,625.7348,628.3669)" fill="#333333"/>
<use xlink:href="#font_0_b3" transform="matrix(46.492326,0,0,-46.492326,649.8643,627.5765)" fill="#333333"/>
<path transform="matrix(2.7777777,0,0,-2.7777777,0,660.54757)" stroke-width="1.25" stroke-linecap="butt" stroke-linejoin="round" fill="none" stroke="#333333" d="M 57.547166 74.13676 L 63.547166 74.13676 "/>
<symbol id="font_0_de">
<path d="M .057000005 .11600001 C .027000003 .11600001 0 .08800001 0 .058000003 C 0 .028000003 .027000003 0 .056 0 C .088 0 .11600001 .027000003 .11600001 .058000003 C .11600001 .08800001 .088 .11600001 .057000005 .11600001 Z "/>
</symbol>
<symbol id="font_0_d3">
<path d="M .076 0 C .18700002 .036000004 .23500003 .059 .289 .105000007 C .386 .18800001 .437 .30300004 .437 .43700005 C .437 .606 .356 .709 .22400002 .709 C .096 .709 0 .609 0 .47500003 C 0 .36 .075 .27600003 .17900002 .27600003 C .21300002 .27600003 .252 .28700004 .27 .30200003 L .34 .36 C .33200003 .192 .22300002 .069000009 .042000005 .025000003 L .042000005 .017 L .076 0 M .22000002 .676 C .26500003 .676 .298 .657 .32 .617 C .338 .585 .35 .536 .35 .49100004 C .35 .39900003 .297 .337 .22000002 .337 C .14000002 .337 .086 .40800003 .086 .512 C .086 .61300006 .13800001 .676 .22000002 .676 Z "/>
</symbol>
<use xlink:href="#font_0_d4" transform="matrix(41.510999,0,0,-41.510999,78.69058,470.29283)" fill="#333333"/>
<use xlink:href="#font_0_de" transform="matrix(41.510999,0,0,-41.510999,101.02349,469.67015)" fill="#333333"/>
<use xlink:href="#font_0_d3" transform="matrix(41.510999,0,0,-41.510999,109.450229,470.29283)" fill="#333333"/>
<use xlink:href="#font_0_d4" transform="matrix(41.510999,0,0,-41.510999,130.57932,470.29283)" fill="#333333"/>
<path transform="matrix(2.7777777,0,0,-2.7777777,0,660.54757)" stroke-width="1.25" stroke-linecap="butt" stroke-linejoin="round" fill="none" stroke="#333333" d="M 57.547166 139.59923 L 63.547166 139.59923 "/>
<symbol id="font_0_cf">
<path d="M .11400001 .625 C .24300002 .621 .299 .62 .419 .62 L .424 .625 C .42200003 .643 .42200003 .651 .42200003 .66400006 C .42200003 .67800006 .42200003 .686 .424 .704 L .419 .709 C .344 .70500007 .299 .704 .24500002 .704 C .19000001 .704 .14600002 .70500007 .07100001 .709 L .066 .704 C .067 .643 .068 .59900006 .068 .56700006 C .068 .48200003 .065 .38600005 .062000004 .34200005 L .082 .33600004 C .12900001 .38300003 .15600002 .397 .20500002 .397 C .301 .397 .361 .32900004 .361 .221 C .361 .11000001 .297 .045 .18800001 .045 C .134 .045 .08400001 .063 .07000001 .08900001 L .024 .171 L 0 .157 C .023000002 .10000001 .035 .068 .049000004 .024000003 C .07700001 .009000001 .11700001 0 .16000001 0 C .22700002 0 .298 .029000003 .35300002 .07700001 C .414 .13100001 .446 .199 .446 .27300004 C .446 .38600005 .365 .46600003 .251 .46600003 C .20300001 .46600003 .16700001 .45300005 .105000007 .41600005 L .11400001 .625 Z "/>
</symbol>
<use xlink:href="#font_0_d4" transform="matrix(41.510999,0,0,-41.510999,78.69058,288.45265)" fill="#333333"/>
<use xlink:href="#font_0_de" transform="matrix(41.510999,0,0,-41.510999,101.02349,287.82997)" fill="#333333"/>
<use xlink:href="#font_0_d3" transform="matrix(41.510999,0,0,-41.510999,109.450229,288.45265)" fill="#333333"/>
<use xlink:href="#font_0_cf" transform="matrix(41.510999,0,0,-41.510999,129.91515,288.45265)" fill="#333333"/>
<path transform="matrix(2.7777777,0,0,-2.7777777,0,660.54757)" stroke-width="1.25" stroke-linecap="butt" stroke-linejoin="round" fill="none" stroke="#333333" d="M 57.547166 205.0617 L 63.547166 205.0617 "/>
<use xlink:href="#font_0_cb" transform="matrix(41.510999,0,0,-41.510999,79.977428,105.90676)" fill="#333333"/>
<use xlink:href="#font_0_de" transform="matrix(41.510999,0,0,-41.510999,101.02349,105.989788)" fill="#333333"/>
<use xlink:href="#font_0_d4" transform="matrix(41.510999,0,0,-41.510999,109.82382,106.61245)" fill="#333333"/>
<use xlink:href="#font_0_d4" transform="matrix(41.510999,0,0,-41.510999,130.57932,106.61245)" fill="#333333"/>
<symbol id="font_0_91">
<path d="M .7160001 .133 C .7160001 .054 .7120001 .047000003 .6650001 .043 L .63100007 .04 L .63100007 .01 C .67700007 .012 .7070001 .013 .75900009 .013 C .81500008 .013 .8510001 .012 .9100001 .01 L .9100001 .04 L .86200007 .043 C .81600007 .046 .81100007 .054 .81100007 .133 L .81100007 .582 C .81100007 .66 .81600007 .669 .86200007 .67200008 L .90400007 .6750001 L .90400007 .70500007 C .82800009 .702 .82800009 .702 .81100007 .702 C .79600009 .702 .79600009 .702 .7160001 .70500007 L .45400004 .149 L .19000001 .70500007 C .11 .702 .11 .702 .095000009 .702 C .08 .702 .08 .702 0 .70500007 L 0 .6750001 L .044 .67200008 C .09 .669 .095000009 .66 .095000009 .582 L .095000009 .133 C .095000009 .055000005 .09 .046 .044 .043 L 0 .04 L 0 .01 C .099 .013 .099 .013 .116 .013 C .131 .013 .131 .013 .236 .01 L .236 .04 L .192 .043 C .146 .046 .141 .055000005 .141 .133 L .141 .591 L .42000003 0 L .44000004 0 C .44700004 .015000001 .453 .031000002 .45900003 .046 C .47500003 .08500001 .48700003 .113000009 .49400006 .127 L .67200008 .505 C .68600007 .53400006 .6980001 .55700007 .7160001 .591 L .7160001 .133 Z "/>
</symbol>
<symbol id="font_0_bf">
<path d="M .439 .435 L .439 .465 C .36900003 .463 .33900003 .462 .301 .462 L .053000004 .465 C .051 .414 .049999998 .402 .044 .333 L .074 .333 L .086 .40100003 C .09 .42200003 .108 .42700003 .18200001 .42700003 L .32500003 .42700003 C .30400003 .39400003 .287 .37100003 .26000003 .337 L .09 .12500002 C .066 .096 .052 .079 0 .020000002 L .006000001 0 C .11 .003 .116 .003 .15900001 .003 L .43500004 0 C .43500004 .023000002 .437 .047000003 .444 .095000009 L .45000003 .14200002 L .42000003 .14200002 L .402 .063 C .39800004 .045 .356 .038 .26000003 .038 L .125 .038 L .439 .435 Z "/>
</symbol>
<symbol id="font_0_99">
<path d="M .652 .589 C .652 .667 .657 .676 .703 .679 L .74700006 .68200007 L .74700006 .712 C .642 .709 .642 .709 .62700006 .709 C .61 .709 .61 .709 .511 .712 L .511 .68200007 L .555 .679 C .601 .676 .606 .667 .606 .589 L .606 .26900003 C .606 .128 .538 .062000008 .39300005 .062000008 C .254 .062000008 .19400002 .117000009 .19400002 .245 L .19400002 .589 C .19400002 .668 .19900002 .676 .245 .679 L .293 .68200007 L .293 .712 C .22000002 .709 .19800002 .709 .14600002 .709 C .096 .709 .072000008 .71000006 0 .712 L 0 .68200007 L .048 .679 C .094000007 .676 .09900001 .668 .09900001 .589 L .09900001 .23400001 C .09900001 .156 .117000009 .101 .15500002 .062000008 C .19500003 .021000002 .26600004 0 .36600004 0 C .46900005 0 .538 .021000002 .583 .067 C .63 .11400001 .652 .18900001 .652 .3 L .652 .589 Z "/>
</symbol>
<use xlink:href="#font_0_91" transform="matrix(0,-46.492326,-46.492326,-0,53.869489,400.98258)" fill="#333333"/>
<use xlink:href="#font_0_a6" transform="matrix(0,-46.492326,-46.492326,-0,53.822996,356.30345)" fill="#333333"/>
<use xlink:href="#font_0_bf" transform="matrix(0,-46.492326,-46.492326,-0,53.404565,333.80116)" fill="#333333"/>
<use xlink:href="#font_0_aa" transform="matrix(0,-46.492326,-46.492326,-0,54.194936,310.09004)" fill="#333333"/>
<use xlink:href="#font_0_8d" transform="matrix(0,-46.492326,-46.492326,-0,53.404565,276.4296)" fill="#333333"/>
<use xlink:href="#font_0_b4" transform="matrix(0,-46.492326,-46.492326,-0,54.194936,260.34324)" fill="#333333"/>
<use xlink:href="#font_0_99" transform="matrix(0,-46.492326,-46.492326,-0,54.194936,235.93477)" fill="#333333"/>
<clipPath id="cp2">
<path transform="matrix(2.7777777,0,0,-2.7777777,0,660.54757)" d="M 57.547166 46.30171 L 336.54719 46.30171 L 336.54719 212.62172 L 57.547166 212.62172 Z "/>
</clipPath>
<g clip-path="url(#cp2)">
<g>
<path transform="matrix(2.7777777,0,0,-2.7777777,0,660.54757)" d="M 70.22898 89.935749 L 70.22898 53.86171 L 133.63808 130.1571 L 197.04717 129.99054 L 260.45628 144.02617 L 323.86537 169.8949 L 323.86537 193.04836 L 260.45628 174.2201 L 197.04717 142.31716 L 133.63808 142.15058 L 70.22898 89.935749 Z " fill="#f79646" fill-opacity=".1"/>
<path transform="matrix(2.7777777,0,0,-2.7777777,0,660.54757)" stroke-width="1" stroke-linecap="butt" stroke-linejoin="round" fill="none" stroke="#f79646" stroke-opacity=".1" d="M 70.22898 89.935749 L 70.22898 53.86171 L 133.63808 130.1571 L 197.04717 129.99054 L 260.45628 144.02617 L 323.86537 169.8949 L 323.86537 193.04836 L 260.45628 174.2201 L 197.04717 142.31716 L 133.63808 142.15058 L 70.22898 89.935749 Z "/>
</g>
</g>
<clipPath id="cp3">
<path transform="matrix(2.7777777,0,0,-2.7777777,0,660.54757)" d="M 57.547166 46.30171 L 336.54719 46.30171 L 336.54719 212.62172 L 57.547166 212.62172 Z "/>
</clipPath>
<g clip-path="url(#cp3)">
<path transform="matrix(2.7777777,0,0,-2.7777777,0,660.54757)" stroke-width="1.5" stroke-linecap="round" stroke-linejoin="round" fill="none" stroke="#f79646" d="M 70.22898 71.89873 L 133.63808 136.15384 L 197.04717 136.15384 L 260.45628 159.12313 L 323.86537 181.47164 "/>
</g>
<clipPath id="cp4">
<path transform="matrix(2.7777777,0,0,-2.7777777,0,660.54757)" d="M 57.547166 46.30171 L 336.54719 46.30171 L 336.54719 212.62172 L 57.547166 212.62172 Z "/>
</clipPath>
<g clip-path="url(#cp4)">
<path transform="matrix(2.7777777,0,0,-2.7777777,0,660.54757)" stroke-width="1.5" stroke-linecap="butt" stroke-dasharray="5.55,2.4" stroke-linejoin="round" fill="none" stroke="#008000" d="M 70.22898 205.0617 L 133.63808 205.0617 L 197.04717 205.0617 L 260.45628 205.0617 L 323.86537 205.0617 "/>
</g>
<path transform="matrix(2.7777777,0,0,-2.7777777,0,660.54757)" stroke-width="1.25" stroke-linecap="square" stroke-miterlimit="10" stroke-linejoin="miter" fill="none" stroke="#333333" d="M 57.547166 46.30171 L 57.547166 212.6217 "/>
<path transform="matrix(2.7777777,0,0,-2.7777777,0,660.54757)" stroke-width="1.25" stroke-linecap="square" stroke-miterlimit="10" stroke-linejoin="miter" fill="none" stroke="#333333" d="M 57.547166 46.30171 L 336.54719 46.30171 "/>
<symbol id="font_0_87">
<path d="M .648 .10400001 L .639 .11400001 C .577 .074 .508 .054000006 .432 .054000006 C .237 .054000006 .10700001 .184 .10700001 .38100005 C .10700001 .565 .22100002 .68700006 .393 .68700006 C .491 .68700006 .592 .647 .592 .608 L .592 .536 L .623 .536 C .624 .586 .628 .62200006 .642 .688 C .55700007 .716 .48400004 .72900006 .411 .72900006 C .324 .72900006 .24100001 .708 .17400001 .669 C .060000004 .602 0 .49700005 0 .36200003 C 0 .146 .158 0 .393 0 C .476 0 .551 .018000002 .62 .054000006 L .648 .10400001 Z "/>
</symbol>
<symbol id="font_0_b8">
<path d="M .011 .163 C .011 .094000007 .008000001 .064 0 .024000003 C .052 .007000001 .091000009 0 .13700001 0 C .268 0 .36100004 .07 .36100004 .168 C .36100004 .199 .35200004 .222 .333 .24200002 C .307 .26700003 .27400003 .279 .186 .29600004 C .104 .31200005 .07700001 .33200003 .07700001 .37800003 C .07700001 .42800004 .112 .45600004 .17300001 .45600004 C .24000001 .45600004 .291 .42100004 .291 .374 L .291 .35100005 L .319 .35100005 C .32000003 .40900005 .321 .43300004 .324 .46400006 C .27100004 .48200003 .23500002 .48900003 .194 .48900003 C .078 .48900003 .0069999995 .43400005 .0069999995 .344 C .0069999995 .29600004 .029000003 .26200003 .075 .24100001 C .102 .229 .155 .213 .22300002 .198 C .268 .18800001 .287 .167 .287 .12900001 C .287 .075 .23700002 .037 .16600001 .037 C .093 .037 .041 .072000008 .041 .12200001 L .041 .163 L .011 .163 Z "/>
</symbol>
<use xlink:href="#font_0_91" transform="matrix(46.492326,0,0,-46.492326,377.09999,53.869478)" fill="#333333"/>
<use xlink:href="#font_0_a6" transform="matrix(46.492326,0,0,-46.492326,421.77915,53.822984)" fill="#333333"/>
<use xlink:href="#font_0_bf" transform="matrix(46.492326,0,0,-46.492326,444.2814,53.404554)" fill="#333333"/>
<use xlink:href="#font_0_aa" transform="matrix(46.492326,0,0,-46.492326,467.99253,54.194925)" fill="#333333"/>
<use xlink:href="#font_0_87" transform="matrix(46.492326,0,0,-46.492326,501.65296,54.194925)" fill="#333333"/>
<use xlink:href="#font_0_b4" transform="matrix(46.492326,0,0,-46.492326,535.0344,54.194925)" fill="#333333"/>
<use xlink:href="#font_0_b3" transform="matrix(46.492326,0,0,-46.492326,559.16397,53.404554)" fill="#333333"/>
<use xlink:href="#font_0_b8" transform="matrix(46.492326,0,0,-46.492326,587.2918,54.194925)" fill="#333333"/>
<use xlink:href="#font_0_b9" transform="matrix(46.492326,0,0,-46.492326,606.5861,53.822984)" fill="#333333"/>
<use xlink:href="#font_0_b7" transform="matrix(46.492326,0,0,-46.492326,621.6496,53.404554)" fill="#333333"/>
<use xlink:href="#font_0_a6" transform="matrix(46.492326,0,0,-46.492326,640.479,53.822984)" fill="#333333"/>
<use xlink:href="#font_0_ae" transform="matrix(46.492326,0,0,-46.492326,663.21377,53.404554)" fill="#333333"/>
<use xlink:href="#font_0_b3" transform="matrix(46.492326,0,0,-46.492326,675.99917,53.404554)" fill="#333333"/>
<use xlink:href="#font_0_b9" transform="matrix(46.492326,0,0,-46.492326,703.7551,53.822984)" fill="#333333"/>
<g>
<path transform="matrix(2.7777777,0,0,-2.7777777,0,660.54757)" d="M 68.32716 154.29378 L 130.26389 154.29378 C 132.31722 154.29378 133.34389 155.32044 133.34389 157.37377 L 133.34389 201.8417 C 133.34389 203.89504 132.31722 204.9217 130.26389 204.9217 L 68.32716 204.9217 C 66.273838 204.9217 65.24717 203.89504 65.24717 201.8417 L 65.24717 157.37377 C 65.24717 155.32044 66.273838 154.29378 68.32716 154.29378 Z " fill="#ffffff" fill-opacity=".8"/>
<path transform="matrix(2.7777777,0,0,-2.7777777,0,660.54757)" stroke-width="1" stroke-linecap="butt" stroke-miterlimit="10" stroke-linejoin="miter" fill="none" stroke="#d5d6d5" stroke-opacity=".8" d="M 68.32716 154.29378 L 130.26389 154.29378 C 132.31722 154.29378 133.34389 155.32044 133.34389 157.37377 L 133.34389 201.8417 C 133.34389 203.89504 132.31722 204.9217 130.26389 204.9217 L 68.32716 204.9217 C 66.273838 204.9217 65.24717 203.89504 65.24717 201.8417 L 65.24717 157.37377 C 65.24717 155.32044 66.273838 154.29378 68.32716 154.29378 Z "/>
</g>
<path transform="matrix(2.7777777,0,0,-2.7777777,0,660.54757)" stroke-width="1.5" stroke-linecap="round" stroke-linejoin="round" fill="none" stroke="#f79646" d="M 71.407169 193.17423 L 86.80717 193.17423 L 102.20717 193.17423 "/>
<symbol id="font_5_a8">
<path d="M .317 .34100003 L .34 .34100003 C .34800003 .40600003 .35500003 .44300003 .36400003 .46900005 C .34 .48400004 .305 .49300004 .268 .49300004 C .223 .49300004 .149 .45700003 .09300001 .40600003 C .038000004 .35700003 0 .252 0 .14700002 C 0 .051000004 .042000005 0 .122 0 C .176 0 .224 .020000002 .279 .065000008 L .329 .106000009 L .321 .126 L .30600003 .116000007 C .234 .068 .19600001 .051000004 .161 .051000004 C .10500001 .051000004 .076000008 .091000009 .076000008 .17000002 C .076000008 .27800004 .11100001 .38200004 .16 .42000003 C .18100001 .43600003 .205 .44400005 .236 .44400005 C .28100003 .44400005 .317 .42500005 .317 .40100003 L .317 .34100003 Z "/>
</symbol>
<use xlink:href="#font_5_a8" transform="matrix(42.617944,0,0,-42.617944,319.19648,139.39354)" fill="#333333"/>
<symbol id="font_5_ae">
<path d="M 0 .397 L .0069999995 .37700004 L .039000006 .39800004 C .076000008 .42100004 .079 .42300005 .086 .42300005 C .09600001 .42300005 .10400001 .41300003 .10400001 .40000005 C .10400001 .393 .1 .37000004 .09600001 .356 L .030000002 .11600001 C .022 .08500001 .017 .058000003 .017 .039 C .017 .015000001 .028 0 .047 0 C .07300001 0 .109000008 .021000002 .20700002 .094000007 L .197 .11200001 L .171 .095000009 C .14200002 .076000008 .11900001 .065000008 .11000001 .065000008 C .10300001 .065000008 .09700001 .075 .09700001 .08500001 C .09700001 .095000009 .099 .10400001 .10400001 .125 L .181 .42900003 C .185 .446 .187 .45700003 .187 .46500004 C .187 .48200003 .178 .49100004 .162 .49100004 C .14000002 .49100004 .10300001 .47000004 .028 .41700004 L 0 .397 M .194 .721 C .16500002 .721 .136 .688 .136 .65400007 C .136 .629 .151 .61300006 .17500001 .61300006 C .206 .61300006 .22999999 .642 .22999999 .68 C .22999999 .70400008 .215 .721 .194 .721 Z "/>
</symbol>
<use xlink:href="#font_5_ae" transform="matrix(32.38938,0,0,-32.38938,337.28816,147.60065)" fill="#333333"/>
<path transform="matrix(2.7777777,0,0,-2.7777777,0,660.54757)" stroke-width="1.5" stroke-linecap="butt" stroke-dasharray="5.55,2.4" stroke-linejoin="round" fill="none" stroke="#008000" d="M 71.407169 170.17026 L 86.80717 170.17026 L 102.20717 170.17026 "/>
<use xlink:href="#font_5_a8" transform="matrix(42.617944,0,0,-42.617944,319.19648,203.29341)" fill="#333333"/>
<symbol id="font_6_4">
<path d="M .21000001 .393 C .21100003 .407 .21100003 .43100003 .185 .43100003 C .169 .43100003 .15600002 .418 .15900001 .405 L .15900001 .39200003 L .17300001 .23700002 L .045 .33 C .036 .335 .034 .337 .027000003 .337 C .012999997 .337 0 .323 0 .30900003 C 0 .293 .009999998 .289 .019999996 .284 L .162 .21599999 L .023999997 .14900002 C .008000001 .141 0 .137 0 .122 C 0 .107 .012999997 .094000007 .027000003 .094000007 C .034 .094000007 .036 .094000007 .060999998 .113 L .17300001 .194 L .15799999 .026 C .15799999 .004999999 .176 0 .18400002 0 C .19600001 0 .21100003 .0069999995 .21100003 .026 L .19600001 .194 L .32400004 .101 C .33300004 .09600001 .335 .094000007 .342 .094000007 C .35600005 .094000007 .36900003 .108 .36900003 .122 C .36900003 .137 .36 .14200002 .34800003 .148 C .28800003 .178 .286 .178 .20700002 .215 L .34500004 .282 C .36100004 .29 .36900003 .294 .36900003 .30900003 C .36900003 .324 .35600005 .337 .342 .337 C .335 .337 .33300004 .337 .30800004 .31800003 L .19600001 .23700002 L .21000001 .393 Z "/>
</symbol>
<use xlink:href="#font_6_4" transform="matrix(33.749689,0,0,-33.749689,338.60737,186.20685)" fill="#333333"/>
</g>
</svg>
