<?xml version="1.0" encoding="UTF-8" standalone="no"?>
<svg
   xmlns:dc="http://purl.org/dc/elements/1.1/"
   xmlns:cc="http://creativecommons.org/ns#"
   xmlns:rdf="http://www.w3.org/1999/02/22-rdf-syntax-ns#"
   xmlns:svg="http://www.w3.org/2000/svg"
   xmlns="http://www.w3.org/2000/svg"
   viewBox="0 0 816 1056"
   height="1056"
   width="816"
   xml:space="preserve"
   id="svg2"
   version="1.1"><metadata
     id="metadata8"><rdf:RDF><cc:Work
         rdf:about=""><dc:format>image/svg+xml</dc:format><dc:type
           rdf:resource="http://purl.org/dc/dcmitype/StillImage" /></cc:Work></rdf:RDF></metadata><defs
     id="defs6"><clipPath
       id="clipPath20"
       clipPathUnits="userSpaceOnUse"><path
         id="path18"
         d="M 0,0 H 612 V 792 H 0 Z" /></clipPath></defs><g
     transform="matrix(1.3333333,0,0,-1.3333333,0,1056)"
     id="g10"><g
       id="g12" /><g
       id="g14"><g
         clip-path="url(#clipPath20)"
         id="g16"><path
           id="path22"
           style="fill:#000000;fill-opacity:1;fill-rule:nonzero;stroke:none"
           d="M 108,708.815 H 504 V 712.8 H 108 Z" /><text
           id="text26"
           style="font-variant:normal;font-size:17.2154007px;font-family:'Nimbus Roman';-inkscape-font-specification:NimbusRomNo9L-Medi;writing-mode:lr-tb;fill:#000000;fill-opacity:1;fill-rule:nonzero;stroke:none"
           transform="matrix(1,0,0,-1,173.58,678.953)"><tspan
             id="tspan24"
             y="0"
             x="0 11.482672 19.12631 27.734009 35.119415 44.691177 49.477058 59.04882 71.960373 81.532135 91.103897 99.711594 107.04536 114.689 128.56461 138.13637 146.74406 152.47679 160.12044 165.85316 178.76471 191.19423 199.80193 209.37369 216.07048 221.80321 229.44685 238.05455 242.84044 252.4122 258.14493">LearningSharedSafetyConstraints</tspan></text>
<text
           id="text30"
           style="font-variant:normal;font-size:17.2154007px;font-family:'Nimbus Roman';-inkscape-font-specification:NimbusRomNo9L-Medi;writing-mode:lr-tb;fill:#000000;fill-opacity:1;fill-rule:nonzero;stroke:none"
           transform="matrix(1,0,0,-1,186.621,659.028)"><tspan
             id="tspan28"
             y="0"
             x="0 5.732728 13.066488 21.674189 40.318466 56.569805 66.141563 70.927444 76.660179 81.44606 87.178787 92.911514 101.51921 108.216 122.09161 134.52113 142.16478 156.5052 165.1129 174.68466 181.38145 187.11418 194.75783 203.36552 209.09825 213.88412 222.49184 232.0636">fromMulti-taskDemonstrations</tspan></text>
<g
           transform="translate(108,642.923)"
           id="g32"><path
             id="path34"
             style="fill:none;stroke:#000000;stroke-width:0.99599999;stroke-linecap:butt;stroke-linejoin:miter;stroke-miterlimit:10;stroke-dasharray:none;stroke-opacity:1"
             d="M 0,0 H 396" /></g><text
           id="text38"
           style="font-variant:normal;font-size:9.96259975px;font-family:'Nimbus Roman';-inkscape-font-specification:NimbusRomNo9L-Medi;writing-mode:lr-tb;fill:#000000;fill-opacity:1;fill-rule:nonzero;stroke:none"
           transform="matrix(1,0,0,-1,148.007,606.556)"><tspan
             id="tspan36"
             y="0"
             x="0 7.5018377 12.483138 18.022343 25.115715 30.097015 37.568966 45.319866 48.08947">KonwooKim</tspan></text>
<text
           id="text42"
           style="font-variant:normal;font-weight:normal;font-size:6.97380018px;font-family:CMSY7;-inkscape-font-specification:CMSY7;writing-mode:lr-tb;fill:#000000;fill-opacity:1;fill-rule:nonzero;stroke:none"
           transform="matrix(1,0,0,-1,204.395,610.171)"><tspan
             id="tspan40"
             y="0"
             x="0">⇤</tspan></text>
<text
           id="text46"
           style="font-variant:normal;font-size:9.96259975px;font-family:'Nimbus Roman';-inkscape-font-specification:NimbusRomNo9L-Regu;writing-mode:lr-tb;fill:#000000;fill-opacity:1;fill-rule:nonzero;stroke:none"
           transform="matrix(1,0,0,-1,120.58,595.647)"><tspan
             id="tspan44"
             y="0"
             x="0 6.6450543 11.068449 14.385994 19.367294 23.641251 28.622549 31.392153 38.306198 47.162949 51.586342 54.355946 57.125549 62.10685 69.578796 76.771797 81.753098 84.273636 89.105492 93.528893 96.846436 100.72189 103.49149 106.26109">CarnegieMellonUniversity</tspan></text>
<text
           id="text50"
           style="font-variant:normal;font-size:9.96259975px;font-family:'Nimbus Roman';-inkscape-font-specification:NimbusRomNo9L-Medi;writing-mode:lr-tb;fill:#000000;fill-opacity:1;fill-rule:nonzero;stroke:none"
           transform="matrix(1,0,0,-1,273.678,606.556)"><tspan
             id="tspan48"
             y="0"
             x="0 7.7509027 12.732203 18.271408 23.810614 29.070868 34.610073 41.80307 46.78437 55.083214">GokulSwamy</tspan></text>
<text
           id="text54"
           style="font-variant:normal;font-weight:normal;font-size:6.97380018px;font-family:CMSY7;-inkscape-font-specification:CMSY7;writing-mode:lr-tb;fill:#000000;fill-opacity:1;fill-rule:nonzero;stroke:none"
           transform="matrix(1,0,0,-1,333.742,610.171)"><tspan
             id="tspan52"
             y="0"
             x="0">⇤</tspan></text>
<text
           id="text58"
           style="font-variant:normal;font-size:9.96259975px;font-family:'Nimbus Roman';-inkscape-font-specification:NimbusRomNo9L-Regu;writing-mode:lr-tb;fill:#000000;fill-opacity:1;fill-rule:nonzero;stroke:none"
           transform="matrix(1,0,0,-1,250.379,595.647)"><tspan
             id="tspan56"
             y="0"
             x="0 6.6450543 11.068449 14.385994 19.367294 23.641251 28.622549 31.392153 38.306198 47.162949 51.586342 54.355946 57.125549 62.10685 69.578796 76.771797 81.753098 84.273636 89.105492 93.528893 96.846436 100.72189 103.49149 106.26109">CarnegieMellonUniversity</tspan></text>
<text
           id="text62"
           style="font-variant:normal;font-size:9.96259975px;font-family:'Nimbus Roman';-inkscape-font-specification:NimbusRomNo9L-Medi;writing-mode:lr-tb;fill:#000000;fill-opacity:1;fill-rule:nonzero;stroke:none"
           transform="matrix(1,0,0,-1,414.34,606.556)"><tspan
             id="tspan60"
             y="0"
             x="0 6.6450543 12.184259 17.16556 19.935163 27.965017 34.610073 37.379677">ZuxinLiu</tspan></text>
<text
           id="text66"
           style="font-variant:normal;font-size:9.96259975px;font-family:'Nimbus Roman';-inkscape-font-specification:NimbusRomNo9L-Regu;writing-mode:lr-tb;fill:#000000;fill-opacity:1;fill-rule:nonzero;stroke:none"
           transform="matrix(1,0,0,-1,380.178,595.647)"><tspan
             id="tspan64"
             y="0"
             x="0 6.6450543 11.068449 14.385994 19.367294 23.641251 28.622549 31.392153 38.306198 47.162949 51.586342 54.355946 57.125549 62.10685 69.578796 76.771797 81.753098 84.273636 89.105492 93.528893 96.846436 100.72189 103.49149 106.26109">CarnegieMellonUniversity</tspan></text>
<text
           id="text70"
           style="font-variant:normal;font-size:9.96259975px;font-family:'Nimbus Roman';-inkscape-font-specification:NimbusRomNo9L-Medi;writing-mode:lr-tb;fill:#000000;fill-opacity:1;fill-rule:nonzero;stroke:none"
           transform="matrix(1,0,0,-1,158.958,567.467)"><tspan
             id="tspan68"
             y="0"
             x="0 7.192997 9.9625998 15.501805 22.973755 29.618811 35.158016 40.139317">DingZhao</tspan></text>
<text
           id="text74"
           style="font-variant:normal;font-size:9.96259975px;font-family:'Nimbus Roman';-inkscape-font-specification:NimbusRomNo9L-Regu;writing-mode:lr-tb;fill:#000000;fill-opacity:1;fill-rule:nonzero;stroke:none"
           transform="matrix(1,0,0,-1,125.897,556.558)"><tspan
             id="tspan72"
             y="0"
             x="0 6.6450543 11.068449 14.385994 19.367294 23.641251 28.622549 31.392153 38.306198 47.162949 51.586342 54.355946 57.125549 62.10685 69.578796 76.771797 81.753098 84.273636 89.105492 93.528893 96.846436 100.72189 103.49149 106.26109">CarnegieMellonUniversity</tspan></text>
<text
           id="text78"
           style="font-variant:normal;font-size:9.96259975px;font-family:'Nimbus Roman';-inkscape-font-specification:NimbusRomNo9L-Medi;writing-mode:lr-tb;fill:#000000;fill-opacity:1;fill-rule:nonzero;stroke:none"
           transform="matrix(1,0,0,-1,261.014,567.467)"><tspan
             id="tspan76"
             y="0"
             x="0 5.5392056 10.520506 16.059711 19.377256 22.14686 27.686066 32.667366 40.69722 47.890217 53.429424 58.410725 63.949928 69.489136 75.028343 80.567543 84.990944">SanjibanChoudhury</tspan></text>
<text
           id="text82"
           style="font-variant:normal;font-size:9.96259975px;font-family:'Nimbus Roman';-inkscape-font-specification:NimbusRomNo9L-Regu;writing-mode:lr-tb;fill:#000000;fill-opacity:1;fill-rule:nonzero;stroke:none"
           transform="matrix(1,0,0,-1,268.979,556.558)"><tspan
             id="tspan80"
             y="0"
             x="0 6.6450543 11.626354 14.9439 19.9252 24.348595 27.118196 32.378448 39.571445 44.552746 47.073284 51.905148 56.328541 59.646088 63.521538 66.291138 69.060745">CornellUniversity</tspan></text>
<text
           id="text86"
           style="font-variant:normal;font-size:9.96259975px;font-family:'Nimbus Roman';-inkscape-font-specification:NimbusRomNo9L-Medi;writing-mode:lr-tb;fill:#000000;fill-opacity:1;fill-rule:nonzero;stroke:none"
           transform="matrix(1,0,0,-1,391.832,567.467)"><tspan
             id="tspan84"
             y="0"
             x="0 6.6450543 12.184259 14.953862 22.14686 26.570253 31.830507 37.369713 40.68726 44.961212 49.842888 54.266281 62.296139 71.760605">ZhiweiStevenWu</tspan></text>
<text
           id="text90"
           style="font-variant:normal;font-size:9.96259975px;font-family:'Nimbus Roman';-inkscape-font-specification:NimbusRomNo9L-Regu;writing-mode:lr-tb;fill:#000000;fill-opacity:1;fill-rule:nonzero;stroke:none"
           transform="matrix(1,0,0,-1,374.861,556.558)"><tspan
             id="tspan88"
             y="0"
             x="0 6.6450543 11.068449 14.385994 19.367294 23.641251 28.622549 31.392153 38.306198 47.162949 51.586342 54.355946 57.125549 62.10685 69.578796 76.771797 81.753098 84.273636 89.105492 93.528893 96.846436 100.72189 103.49149 106.26109">CarnegieMellonUniversity</tspan></text>
<text
           id="text94"
           style="font-variant:normal;font-size:11.9552002px;font-family:'Nimbus Roman';-inkscape-font-specification:NimbusRomNo9L-Medi;writing-mode:lr-tb;fill:#000000;fill-opacity:1;fill-rule:nonzero;stroke:none"
           transform="matrix(1,0,0,-1,283.758,515.376)"><tspan
             id="tspan92"
             y="0"
             x="0 8.6316547 15.278746 19.929317 23.9104 29.21851 35.19611 40.504219">Abstract</tspan></text>
<text
           id="text98"
           style="font-variant:normal;font-size:9.96259975px;font-family:'Nimbus Roman';-inkscape-font-specification:NimbusRomNo9L-Regu;writing-mode:lr-tb;fill:#000000;fill-opacity:1;fill-rule:nonzero;stroke:none"
           transform="matrix(0.98,0,0,-1,143.866,491.329)"><tspan
             id="tspan96"
             y="0"
             x="0 6.6450543 10.919009 15.850496 20.273891 23.591436 28.572737 31.34234 35.765736 39.641186 46.007286 50.988586 56.806744 59.576347 64.557648 71.481651 76.462952 80.886353 84.203896 86.973495 89.743103 94.166496 99.147797 101.9174 106.34079 112.15895 114.92855 119.35195 123.2274 130.7093 137.90231 144.82631 151.91969 156.34308 161.32439 166.5946 169.3642 174.3455 178.76889 189.02042 191.79001 199.27193 204.25322 208.67662 211.99417 215.31171 220.29301 223.61055 233.86208 236.63167 244.11359 248.53699 256.01889 260.44229 265.01514 269.99643 272.76602 276.08356 281.06488 286.04617 293.79709 298.22046 303.20178 305.97137 310.9726 313.74219 318.72351 323.14688 326.46445">Regardlessoftheparticulartaskwewantthemtoperforminanenvironment,there</tspan></text>
<text
           id="text102"
           style="font-variant:normal;font-size:10.16184998px;font-family:'Nimbus Roman';-inkscape-font-specification:NimbusRomNo9L-Regu;writing-mode:lr-tb;fill:#000000;fill-opacity:1;fill-rule:nonzero;stroke:none"
           transform="matrix(1,0,0,-0.98039235,143.866,480.42)"><tspan
             id="tspan100"
             y="0"
             x="0 4.5118613 7.8957577 15.283422 20.364347 23.748243 26.573238 31.085098 39.051991 43.004948 48.085873 52.597736 55.981632 60.493492">areoftenshared</tspan></text>
<text
           id="text106"
           style="font-variant:normal;font-size:10.16184998px;font-family:'Nimbus Roman';-inkscape-font-specification:NimbusRomNo9L-ReguItal;writing-mode:lr-tb;fill:#000000;fill-opacity:1;fill-rule:nonzero;stroke:none"
           transform="matrix(1,0,0,-0.98039235,212.321,480.42)"><tspan
             id="tspan104"
             y="0"
             x="0 3.9529595 9.033885 11.858879 16.370741 19.195734 26.593561 31.105423 36.186348 41.267273 45.220234 48.045227 51.84576 56.926685 59.751678 64.832603 67.6576">safetyconstraints</tspan></text>
<text
           id="text110"
           style="font-variant:normal;font-size:10.16184998px;font-family:'Nimbus Roman';-inkscape-font-specification:NimbusRomNo9L-Regu;writing-mode:lr-tb;fill:#000000;fill-opacity:1;fill-rule:nonzero;stroke:none"
           transform="matrix(1,0,0,-0.98039235,286.811,480.42)"><tspan
             id="tspan108"
             y="0"
             x="0 7.3368559 14.734682 21.969919 26.481781 31.562706 37.263504 42.344429 47.425354 53.695217 58.207077 63.288002 67.799866 72.880791 75.70578 82.534546 85.359543 93.326431 96.710327 101.22219 105.17515 110.25607 114.76794 119.27979 122.10479 128.90306 134.40063 139.48155 145.75142 150.11086 155.19177 159.70363 167.60956 172.69048 175.51547 180.02733">wewantouragentstorespect.Forexample,</tspan></text>
<text
           id="text114"
           style="font-variant:normal;font-size:10.16184998px;font-family:'Nimbus Roman';-inkscape-font-specification:NimbusRomNo9L-Regu;writing-mode:lr-tb;fill:#000000;fill-opacity:1;fill-rule:nonzero;stroke:none"
           transform="matrix(1,0,0,-0.98039235,143.866,469.511)"><tspan
             id="tspan112"
             y="0"
             x="0 3.3838961 7.7433295 12.773445 17.285307 20.669203 25.750128 28.575123 33.086983 37.039944 44.508904 49.589828 56.489723 63.82658 68.907501 73.419365 76.244362 81.325287 85.837151 92.737045 95.562035 101.89287 104.71786 112.18682 120.09274 124.60461 129.68553 132.51053 137.59145 146.18837 154.21623 158.16919 162.68106 167.76198 172.84291 180.17976 183.00476 187.51662 196.10338 201.18431 208.0842 212.59607 215.42105 219.93292 224.44478 227.82867 230.65367 235.7346 244.33153 247.15651 252.23744 260.26529 263.0903 267.60217 272.68307 275.50809 280.01993 286.33044 294.34814 299.42908 302.25406 305.07907 309.59091 314.67184 319.18372">regardlessofwhetheritismakingasandwichorclearingthetable,akitchen</tspan></text>
<text
           id="text118"
           style="font-variant:normal;font-size:9.96259975px;font-family:'Nimbus Roman';-inkscape-font-specification:NimbusRomNo9L-Regu;writing-mode:lr-tb;fill:#000000;fill-opacity:1;fill-rule:nonzero;stroke:none"
           transform="matrix(1,0,0,-1,143.866,458.602)"><tspan
             id="tspan116"
             y="0"
             x="0 3.3175459 8.2988462 13.280146 18.261446 23.511736 27.387188 32.368488 37.349789 42.331089 45.100689 52.572639 57.55394 62.53524 67.78553 72.76683 76.084373 80.507774 84.931168 92.403114 99.307198 104.2885 107.0581 111.48149 114.2511 118.67449 124.25355 133.11031 137.53369 142.515 147.49629 151.91969 154.68929 157.45889 164.93085 168.80629 173.7876 178.21098 182.63438 185.40399 188.72153 193.70284 196.47243 201.45374 208.91573 212.79117 217.77248 222.19586 229.66782 236.5719 240.9953 245.97659 250.9579 254.83334 257.60294 260.9205 265.3439 268.11349 273.09479 278.35504 282.77844 287.20184 294.66382 299.64511 306.55917 311.54047 316.52176 319.29138">robotshouldnotbreakaplate.Manuallyspecifyingsuchaconstraintcanbeboth</tspan></text>
<text
           id="text122"
           style="font-variant:normal;font-size:10.16184998px;font-family:'Nimbus Roman';-inkscape-font-specification:NimbusRomNo9L-Regu;writing-mode:lr-tb;fill:#000000;fill-opacity:1;fill-rule:nonzero;stroke:none"
           transform="matrix(1,0,0,-0.98039235,143.866,447.693)"><tspan
             id="tspan120"
             y="0"
             x="0 2.8249943 5.6499887 13.555908 18.06777 21.451666 25.963528 31.044453 36.125378 40.078335 45.15926 53.065182 55.890175 60.9711 68.572166 73.084023 78.164948 85.776176 90.28804 93.671936 97.055832 102.13676 105.31741 108.70131 113.78223 117.16613 122.24706 127.32798 131.83984 137.58128 146.37129 153.41345 157.36641 162.44733 167.27422 177.14137 182.22229 187.04918 196.91634 199.74132 207.34239 210.16739 214.67924 219.1911 222.575 230.18623 234.69809 239.77901 244.85994 248.8129 251.63789 255.02179 259.53366 262.35864 267.43958 270.26456 276.73767 280.12155 283.50546 288.58636 299.02258 303.38202 308.46295 313.54388 318.05576 321.43964">time-consuminganderror-prone.Weshowhowtolearnconstraintsfromexpert</tspan></text>
<text
           id="text126"
           style="font-variant:normal;font-size:9.96259975px;font-family:'Nimbus Roman';-inkscape-font-specification:NimbusRomNo9L-Regu;writing-mode:lr-tb;fill:#000000;fill-opacity:1;fill-rule:nonzero;stroke:none"
           transform="matrix(0.98,0,0,-1,143.866,436.784)"><tspan
             id="tspan124"
             y="0"
             x="0 4.9812999 9.4046946 17.155598 22.136898 27.118196 30.993649 33.763252 37.080799 41.504192 44.273796 47.043396 52.024696 57.005997 62.983559 67.964859 73.384514 77.259964 81.683357 85.0009 91.536369 94.305969 98.729362 102.60482 109.68822 114.11162 119.09292 126.84383 131.82512 134.59473 139.01813 141.78772 144.55733 149.53862 156.62204 161.60333 168.6967 172.96069 177.942 180.71161 185.13499 190.1163 195.0976 197.8672 202.8485 209.9319 212.70151 217.2843 222.1062 226.5296 229.84714 233.7226 240.25806 243.57561 247.99901 250.7686 255.74991 259.06744 264.04874 267.3663 271.7897 276.21307 283.96399 288.38739 293.36868 298.24039 301.01001 305.43338 309.85678 313.17432 318.15564 320.92523 325.90652">demonstrationsofsafetaskcompletionbyextendinginversereinforcementlearning</tspan></text>
<text
           id="text130"
           style="font-variant:normal;font-size:10.0522604px;font-family:'Nimbus Roman';-inkscape-font-specification:NimbusRomNo9L-Regu;writing-mode:lr-tb;fill:#000000;fill-opacity:1;fill-rule:nonzero;stroke:none"
           transform="matrix(1,0,0,-0.99108061,143.537,425.875)"><tspan
             id="tspan128"
             y="0"
             x="0 3.3474026 6.6948051 13.399663 19.541594 25.381956 28.176485 32.639687 37.10289 42.129021 47.155151 49.94968 54.975811 60.001942 64.465141 70.868431 73.662964 81.182053 83.976578 89.002708 95.958878 99.869202 104.89533 109.35854 113.82174 120.7779 125.80403 131.64439 136.1076 141.13373 146.15987 150.07019 152.86472 156.21213 160.67532 163.46985 168.49599 171.29051 175.20084 180.82005 184.16745 189.19359 191.98811 197.01424 199.80878 202.6033 205.14651 210.02187 214.48508 217.2796 221.66238 226.66841 233.92615 240.88231 243.67683 248.14005 252.60324 255.95064 263.46973 267.93295 272.95908 277.9852 281.89554 284.69006 288.03745 292.50067 295.2952 300.32132 303.11584 309.51913 312.31366 317.33978 321.80301">(IRL)techniquestothespaceofconstraints.Intuitively,welearnconstraintsthat</tspan></text>
<text
           id="text134"
           style="font-variant:normal;font-size:10.16184998px;font-family:'Nimbus Roman';-inkscape-font-specification:NimbusRomNo9L-Regu;writing-mode:lr-tb;fill:#000000;fill-opacity:1;fill-rule:nonzero;stroke:none"
           transform="matrix(1,0,0,-0.98039235,143.866,414.965)"><tspan
             id="tspan132"
             y="0"
             x="0 3.3838961 8.4648209 11.848717 16.929642 19.754637 27.508127 32.589054 35.414047 40.494972 45.575897 48.40089 56.164543 59.548443 63.806255 71.041496 75.553352 78.937248 84.018173 86.84317 91.924095 99.687752 104.76868 109.28053 114.36146 118.67008 123.75101 126.576 131.65692 137.71339 140.53839 145.61931 150.13116 155.6389 158.46388 163.54482 170.72925 175.08867 180.1696 185.25052 189.76239 193.14629 198.64384 203.1557 208.23663 213.31755 216.14255 223.9062 228.98712 233.29575 238.22424 245.41884 248.24384 252.75569 257.73502 262.24686 270.00037 274.88821 279.96912 285.46671 289.97855 295.05948 300.14041 304.09335 311.2778 316.3587 321.43964">forbidhighlyrewardingbehaviorthattheexpertcouldhavetakenbutchosenot</tspan></text>
<text
           id="text138"
           style="font-variant:normal;font-size:9.96259975px;font-family:'Nimbus Roman';-inkscape-font-specification:NimbusRomNo9L-Regu;writing-mode:lr-tb;fill:#000000;fill-opacity:1;fill-rule:nonzero;stroke:none"
           transform="matrix(0.99899996,0,0,-1,143.866,404.056)"><tspan
             id="tspan136"
             y="0"
             x="0 2.7696028 7.7509027 13.359847 20.552843 25.534143 28.85169 33.832989 37.150536 39.920139 44.90144 49.88274 54.306133 57.075737 61.49913 64.26873 68.602463 73.603691 76.373291 81.354591 88.278595 92.701996 97.683296 102.6646 106.54005 109.30965 112.62719 117.05059 119.82019 124.80149 130.0717 132.84131 137.26471 141.6881 145.00565 149.98694 152.75655 157.73784 165.21976 170.20107 173.5186 178.49991 183.4812 186.25081 190.67419 200.92572 203.69531 210.08134 213.3989 217.82228 220.59189 225.5732 229.99658 235.81474 238.58435 241.35394 244.12355 247.4411 252.42239 257.40369 261.27914 265.70255 273.18445 277.60785 282.58914 290.07108 292.84067 297.82196 302.80325 305.57288 309.99628 314.41965 317.18927 319.95886">to.Unfortunately,theconstraintlearningproblemisratherill-posedandtypically</tspan></text>
<text
           id="text142"
           style="font-variant:normal;font-size:9.96259975px;font-family:'Nimbus Roman';-inkscape-font-specification:NimbusRomNo9L-Regu;writing-mode:lr-tb;fill:#000000;fill-opacity:1;fill-rule:nonzero;stroke:none"
           transform="matrix(0.99899996,0,0,-1,143.866,393.147)"><tspan
             id="tspan140"
             y="0"
             x="0 2.7696028 7.192997 11.616391 16.597692 22.953831 25.723433 33.195385 38.027245 42.859104 47.282501 50.600044 53.369648 60.841599 65.264992 70.246292 75.227592 79.103043 83.526436 86.843987 91.566254 95.989655 98.759254 101.27979 106.11166 113.0257 117.44909 122.43039 127.41169 131.28714 134.05675 137.3743 141.79768 144.56729 149.54858 152.31819 158.67433 161.44394 166.42523 170.84863 176.10889 179.42642 184.40773 187.72527 192.70657 195.47618 202.94812 207.37152 210.14113 215.39142 220.37271 224.79611 229.7774 234.00156 238.98285 241.75246 246.73375 252.54195 255.31155 260.29285 264.71625 269.96652 272.73615 277.71744 284.63147 288.90543 293.88675 298.86804 303.29144 306.60898 311.85925 316.84058 319.61017">leadstooverlyconservativeconstraintsthatforbidallbehaviorthattheexpertdid</tspan></text>
<text
           id="text146"
           style="font-variant:normal;font-size:9.96259975px;font-family:'Nimbus Roman';-inkscape-font-specification:NimbusRomNo9L-Regu;writing-mode:lr-tb;fill:#000000;fill-opacity:1;fill-rule:nonzero;stroke:none"
           transform="matrix(0.98,0,0,-1,143.866,382.238)"><tspan
             id="tspan144"
             y="0"
             x="0 4.9812999 9.9625998 15.282628 18.052231 22.475626 27.3573 31.780693 37.459377 46.047138 53.020958 57.444351 62.425652 67.406952 72.388252 75.157852 79.581245 85.449219 88.218826 93.200127 95.969727 102.40556 107.38686 114.91859 117.68819 121.85256 126.68443 131.10782 134.42537 138.84875 143.83006 146.59966 151.58096 159.11269 164.09398 166.61452 171.43642 175.85982 179.17737 183.05281 190.03659 195.0179 199.44128 207.1922 212.17349 217.15479 221.03024 223.79985 227.11739 231.54079 234.31039 237.07999 242.06129 247.04259 253.46848 256.23807 261.21936 265.64276 270.9628 275.94409 280.36749 283.13708 288.11838 291.43594 295.85934 298.62894 301.39853 308.93027 313.91156 318.33496 322.75836 327.73965">nottake.Wecounterthisbyleveragingdiversedemonstrationsthatnaturallyoccur</tspan></text>
<text
           id="text150"
           style="font-variant:normal;font-size:10.03234005px;font-family:'Nimbus Roman';-inkscape-font-specification:NimbusRomNo9L-Regu;writing-mode:lr-tb;fill:#000000;fill-opacity:1;fill-rule:nonzero;stroke:none"
           transform="matrix(1,0,0,-0.99304848,143.866,371.329)"><tspan
             id="tspan148"
             y="0"
             x="0 2.7889905 10.29318 18.098341 23.114511 25.903502 28.692492 31.481483 34.82225 37.611244 42.065601 45.968182 53.482403 57.384983 61.839344 64.628334 67.417328 70.206314 75.222488 80.238655 86.629257 89.418243 96.932472 99.721458 104.17582 108.63018 111.97095 119.47514 126.42755 129.21654 132.00552 137.0217 142.03787 144.82686 149.28122 155.11002 159.01259 163.46695 168.754 173.77016 179.59895 184.05331 189.06947 194.08565 197.98824 200.77722 204.118 208.57234 211.36134 216.3775 219.1665 223.06908 228.67715 237.35513 244.29752 249.06287 253.51723 256.30621 259.09521 264.11139 268.56573 271.35474 278.30713 283.3233 288.33948 294.16827 301.97342 306.4278 309.2168 314.23294 319.24911">inmulti-tasksettingstolearnatightersetofconstraints.Wevalidateourmethod</tspan></text>
<text
           id="text154"
           style="font-variant:normal;font-size:9.96259975px;font-family:'Nimbus Roman';-inkscape-font-specification:NimbusRomNo9L-Regu;writing-mode:lr-tb;fill:#000000;fill-opacity:1;fill-rule:nonzero;stroke:none"
           transform="matrix(1,0,0,-1,143.507,360.42)"><tspan
             id="tspan152"
             y="0"
             x="0 7.192997 9.9625998 12.732203 20.204153 24.079605 26.849207 34.600109 39.581409 42.351013 46.774406 49.54401 52.313614 57.294914 64.766861 69.040817 74.022118 79.003418 83.426811 86.744362 89.513962 97.264862 101.68826 106.66956 109.43916 115.80526 120.78656 128.25851 133.23981 136.00941 140.99072 145.97202 149.28957 154.27086 157.04047 164.79137 169.21477 174.19606 178.07152 180.84111 185.82242 190.80371 195.22711 200.48737 204.91075 209.89206 214.87335 217.64296 220.41257 225.39386 230.37517 235.35646 240.33777 246.70386 251.12726 256.10855 261.08984 263.85947 267.177 272.15829 277.41855 280.18817 284.61154 288.487 293.46832 297.34375">withsimulationexperimentsonhigh-dimensionalcontinuouscontroltasks.</tspan></text>
<text
           id="text158"
           style="font-variant:normal;font-size:11.9552002px;font-family:'Nimbus Roman';-inkscape-font-specification:NimbusRomNo9L-Medi;writing-mode:lr-tb;fill:#000000;fill-opacity:1;fill-rule:nonzero;stroke:none"
           transform="matrix(1,0,0,-1,108,325.956)"><tspan
             id="tspan156"
             y="0"
             x="0 17.9328 22.583372 29.230465 33.211544 38.304462 44.282063 50.929153 57.576244 62.884354 66.865433 70.18898 76.16658">1Introduction</tspan></text>
<text
           id="text162"
           style="font-variant:normal;font-size:10.10208035px;font-family:'Nimbus Roman';-inkscape-font-specification:NimbusRomNo9L-Regu;writing-mode:lr-tb;fill:#000000;fill-opacity:1;fill-rule:nonzero;stroke:none"
           transform="matrix(1,0,0,-0.98619294,108,302.45)"><tspan
             id="tspan160"
             y="0"
             x="0 3.3639927 9.2130966 16.183533 19.547525 22.911518 25.719896 30.205219 35.25626 42.78231 49.974991 54.460312 60.875134 63.683514 71.219666 76.270706 81.321747 86.372787 92.221886 97.272926 100.08131 102.88969 107.37501 112.42605 116.91137 124.43742 128.92274 133.97379 141.50993 146.56097 151.61201 159.14816 161.95654 167.00758 169.81596 177.35211 180.16049 185.21153 189.69685 200.03128 202.83966 210.37581 214.86115 222.72055 227.20589 232.1559 239.12634 241.93471 246.98575 251.47108 255.40079 258.20917 264.81592 269.86697 275.71606 280.20139 284.68671 287.49509 291.98041 296.46573 303.99179 306.80017 311.8512 318.82166 323.87268 326.68106 330.61078 335.6618 340.14713 344.07684 346.60236 353.20914 358.26016 363.31122 370.84735 378.04004 383.09106 388.14212 390.9505">Ifafriendwasinyourkitchenandyoutoldthemto“maketoast&quot;or“cleanthedishes,&quot;youwould</tspan></text>
<text
           id="text166"
           style="font-variant:normal;font-size:10.12199974px;font-family:'Nimbus Roman';-inkscape-font-specification:NimbusRomNo9L-Regu;writing-mode:lr-tb;fill:#000000;fill-opacity:1;fill-rule:nonzero;stroke:none"
           transform="matrix(1,0,0,-0.98425212,108,291.541)"><tspan
             id="tspan164"
             y="0"
             x="0 5.0609999 8.4316263 13.492626 18.553625 23.047794 28.108793 30.92271 38.4636 43.524601 50.498657 53.869286 58.363453 61.177368 66.238365 70.732536 76.593178 80.530632 85.591629 88.962257 94.023254 97.393883 100.2078 104.13514 108.6293 116.18031 118.99423 124.84475 127.65866 132.71967 137.062 144.60289 149.66389 153.03452 158.09552 163.0553 170.03947 173.97693 179.03793 186.91286 193.88692 198.94791 204.79843 209.85942 214.92043 219.98143 225.83194 230.89294 233.70686 238.20102 241.01494 245.50911 251.92645 256.98746 262.04846 265.4191 268.233 273.29401 280.845 283.6488 288.70981 291.52371 297.9512 303.01221 306.38281 311.44382 315.93799 320.43216 324.3696 328.30707 333.91467 340.09921 345.16019 352.14438 357.20538 362.26639 367.32739 371.82153 375.19217 378.0061 383.06708 385.88101 390.94202">probablyberathersurprisediftheybrokesomeofyourplatesduringthisprocess.Theunderlying</tspan></text>
<text
           id="text170"
           style="font-variant:normal;font-size:10.16184998px;font-family:'Nimbus Roman';-inkscape-font-specification:NimbusRomNo9L-ReguItal;writing-mode:lr-tb;fill:#000000;fill-opacity:1;fill-rule:nonzero;stroke:none"
           transform="matrix(1,0,0,-0.98039235,108,280.632)"><tspan
             id="tspan168"
             y="0"
             x="0 3.9529595 9.033885 11.858879 16.370741 19.195734 27.335377 31.847239 36.928162 42.009087 45.962048 48.787041 52.587574 57.668499 60.493492 65.574417">safetyconstraint</tspan></text>
<text
           id="text174"
           style="font-variant:normal;font-size:10.16184998px;font-family:'Nimbus Roman';-inkscape-font-specification:NimbusRomNo9L-Regu;writing-mode:lr-tb;fill:#000000;fill-opacity:1;fill-rule:nonzero;stroke:none"
           transform="matrix(1,0,0,-0.98039235,180.207,280.632)"><tspan
             id="tspan172"
             y="0"
             x="0 2.8249943 7.9059191 12.417781 18.870556 22.254452 27.335377 30.719273 35.800198 38.625191 43.706116 51.286858 54.111851 59.192776 63.704639 67.6576 75.797241 80.878166 83.703156 88.784081 93.865005 101.43559 106.51651 113.52819 118.60912 123.12097 128.2019 132.52069 137.60161 140.42661 145.50752 152.51921 155.34421 162.91478 167.9957 173.07663 175.90163">thatforbidsthesekindsofbehaviorisboth</tspan></text>
<text
           id="text178"
           style="font-variant:normal;font-size:10.16184998px;font-family:'Nimbus Roman';-inkscape-font-specification:NimbusRomNo9L-ReguItal;writing-mode:lr-tb;fill:#000000;fill-opacity:1;fill-rule:nonzero;stroke:none"
           transform="matrix(1,0,0,-0.98039235,364.821,280.632)"><tspan
             id="tspan176"
             y="0"
             x="0 5.080925">a)</tspan></text>
<text
           id="text182"
           style="font-variant:normal;font-size:10.16184998px;font-family:'Nimbus Roman';-inkscape-font-specification:NimbusRomNo9L-Regu;writing-mode:lr-tb;fill:#000000;fill-opacity:1;fill-rule:nonzero;stroke:none"
           transform="matrix(1,0,0,-0.98039235,376.912,280.632)"><tspan
             id="tspan180"
             y="0"
             x="0 2.8249943 10.730913 15.811838 18.636833 21.461826 25.973688 28.798683 35.251457 39.763321 44.844246">implicitand</tspan></text>
<text
           id="text186"
           style="font-variant:normal;font-size:10.16184998px;font-family:'Nimbus Roman';-inkscape-font-specification:NimbusRomNo9L-ReguItal;writing-mode:lr-tb;fill:#000000;fill-opacity:1;fill-rule:nonzero;stroke:none"
           transform="matrix(1,0,0,-0.98039235,430.463,280.632)"><tspan
             id="tspan184"
             y="0"
             x="0 5.080925">b)</tspan></text>
<text
           id="text190"
           style="font-variant:normal;font-size:10.16184998px;font-family:'Nimbus Roman';-inkscape-font-specification:NimbusRomNo9L-Regu;writing-mode:lr-tb;fill:#000000;fill-opacity:1;fill-rule:nonzero;stroke:none"
           transform="matrix(1,0,0,-0.98039235,442.554,280.632)"><tspan
             id="tspan188"
             y="0"
             x="0 4.5118613 9.5927868 14.673712 19.754637 23.707596 26.532591 29.357584 37.497227 40.32222 49.030926 51.855919 56.936844">agnostictothe</tspan></text>
<text
           id="text194"
           style="font-variant:normal;font-size:10.16184998px;font-family:'Nimbus Roman';-inkscape-font-specification:NimbusRomNo9L-Regu;writing-mode:lr-tb;fill:#000000;fill-opacity:1;fill-rule:nonzero;stroke:none"
           transform="matrix(1,0,0,-0.98039235,108,269.723)"><tspan
             id="tspan192"
             y="0"
             x="0 5.080925 9.5927868 12.976683 15.801677 18.626671 23.138533 28.219458 31.044453 35.556313 41.856659 44.681656 49.193516 53.146477 61.143852 63.968845 69.049774 73.409203 81.406578 88.743439 93.255295 96.639191 104.07767 108.58953 112.54249 117.5218 122.03365 130.03104 132.85603 140.85341 145.93433 150.44618 153.83008 157.21397 162.29491 165.6788 173.58472 180.49478 187.83163 192.65851 199.35518 204.91371 207.73869 212.25056 215.07556 217.91071 224.78012 229.86105 233.24495 236.06993 241.15086 249.14824 256.57654 261.65747 266.7384 271.81934 275.77228 280.28415 285.36508 290.44598 293.271 301.27853 304.66241 309.74335 314.82428 319.90521 325.64664 328.47165 333.55255 336.37756 344.37494 347.19992 352.28085 359.70917 364.22104 369.30194 374.38287 378.89474 381.71973 384.54474 389.62564 394.70657">particulartasktheywereaskedtoperform.Now,let’sbringahouseholdrobotintotheequation,</tspan></text>
<text
           id="text198"
           style="font-variant:normal;font-size:9.96259975px;font-family:'Nimbus Roman';-inkscape-font-specification:NimbusRomNo9L-Regu;writing-mode:lr-tb;fill:#000000;fill-opacity:1;fill-rule:nonzero;stroke:none"
           transform="matrix(0.98899996,0,0,-1,108,258.814)"><tspan
             id="tspan196"
             y="0"
             x="0 4.9812999 9.9625998 14.385994 17.703541 22.126934 24.896538 27.66614 32.647442 40.139317 47.342274 50.101917 52.871517 57.852818 60.622421 68.12426 73.10556 78.086861 83.068161 88.906242 93.887543 96.657143 99.42675 103.84018 108.83144 113.24487 118.22617 123.84508 131.03807 135.77031 145.47389 149.89728 154.32068 161.82251 169.0155 175.94948 180.37288 185.35417 189.22963 194.21092 197.52847 204.4724 207.242 212.22331 216.6467 221.92688 224.69649 229.98662 234.41002 239.39131 244.37262 248.79601 252.11356 256.53696 262.92297 265.69257 273.19443 275.96402 280.94531 285.36871 289.24417 296.17813 298.94772 306.69864 311.67993 314.44955 317.21915 321.64255 324.41214 329.70227 333.57773 338.00113 341.31866 345.74207 348.51169 356.00354 360.42694 365.40823 370.38956 374.26498 377.03461 380.35214 384.77554 387.54514 392.52643 395.29605 399.17151">operatingwithinyourkitchen.Howcanweensurethatitadherestotheseimplicitsafetyconstraints,</tspan></text>
<text
           id="text202"
           style="font-variant:normal;font-size:9.96259975px;font-family:'Nimbus Roman';-inkscape-font-specification:NimbusRomNo9L-Regu;writing-mode:lr-tb;fill:#000000;fill-opacity:1;fill-rule:nonzero;stroke:none"
           transform="matrix(1,0,0,-1,108,247.905)"><tspan
             id="tspan200"
             y="0"
             x="0 3.3175459 7.5915012 12.522988 16.946383 20.263927 25.245228 28.014832 32.438225 36.313679 42.679779 47.661079 53.469273 56.238876 59.00848 65.37458 69.797974 73.673424 77.548882 80.318481 85.299782 90.281082 94.704475 102.17642 104.94603 109.36942 113.24487 118.22617 122.10162">regardlessofitsassignedtasks?</tspan></text>
<text
           id="text206"
           style="font-variant:normal;font-size:9.96259975px;font-family:'Nimbus Roman';-inkscape-font-specification:NimbusRomNo9L-Regu;writing-mode:lr-tb;fill:#000000;fill-opacity:1;fill-rule:nonzero;stroke:none"
           transform="matrix(0.99800002,0,0,-1,108,231.517)"><tspan
             id="tspan204"
             y="0"
             x="0 7.192997 12.174297 19.098305 23.521698 28.502998 33.484299 36.801846 41.783146 46.206539 50.629932 58.111847 65.862747 68.632355 73.613655 78.594948 83.865166 88.846466 95.780434 98.550041 106.03195 113.22495 116.5425 119.3121 122.0817 129.00571 133.98701 138.71924 145.91225 153.39415 157.26961 162.2509 166.6743 171.09769 173.86729 179.40649 186.33051 190.75391 195.7352 200.71651 204.59195 207.36156 210.67911 215.10249 217.8721 222.85339 225.623 231.99907 235.3166 239.74001 242.23065 247.21196 252.82091 255.5905 260.57181 263.3414 268.32269 273.59293 276.36252 281.34381 284.66138 289.64267 294.62396 301.54797 304.31757 307.08719 314.83807 317.6077 320.37729 324.25275 330.07089 334.49429 339.47559 346.95752 351.93881 356.36221 360.23764 366.61371 369.38333 374.36462 378.78802 389.03952 391.80914">Oneapproachmightbetowritedownspecifcconstraints(e.g.jointtorquelimits)andpassthemto</tspan></text>
<text
           id="text210"
           style="font-variant:normal;font-size:9.97256279px;font-family:'Nimbus Roman';-inkscape-font-specification:NimbusRomNo9L-Regu;writing-mode:lr-tb;fill:#000000;fill-opacity:1;fill-rule:nonzero;stroke:none"
           transform="matrix(1,0,0,-0.99900096,108,220.607)"><tspan
             id="tspan208"
             y="0"
             x="0 2.7723725 7.7586541 14.679613 19.665894 24.093712 28.52153 31.293903 35.163258 37.935631 42.921909 47.908192 51.229057 58.987709 63.415527 68.40181 71.174179 76.160461 83.639885 87.519211 92.505493 96.384819 99.157196 103.58501 113.82684 118.81312 124.62712 127.39949 132.38577 139.30673 142.62759 147.61388 152.60016 157.58644 160.35881 165.93347 173.13367 178.11995 181.44081 186.42709 189.74796 192.52032 197.50661 202.49289 206.92072 209.69308 214.1209 216.89328 221.23134 226.21762 233.97627 238.96255 242.28342 249.1944 253.62222 258.60849 266.36716 271.35342 274.12582 278.40405 285.88345 290.31128 295.29758 300.28384 304.16318 306.93555 310.25641 314.68423 317.4566 322.44287 325.21524 331.57776 334.35013 337.1225 342.00903 348.92999 351.70239 356.68866 363.59964 368.58594 373.5722 378.00003 384.3725 391.57269">thedecision-makingsystemoftherobot.Unfortunately,morecomplexconstraintsliketheoneswe</tspan></text>
<text
           id="text214"
           style="font-variant:normal;font-size:10.14192963px;font-family:'Nimbus Roman';-inkscape-font-specification:NimbusRomNo9L-Regu;writing-mode:lr-tb;fill:#000000;fill-opacity:1;fill-rule:nonzero;stroke:none"
           transform="matrix(1,0,0,-0.98231796,108,209.698)"><tspan
             id="tspan212"
             y="0"
             x="0 4.5030169 9.5739822 14.644947 18.590158 21.409615 26.480579 30.983597 36.845631 41.348648 46.419613 51.348591 56.267429 63.255219 67.758232 71.135498 78.13343 83.204391 88.27536 91.094818 98.650551 103.72152 106.54098 109.67483 115.3036 119.80662 124.87759 127.69704 133.01141 135.83087 143.38661 146.76387 151.83484 155.2121 163.10252 167.60553 170.42499 173.24445 177.74747 184.74539 192.63582 197.13884 199.9583 205.02925 209.53227 217.4227 221.9257 224.74516 227.56462 232.06764 236.57066 239.39012 242.20958 249.7653 254.26833 259.33929 266.90518 271.4082 275.91119 279.85641 287.41214 290.78943 295.86038 301.73257 306.23557 313.79132 318.29434 323.3653 328.43625 331.81354 336.88449 340.82971 345.3327 351.2049 354.02435 361.58008 364.95734 370.02832 373.22302 378.29398 382.797 388.11139 390.93085">considerabovearebothdiffculttoformalizemathematicallyandeasyforanend-usertoforgetto</tspan></text>
<text
           id="text218"
           style="font-variant:normal;font-size:9.96259975px;font-family:'Nimbus Roman';-inkscape-font-specification:NimbusRomNo9L-Regu;writing-mode:lr-tb;fill:#000000;fill-opacity:1;fill-rule:nonzero;stroke:none"
           transform="matrix(0.98,0,0,-1,108,198.789)"><tspan
             id="tspan216"
             y="0"
             x="0 3.8754513 8.8567514 13.280146 17.703541 20.473143 23.790689 31.153049 34.470596 38.89399 45.150505 47.920105 52.901405 57.175362 64.53772 71.631096 76.612396 81.593697 84.363297 91.725655 96.706955 103.51141 106.28101 111.26231 116.24361 120.66701 123.98456 128.40796 133.38925 136.15886 138.92845 146.29082 151.27213 156.25342 161.23473 165.65811 168.97566 172.8511 175.62071 180.60202 185.58331 192.94568 197.92697 205.28934 212.0938 217.07509 222.0564 229.8073 234.23068 241.59305 246.57436 250.99774 253.76735 258.74866 263.17203 266.48959 269.80713 275.39615 281.48331 286.4646 289.23419 295.50067 300.48196 303.79953 308.78082 313.76212 316.53174 320.95511 331.0871 333.85669 340.11319 345.09451 349.51788 352.83545 357.25885 360.02844 362.79803 367.22144 369.99103 374.41443 381.77679 384.54639 391.90875 394.67838 399.65967">specify(astheywouldbeinherentlyunderstoodbyahumanhelper).Thisproblemisparalleledinthe</tspan></text>
<text
           id="text222"
           style="font-variant:normal;font-size:9.96259975px;font-family:'Nimbus Roman';-inkscape-font-specification:NimbusRomNo9L-Regu;writing-mode:lr-tb;fill:#000000;fill-opacity:1;fill-rule:nonzero;stroke:none"
           transform="matrix(0.98,0,0,-1,108,187.88)"><tspan
             id="tspan220"
             y="0"
             x="0 5.5392056 9.9625998 12.732203 20.214115 25.195415 31.013575 34.33112 38.754513 41.524117 46.505417 49.822964 54.804264 58.121807 62.545204 66.968597 74.719498 79.142891 84.124191 89.394409 92.164009 96.58741 101.0108 104.32835 109.30965 112.07925 117.06055 124.54247 127.86001 134.50507 140.59221 143.90976 148.90102 156.09401 161.07532 165.49872 168.81625 175.74026 180.72156 185.14496 190.68416 195.66547 198.43507 203.41637 210.90825 214.22578 218.39015 225.48352 229.90692 233.22447 240.70638 244.02393 249.00522 253.98653 258.40991 261.17953 263.94913 268.93042 273.91171 280.28778 283.0574 288.0387 292.4621 297.7323 300.50189 304.92529 309.34869 316.8306 319.60022 327.08212 332.06342 336.48682 340.36227 343.13187 346.4494 350.8728 355.8541 358.62372 365.54773 370.52902 374.95242 379.93372 384.15787 389.13916 391.90875 396.89005 400.20761">feldofreinforcementlearning(RL),wheredefningrewardfunctionsthatleadtodesirablebehaviors</tspan></text>
<text
           id="text226"
           style="font-variant:normal;font-size:9.96259975px;font-family:'Nimbus Roman';-inkscape-font-specification:NimbusRomNo9L-Regu;writing-mode:lr-tb;fill:#000000;fill-opacity:1;fill-rule:nonzero;stroke:none"
           transform="matrix(0.98,0,0,-1,108,176.971)"><tspan
             id="tspan224"
             y="0"
             x="0 3.3175459 8.2988462 14.13693 16.906532 21.887833 28.841726 31.61133 36.034725 40.458118 43.775665 48.756966 51.526566 56.507866 64.009705 68.433098 73.414398 77.837791 82.819092 88.119194 90.888802 97.28479 104.22872 107.54626 111.96966 116.39306 121.37436 124.6919 128.00945 130.77905 135.76035 143.27216 147.69554 152.67685 157.10023 159.86984 162.63945 167.06284 172.04414 177.02544 183.96938">forthelearningagentisarecurringchallenge[</tspan></text>
<text
           id="text230"
           style="font-variant:normal;font-size:9.96259975px;font-family:'Nimbus Roman';-inkscape-font-specification:NimbusRomNo9L-Regu;writing-mode:lr-tb;fill:#4072af;fill-opacity:1;fill-rule:nonzero;stroke:none"
           transform="matrix(0.98,0,0,-1,291.5412,176.971)"><tspan
             id="tspan228"
             y="0"
             x="0 7.192997 11.616391 16.597692 22.136898 26.560291 29.329895 34.311195 37.628738 46.485493 50.908886 55.890186 60.31358 63.083183 68.373322 72.796715 78.096825 82.520218 85.289818">Hadfeld-Menelletal.</tspan></text>
<text
           id="text234"
           style="font-variant:normal;font-size:9.96259975px;font-family:'Nimbus Roman';-inkscape-font-specification:NimbusRomNo9L-Regu;writing-mode:lr-tb;fill:#000000;fill-opacity:1;fill-rule:nonzero;stroke:none"
           transform="matrix(0.98,0,0,-1,377.566,176.971)"><tspan
             id="tspan232"
             y="0"
             x="0">,</tspan></text>
<text
           id="text238"
           style="font-variant:normal;font-size:9.96259975px;font-family:'Nimbus Roman';-inkscape-font-specification:NimbusRomNo9L-Regu;writing-mode:lr-tb;fill:#4072af;fill-opacity:1;fill-rule:nonzero;stroke:none"
           transform="matrix(0.98,0,0,-1,382.477,176.971)"><tspan
             id="tspan236"
             y="0"
             x="0 4.9812999 9.9625998 14.9439">2017</tspan></text>
<text
           id="text242"
           style="font-variant:normal;font-size:9.96259975px;font-family:'Nimbus Roman';-inkscape-font-specification:NimbusRomNo9L-Regu;writing-mode:lr-tb;fill:#000000;fill-opacity:1;fill-rule:nonzero;stroke:none"
           transform="matrix(0.98,0,0,-1,402.0037,176.971)"><tspan
             id="tspan240"
             y="0"
             x="0 3.3175459 8.956377 14.346144 19.327444 25.165527 29.439484 34.420784 38.844177 46.595081 51.576382 54.345982 58.769379 63.780563 66.550171 71.850273 74.619873 81.015862 84.333412 88.756805 91.526405 96.507706 100.9311">].Forexample,itisrather</tspan></text>
<text
           id="text246"
           style="font-variant:normal;font-size:9.96259975px;font-family:'Nimbus Roman';-inkscape-font-specification:NimbusRomNo9L-Regu;writing-mode:lr-tb;fill:#000000;fill-opacity:1;fill-rule:nonzero;stroke:none"
           transform="matrix(0.98,0,0,-1,108,166.062)"><tspan
             id="tspan244"
             y="0"
             x="0 4.4233942 9.4046946 13.828089 16.597692 19.367294 23.790689 28.771988 33.753288 36.522892 41.504192 48.926327 51.69593 59.118069 64.099365 68.522766 73.504066 78.485359 82.90876 86.226303 90.649696 93.967247 99.167717 101.93732 106.91862 113.78285 118.05681 123.03811 127.4615 131.8849 137.09534 140.41289 145.39418 150.37549 154.79887 157.56848 160.33809 165.31938 172.74152 177.72282 182.70412 189.5584 193.43384 198.41515 203.39644 208.37775 211.14734 218.56949 223.55078 230.41501 235.39632 240.37761 243.14722 245.91682 253.66772 256.43732 260.86072 265.28412 272.70624 275.47586 282.89798 287.8793 294.73355 301.59778 306.5791 311.56039 316.54169 323.96384 328.94513 332.26266 334.7832 339.6051 344.0285 346.78815 352.39709 358.48422 363.46555 370.32977 374.20523 376.97482 381.39822 386.37952 391.36081 395.78421 399.10175">challengingtohandcrafttheexactfunctiononeshouldbeoptimizedtobeagooddriver.Thestandard</tspan></text>
<text
           id="text250"
           style="font-variant:normal;font-size:10.16184998px;font-family:'Nimbus Roman';-inkscape-font-specification:NimbusRomNo9L-Regu;writing-mode:lr-tb;fill:#000000;fill-opacity:1;fill-rule:nonzero;stroke:none"
           transform="matrix(1,0,0,-0.98039235,108,155.153)"><tspan
             id="tspan248"
             y="0"
             x="0 3.9529595 9.033885 11.858879 16.939804 19.764799 22.589792 27.670717 35.505505 38.330498 46.165283 48.99028 54.071205 56.896198 63.60302 67.555977 72.636902 76.020798 81.599655 86.68058 92.818336 97.3302 100.7141 104.97191 112.20715 116.71901 120.10291 127.93769 133.01862 137.53047 141.48344 144.30843 149.38936 154.47028 161.37018 166.4511 169.83499 174.91592 179.99684 182.82184 187.33371 197.99348 200.81848 207.5253 210.3503 218.18507 221.01007 226.091 230.04396 232.86896 237.38081 241.89268 249.72746 254.8084 259.32025 267.22617 272.3071 277.38803 281.34097 284.16599 287.54987 292.06174 294.88672 302.15244 304.97745 310.05838 317.3241 322.40503 326.91687 330.86984 333.69482 337.07874 341.59058 349.42538 354.50629 359.01816 364.09909 368.40771 373.48865 376.31363 381.39456 387.53232 392.61325">solutiontothissortof“rewarddesign&quot;problemistoinsteaddemonstratethedesiredbehaviorof</tspan></text>
<text
           id="text254"
           style="font-variant:normal;font-size:10.16184998px;font-family:'Nimbus Roman';-inkscape-font-specification:NimbusRomNo9L-Regu;writing-mode:lr-tb;fill:#000000;fill-opacity:1;fill-rule:nonzero;stroke:none"
           transform="matrix(1,0,0,-0.98039235,108,144.244)"><tspan
             id="tspan252"
             y="0"
             x="0 2.8249943 7.9059191 15.54763 20.059492 25.140417 29.652279 34.733204 40.677887 45.189747 50.270672 58.481445 61.306442 66.387367 70.899231 79.099838 83.459274 88.540199 91.365196 94.749092 99.260948 103.77281 109.72765 117.35921 120.7431 125.01108 132.24632 136.75818 140.14207 148.35284 151.73674 156.81767 161.89859 166.41046 169.23544 172.06044 177.14137 185.34198 188.16698 193.24789 197.75977 203.7146 210.94984 216.03076 221.11169 223.93669 232.1373 234.9623 240.04323 244.55508 249.06694 254.14787 256.97287 259.55399 264.63489 267.4599 271.97174 279.6033 283.55627 288.63718 293.14905 301.35983 306.44073 310.95261 316.03354 320.34216 325.4231 328.24808 333.32901 336.16415 343.70425 349.35425 354.43518 358.94702">theagentandthenextractarewardfunctionthatwouldincentivizesuchbehavior.Such</tspan></text>
<text
           id="text258"
           style="font-variant:normal;font-size:10.16184998px;font-family:'Nimbus Roman';-inkscape-font-specification:NimbusRomNo9L-ReguItal;writing-mode:lr-tb;fill:#000000;fill-opacity:1;fill-rule:nonzero;stroke:none"
           transform="matrix(1,0,0,-0.98039235,475.151,144.244)"><tspan
             id="tspan256"
             y="0"
             x="0 2.8249943 7.5096073 12.021468 16.533329 20.38467 24.337631">inverse</tspan></text>
<text
           id="text262"
           style="font-variant:normal;font-size:9.96259975px;font-family:'Nimbus Roman';-inkscape-font-specification:NimbusRomNo9L-ReguItal;writing-mode:lr-tb;fill:#000000;fill-opacity:1;fill-rule:nonzero;stroke:none"
           transform="matrix(0.98,0,0,-1,108,133.335)"><tspan
             id="tspan260"
             y="0"
             x="0 3.4968727 7.9202671 10.68987 15.67117 18.440773 23.422073 26.918945 31.34234 35.765736 42.958733 47.382126 52.363426 57.504128 60.273731 64.697121 69.678421 73.553879 78.535179 81.304779 86.286079">reinforcementlearning</tspan></text>
<text
           id="text266"
           style="font-variant:normal;font-size:9.96259975px;font-family:'Nimbus Roman';-inkscape-font-specification:NimbusRomNo9L-Regu;writing-mode:lr-tb;fill:#000000;fill-opacity:1;fill-rule:nonzero;stroke:none"
           transform="matrix(0.98,0,0,-1,199.754,133.335)"><tspan
             id="tspan264"
             y="0"
             x="0 3.3175459 6.6350918 13.280146 19.367294 25.045977 27.815578 32.238972 36.662369 41.643669 46.624969 49.394569 54.37587 59.35717 63.780563 70.017151 74.998451 79.222595 84.054459 90.838989 94.156532 99.137833 104.11913 109.10043 116.44287 120.86626 125.84756 130.82886 133.59846 136.36807 140.79146 145.21486 147.98447 150.75406 155.73537 163.0778 165.8474 173.1998 178.73901 183.1624 185.93201 190.9133 197.14989 201.57329 207.80988 212.79117 215.30174 220.13361 224.55701 227.87454 231.75 238.53453 242.95793 249.20448 252.52202 257.50333 262.48462 267.46591 270.23553 273.00513 277.42853 283.6651">(IRL)techniqueshavefoundapplicationinfeldsasdiverseasrobotics[</tspan></text>
<text
           id="text270"
           style="font-variant:normal;font-size:9.96259975px;font-family:'Nimbus Roman';-inkscape-font-specification:NimbusRomNo9L-Regu;writing-mode:lr-tb;fill:#4072af;fill-opacity:1;fill-rule:nonzero;stroke:none"
           transform="matrix(0.98,0,0,-1,480.997,133.335)"><tspan
             id="tspan268"
             y="0"
             x="0 5.5392056 8.3088083 11.078411 15.90031 20.323704">Silver</tspan></text>
<text
           id="text274"
           style="font-variant:normal;font-size:10.16184998px;font-family:'Nimbus Roman';-inkscape-font-specification:NimbusRomNo9L-Regu;writing-mode:lr-tb;fill:#4072af;fill-opacity:1;fill-rule:nonzero;stroke:none"
           transform="matrix(1,0,0,-0.98039235,108,122.426)"><tspan
             id="tspan272"
             y="0"
             x="0 4.5118613 9.8773184 14.389179 17.214174">etal.</tspan></text>
<text
           id="text278"
           style="font-variant:normal;font-size:10.16184998px;font-family:'Nimbus Roman';-inkscape-font-specification:NimbusRomNo9L-Regu;writing-mode:lr-tb;fill:#000000;fill-opacity:1;fill-rule:nonzero;stroke:none"
           transform="matrix(1,0,0,-0.98039235,127.7546,122.426)"><tspan
             id="tspan276"
             y="0"
             x="0">,</tspan></text>
<text
           id="text282"
           style="font-variant:normal;font-size:10.16184998px;font-family:'Nimbus Roman';-inkscape-font-specification:NimbusRomNo9L-Regu;writing-mode:lr-tb;fill:#4072af;fill-opacity:1;fill-rule:nonzero;stroke:none"
           transform="matrix(1,0,0,-0.98039235,132.8356,122.426)"><tspan
             id="tspan280"
             y="0"
             x="0 5.080925 10.16185 15.242775">2010</tspan></text>
<text
           id="text286"
           style="font-variant:normal;font-size:10.16184998px;font-family:'Nimbus Roman';-inkscape-font-specification:NimbusRomNo9L-Regu;writing-mode:lr-tb;fill:#000000;fill-opacity:1;fill-rule:nonzero;stroke:none"
           transform="matrix(1,0,0,-0.98039235,153.1593,122.426)"><tspan
             id="tspan284"
             y="0"
             x="0">,</tspan></text>
<text
           id="text290"
           style="font-variant:normal;font-size:10.16184998px;font-family:'Nimbus Roman';-inkscape-font-specification:NimbusRomNo9L-Regu;writing-mode:lr-tb;fill:#4072af;fill-opacity:1;fill-rule:nonzero;stroke:none"
           transform="matrix(1,0,0,-0.98039235,158.2504,122.426)"><tspan
             id="tspan288"
             y="0"
             x="0 6.7779541 11.289815 14.11481 16.939804 19.764799 22.894648 28.819006 33.330868 38.696323 43.208187 46.03318">Ratliffetal.</tspan></text>
<text
           id="text294"
           style="font-variant:normal;font-size:10.16184998px;font-family:'Nimbus Roman';-inkscape-font-specification:NimbusRomNo9L-Regu;writing-mode:lr-tb;fill:#000000;fill-opacity:1;fill-rule:nonzero;stroke:none"
           transform="matrix(1,0,0,-0.98039235,206.824,122.426)"><tspan
             id="tspan292"
             y="0"
             x="0">,</tspan></text>
<text
           id="text298"
           style="font-variant:normal;font-size:10.16184998px;font-family:'Nimbus Roman';-inkscape-font-specification:NimbusRomNo9L-Regu;writing-mode:lr-tb;fill:#4072af;fill-opacity:1;fill-rule:nonzero;stroke:none"
           transform="matrix(1,0,0,-0.98039235,211.9049,122.426)"><tspan
             id="tspan296"
             y="0"
             x="0 5.080925 10.16185 15.242775">2009</tspan></text>
<text
           id="text302"
           style="font-variant:normal;font-size:10.16184998px;font-family:'Nimbus Roman';-inkscape-font-specification:NimbusRomNo9L-Regu;writing-mode:lr-tb;fill:#000000;fill-opacity:1;fill-rule:nonzero;stroke:none"
           transform="matrix(1,0,0,-0.98039235,232.2286,122.426)"><tspan
             id="tspan300"
             y="0"
             x="0">,</tspan></text>
<text
           id="text306"
           style="font-variant:normal;font-size:10.16184998px;font-family:'Nimbus Roman';-inkscape-font-specification:NimbusRomNo9L-Regu;writing-mode:lr-tb;fill:#4072af;fill-opacity:1;fill-rule:nonzero;stroke:none"
           transform="matrix(1,0,0,-0.98039235,237.3096,122.426)"><tspan
             id="tspan304"
             y="0"
             x="0 6.991353 12.072278 14.897272 17.722267 22.234127 28.158485 32.670349 38.035805 42.547665 45.372662">Kolteretal.</tspan></text>
<text
           id="text310"
           style="font-variant:normal;font-size:10.16184998px;font-family:'Nimbus Roman';-inkscape-font-specification:NimbusRomNo9L-Regu;writing-mode:lr-tb;fill:#000000;fill-opacity:1;fill-rule:nonzero;stroke:none"
           transform="matrix(1,0,0,-0.98039235,285.2227,122.426)"><tspan
             id="tspan308"
             y="0"
             x="0">,</tspan></text>
<text
           id="text314"
           style="font-variant:normal;font-size:10.16184998px;font-family:'Nimbus Roman';-inkscape-font-specification:NimbusRomNo9L-Regu;writing-mode:lr-tb;fill:#4072af;fill-opacity:1;fill-rule:nonzero;stroke:none"
           transform="matrix(1,0,0,-0.98039235,290.3138,122.426)"><tspan
             id="tspan312"
             y="0"
             x="0 5.080925 10.16185 15.242775">2008</tspan></text>
<text
           id="text318"
           style="font-variant:normal;font-size:10.16184998px;font-family:'Nimbus Roman';-inkscape-font-specification:NimbusRomNo9L-Regu;writing-mode:lr-tb;fill:#000000;fill-opacity:1;fill-rule:nonzero;stroke:none"
           transform="matrix(1,0,0,-0.98039235,310.6375,122.426)"><tspan
             id="tspan316"
             y="0"
             x="0">,</tspan></text>
<text
           id="text322"
           style="font-variant:normal;font-size:10.16184998px;font-family:'Nimbus Roman';-inkscape-font-specification:NimbusRomNo9L-Regu;writing-mode:lr-tb;fill:#4072af;fill-opacity:1;fill-rule:nonzero;stroke:none"
           transform="matrix(1,0,0,-0.98039235,315.7184,122.426)"><tspan
             id="tspan320"
             y="0"
             x="0 7.3368559 14.958243 19.470104 24.835562 29.347424 32.172417">Ngetal.</tspan></text>
<text
           id="text326"
           style="font-variant:normal;font-size:10.16184998px;font-family:'Nimbus Roman';-inkscape-font-specification:NimbusRomNo9L-Regu;writing-mode:lr-tb;fill:#000000;fill-opacity:1;fill-rule:nonzero;stroke:none"
           transform="matrix(1,0,0,-0.98039235,350.4313,122.426)"><tspan
             id="tspan324"
             y="0"
             x="0">,</tspan></text>
<text
           id="text330"
           style="font-variant:normal;font-size:10.16184998px;font-family:'Nimbus Roman';-inkscape-font-specification:NimbusRomNo9L-Regu;writing-mode:lr-tb;fill:#4072af;fill-opacity:1;fill-rule:nonzero;stroke:none"
           transform="matrix(1,0,0,-0.98039235,355.5122,122.426)"><tspan
             id="tspan328"
             y="0"
             x="0 5.080925 10.16185 15.242775">2006</tspan></text>
<text
           id="text334"
           style="font-variant:normal;font-size:10.16184998px;font-family:'Nimbus Roman';-inkscape-font-specification:NimbusRomNo9L-Regu;writing-mode:lr-tb;fill:#000000;fill-opacity:1;fill-rule:nonzero;stroke:none"
           transform="matrix(1,0,0,-0.98039235,375.8359,122.426)"><tspan
             id="tspan332"
             y="0"
             x="0">,</tspan></text>
<text
           id="text338"
           style="font-variant:normal;font-size:10.16184998px;font-family:'Nimbus Roman';-inkscape-font-specification:NimbusRomNo9L-Regu;writing-mode:lr-tb;fill:#4072af;fill-opacity:1;fill-rule:nonzero;stroke:none"
           transform="matrix(1,0,0,-0.98039235,380.927,122.426)"><tspan
             id="tspan336"
             y="0"
             x="0 6.2088904 11.289815 15.801677 20.780983 25.292845 31.217203 35.729065 41.094521 45.606384 48.431377">Zuckeretal.</tspan></text>
<text
           id="text342"
           style="font-variant:normal;font-size:10.16184998px;font-family:'Nimbus Roman';-inkscape-font-specification:NimbusRomNo9L-Regu;writing-mode:lr-tb;fill:#000000;fill-opacity:1;fill-rule:nonzero;stroke:none"
           transform="matrix(1,0,0,-0.98039235,431.8989,122.426)"><tspan
             id="tspan340"
             y="0"
             x="0">,</tspan></text>
<text
           id="text346"
           style="font-variant:normal;font-size:10.16184998px;font-family:'Nimbus Roman';-inkscape-font-specification:NimbusRomNo9L-Regu;writing-mode:lr-tb;fill:#4072af;fill-opacity:1;fill-rule:nonzero;stroke:none"
           transform="matrix(1,0,0,-0.98039235,436.9798,122.426)"><tspan
             id="tspan344"
             y="0"
             x="0 5.080925 10.16185 15.242775">2011</tspan></text>
<text
           id="text350"
           style="font-variant:normal;font-size:10.16184998px;font-family:'Nimbus Roman';-inkscape-font-specification:NimbusRomNo9L-Regu;writing-mode:lr-tb;fill:#000000;fill-opacity:1;fill-rule:nonzero;stroke:none"
           transform="matrix(1,0,0,-0.98039235,457.3035,122.426)"><tspan
             id="tspan348"
             y="0"
             x="0 3.3838961 8.4851446 12.997006 18.07793 25.98385 31.064775 36.145699 38.970695 43.482555">],computer</tspan></text>
<text
           id="text354"
           style="font-variant:normal;font-size:10.16184998px;font-family:'Nimbus Roman';-inkscape-font-specification:NimbusRomNo9L-Regu;writing-mode:lr-tb;fill:#000000;fill-opacity:1;fill-rule:nonzero;stroke:none"
           transform="matrix(1,0,0,-0.98039235,107.751,111.517)"><tspan
             id="tspan352"
             y="0"
             x="0 5.080925 7.9059191 11.858879 14.683873 19.764799 27.660555">vision[</tspan></text>
<text
           id="text358"
           style="font-variant:normal;font-size:10.16184998px;font-family:'Nimbus Roman';-inkscape-font-specification:NimbusRomNo9L-Regu;writing-mode:lr-tb;fill:#4072af;fill-opacity:1;fill-rule:nonzero;stroke:none"
           transform="matrix(1,0,0,-0.98039235,138.7955,111.517)"><tspan
             id="tspan356"
             y="0"
             x="0 7.3368559 10.16185 12.986844 17.498705 22.57963 28.219458 32.731319 38.371147 42.883007 45.708">Kitanietal.</tspan></text>
<text
           id="text362"
           style="font-variant:normal;font-size:10.16184998px;font-family:'Nimbus Roman';-inkscape-font-specification:NimbusRomNo9L-Regu;writing-mode:lr-tb;fill:#000000;fill-opacity:1;fill-rule:nonzero;stroke:none"
           transform="matrix(1,0,0,-0.98039235,187.0439,111.517)"><tspan
             id="tspan360"
             y="0"
             x="0">,</tspan></text>
<text
           id="text366"
           style="font-variant:normal;font-size:10.16184998px;font-family:'Nimbus Roman';-inkscape-font-specification:NimbusRomNo9L-Regu;writing-mode:lr-tb;fill:#4072af;fill-opacity:1;fill-rule:nonzero;stroke:none"
           transform="matrix(1,0,0,-0.98039235,192.3992,111.517)"><tspan
             id="tspan364"
             y="0"
             x="0 5.080925 10.16185 15.242775">2012</tspan></text>
<text
           id="text370"
           style="font-variant:normal;font-size:10.16184998px;font-family:'Nimbus Roman';-inkscape-font-specification:NimbusRomNo9L-Regu;writing-mode:lr-tb;fill:#000000;fill-opacity:1;fill-rule:nonzero;stroke:none"
           transform="matrix(1,0,0,-0.98039235,212.7229,111.517)"><tspan
             id="tspan368"
             y="0"
             x="0 3.3838961 8.8204861 13.332347 18.413273 26.319191 31.400116 36.481041 44.386959 48.88866 53.969585 57.353481 61.865341 66.946266 74.852188 79.933113 85.014038 87.839035 92.350891 98.559784 101.38478 106.46571 109.2907 113.80256 117.18645 121.69832 126.21017 129.03517 131.86017 136.94109 144.83685">],andhuman-computerinteraction[</tspan></text>
<text
           id="text374"
           style="font-variant:normal;font-size:10.16184998px;font-family:'Nimbus Roman';-inkscape-font-specification:NimbusRomNo9L-Regu;writing-mode:lr-tb;fill:#4072af;fill-opacity:1;fill-rule:nonzero;stroke:none"
           transform="matrix(1,0,0,-0.98039235,360.9437,111.517)"><tspan
             id="tspan372"
             y="0"
             x="0 6.2088904 9.033885 13.545746 18.626671 23.138533 26.522429 32.162254 36.674118 42.313942 46.825806 49.650799">Ziebartetal.</tspan></text>
<text
           id="text378"
           style="font-variant:normal;font-size:10.16184998px;font-family:'Nimbus Roman';-inkscape-font-specification:NimbusRomNo9L-Regu;writing-mode:lr-tb;fill:#000000;fill-opacity:1;fill-rule:nonzero;stroke:none"
           transform="matrix(1,0,0,-0.98039235,413.135,111.517)"><tspan
             id="tspan376"
             y="0"
             x="0">,</tspan></text>
<text
           id="text382"
           style="font-variant:normal;font-size:10.16184998px;font-family:'Nimbus Roman';-inkscape-font-specification:NimbusRomNo9L-Regu;writing-mode:lr-tb;fill:#4072af;fill-opacity:1;fill-rule:nonzero;stroke:none"
           transform="matrix(1,0,0,-0.98039235,418.4903,111.517)"><tspan
             id="tspan380"
             y="0"
             x="0 5.080925 10.16185 15.242775 20.3237">2008b</tspan></text>
<text
           id="text386"
           style="font-variant:normal;font-size:10.16184998px;font-family:'Nimbus Roman';-inkscape-font-specification:NimbusRomNo9L-Regu;writing-mode:lr-tb;fill:#000000;fill-opacity:1;fill-rule:nonzero;stroke:none"
           transform="matrix(1,0,0,-0.98039235,443.8949,111.517)"><tspan
             id="tspan384"
             y="0"
             x="0">,</tspan></text>
<text
           id="text390"
           style="font-variant:normal;font-size:10.16184998px;font-family:'Nimbus Roman';-inkscape-font-specification:NimbusRomNo9L-Regu;writing-mode:lr-tb;fill:#4072af;fill-opacity:1;fill-rule:nonzero;stroke:none"
           transform="matrix(1,0,0,-0.98039235,449.2502,111.517)"><tspan
             id="tspan388"
             y="0"
             x="0 5.080925 10.16185 15.242775">2012</tspan></text>
<text
           id="text394"
           style="font-variant:normal;font-size:10.16184998px;font-family:'Nimbus Roman';-inkscape-font-specification:NimbusRomNo9L-Regu;writing-mode:lr-tb;fill:#000000;fill-opacity:1;fill-rule:nonzero;stroke:none"
           transform="matrix(1,0,0,-0.98039235,469.5739,111.517)"><tspan
             id="tspan392"
             y="0"
             x="0 3.3838961 9.9890985 17.325954 19.896902 24.835562 29.347424">].Given</tspan></text>
<text
           id="text398"
           style="font-variant:normal;font-size:10.00244999px;font-family:'Nimbus Roman';-inkscape-font-specification:NimbusRomNo9L-Regu;writing-mode:lr-tb;fill:#000000;fill-opacity:1;fill-rule:nonzero;stroke:none"
           transform="matrix(1,0,0,-0.99601598,108,100.607)"><tspan
             id="tspan396"
             y="0"
             x="0 2.7806811 7.7819061 14.723606 18.614559 23.615784 28.056871 32.497959 36.939049 40.830002 47.211563 52.212788 58.044216 61.375034 68.046669 76.648773 79.429459 83.870544 88.31163 93.312859 98.314079 101.09476 106.09599 111.09721 115.5383 121.92986 126.37096 131.37218 138.86401 141.6447 146.64592 153.58762 157.47858 160.25925 168.04115 170.82184 173.60252 178.04361 181.37442 184.15511 186.93579 194.43762 199.43886 203.87994 206.66061 213.88239 218.32347 222.75456 230.25639 233.58722 237.77824 244.89998 249.34108 252.67189 260.17374 264.61481 269.61603 277.10788 281.54895 286.5502 291.55142 295.44235 298.22305 301.55386 305.99496 308.77563 313.77686 319.05814 324.05939 328.50046 332.39142 335.17209 340.17331 345.17456 350.17578 357.39755 364.32922 369.33047 372.66129 377.66251 382.66373 387.66495 391.55591">thesuccessofIRLtechniquesandthesimilaritybetweenrewardandconstraintdesign,wepropose</tspan></text>
<g
           transform="translate(108,91.112)"
           id="g400"><path
             id="path402"
             style="fill:none;stroke:#000000;stroke-width:0.398;stroke-linecap:butt;stroke-linejoin:miter;stroke-miterlimit:10;stroke-dasharray:none;stroke-opacity:1"
             d="M 0,0 H 143.462" /></g><text
           id="text406"
           style="font-variant:normal;font-weight:normal;font-size:5.9776001px;font-family:CMSY6;-inkscape-font-specification:CMSY6;writing-mode:lr-tb;fill:#000000;fill-opacity:1;fill-rule:nonzero;stroke:none"
           transform="matrix(1,0,0,-1,119.822,85.506)"><tspan
             id="tspan404"
             y="0"
             x="0">⇤</tspan></text>
<text
           id="text410"
           style="font-variant:normal;font-size:8.96640015px;font-family:'Nimbus Roman';-inkscape-font-specification:NimbusRomNo9L-Regu;writing-mode:lr-tb;fill:#000000;fill-opacity:1;fill-rule:nonzero;stroke:none"
           transform="matrix(1,0,0,-1,124.139,81.697)"><tspan
             id="tspan408"
             y="0"
             x="0 5.4784703 9.9616709 14.44487 18.425953 23.160212 27.141293 31.624493 36.107693 38.600353 41.586163 44.078823 48.382694 52.865894 55.358555 57.851212 62.334412 66.817612 71.838799 77.819389 82.302582 85.288399 88.274208 92.255287 95.743217 100.22642 104.70962 109.19282 113.67602 117.6571 122.1403 126.12138 132.34407 134.83672">Equalcontribution.Correspondenceto</tspan></text>
<text
           id="text414"
           style="font-variant:normal;font-weight:normal;font-size:8.96640015px;font-family:SFTT0900;-inkscape-font-specification:SFTT0900;writing-mode:lr-tb;fill:#000000;fill-opacity:1;fill-rule:nonzero;stroke:none"
           transform="matrix(1,0,0,-1,265.699,81.697)"><tspan
             id="tspan412"
             y="0"
             x="0 4.7064633 9.4129267 14.11939 18.825853 23.532316 28.238781 32.945244 37.651707 42.35817 47.064632 51.771095 56.477562 61.184025">gswamy@cmu.edu</tspan></text>
<text
           id="text418"
           style="font-variant:normal;font-size:8.96640015px;font-family:'Nimbus Roman';-inkscape-font-specification:NimbusRomNo9L-Regu;writing-mode:lr-tb;fill:#000000;fill-opacity:1;fill-rule:nonzero;stroke:none"
           transform="matrix(1,0,0,-1,331.586,81.697)"><tspan
             id="tspan416"
             y="0"
             x="0">.</tspan></text>
<text
           id="text422"
           style="font-variant:normal;font-size:8.96640015px;font-family:'Nimbus Roman';-inkscape-font-specification:NimbusRomNo9L-Regu;writing-mode:lr-tb;fill:#000000;fill-opacity:1;fill-rule:nonzero;stroke:none"
           transform="matrix(1,0,0,-1,108,52.123)"><tspan
             id="tspan420"
             y="0"
             x="0 4.4832001 8.9664001 11.459059 18.183859 24.164448 28.647648 33.130848 36.116661 40.09774 43.083553 47.064632 51.547832 55.528915 61.751598 66.234795 72.959595 79.433334 83.414421 87.897621 90.88343 94.86451 99.59877 102.58458 107.06778 110.0536 114.5368 117.52261 124.49847 128.47955 130.9722 133.46486 137.94806 144.67287 149.65819 152.644 157.1272 161.10828 165.08936 168.57729 172.06522 174.55788 179.04108 185.76587 190.75119 195.23439 198.72232 201.21498 205.19606 212.17192 217.90146 220.88727 227.36101 231.34209 235.82529 238.8111 241.79691 246.78223 254.00914 258.49234 262.97556 267.45874 271.94196 274.92776">37thConferenceonNeuralInformationProcessingSystems(NeurIPS2023).</tspan></text>
</g></g></g></svg>