<?xml version="1.0" encoding="UTF-8" standalone="no"?>
<!DOCTYPE svg PUBLIC "-//W3C//DTD SVG 1.1//EN" "http://www.w3.org/Graphics/SVG/1.1/DTD/svg11.dtd">
<svg xmlns="http://www.w3.org/2000/svg" xmlns:xlink="http://www.w3.org/1999/xlink" version="1.1" width="980.6872pt" height="660.54757pt" viewBox="0 0 980.6872 660.54757">
<g enable-background="new">
<path transform="matrix(2.7777777,0,0,-2.7777777,0,660.54757)" d="M 0 0 L 353.0474 0 L 353.0474 237.79714 L 0 237.79714 Z " fill="#ffffff"/>
<path transform="matrix(2.7777777,0,0,-2.7777777,0,660.54757)" d="M 66.84739 46.30171 L 345.84739 46.30171 L 345.84739 212.6217 L 66.84739 212.6217 Z " fill="#ffffff"/>
<path transform="matrix(2.7777777,0,0,-2.7777777,0,660.54757)" stroke-width="1.25" stroke-linecap="butt" stroke-linejoin="round" fill="none" stroke="#333333" d="M 79.529209 46.30171 L 79.529209 52.30171 "/>
<symbol id="font_0_d4">
<path d="M .23400001 .709 C .079 .709 0 .586 0 .344 C 0 .22700002 .021 .126 .056 .07700001 C .091000009 .028 .14700002 0 .209 0 C .36 0 .43600003 .13000001 .43600003 .38600005 C .43600003 .605 .371 .709 .23400001 .709 M .216 .674 C .313 .674 .352 .57600006 .352 .33600004 C .352 .12300001 .314 .035000005 .22200002 .035000005 C .12500002 .035000005 .08400001 .136 .08400001 .38000003 C .08400001 .591 .12100001 .674 .216 .674 Z "/>
</symbol>
<use xlink:href="#font_0_d4" transform="matrix(41.510999,0,0,-41.510999,211.74051,572.1851)" fill="#333333"/>
<path transform="matrix(2.7777777,0,0,-2.7777777,0,660.54757)" stroke-width="1.25" stroke-linecap="butt" stroke-linejoin="round" fill="none" stroke="#333333" d="M 135.89284 46.30171 L 135.89284 52.30171 "/>
<symbol id="font_0_cc">
<path d="M 0 .026000003 L 0 0 C .187 .003 .187 .003 .223 .003 C .259 .003 .259 .003 .45200003 0 C .45000003 .021000002 .45000003 .031000002 .45000003 .045 C .45000003 .058000003 .45000003 .068 .45200003 .09 C .337 .085 .291 .084 .106000009 .080000009 L .28800003 .273 C .38500003 .37600003 .41500003 .43100003 .41500003 .50600007 C .41500003 .62100008 .337 .69200006 .21000001 .69200006 C .13800001 .69200006 .089 .67200008 .04 .62200006 L .023 .486 L .052 .486 L .065 .53200009 C .081 .59000006 .117 .61500009 .184 .61500009 C .27 .61500009 .32500003 .56100007 .32500003 .476 C .32500003 .40100003 .28300003 .327 .17 .20700002 L 0 .026000003 Z "/>
</symbol>
<use xlink:href="#font_0_cc" transform="matrix(41.510999,0,0,-41.510999,367.76658,571.47946)" fill="#333333"/>
<path transform="matrix(2.7777777,0,0,-2.7777777,0,660.54757)" stroke-width="1.25" stroke-linecap="butt" stroke-linejoin="round" fill="none" stroke="#333333" d="M 192.25649 46.30171 L 192.25649 52.30171 "/>
<symbol id="font_0_ce">
<path d="M .278 .18400002 L .278 .109000008 C .278 .049000004 .26700003 .035 .21800001 .033 L .156 .030000002 L .156 0 C .289 .003 .289 .003 .31300003 .003 C .337 .003 .337 .003 .47000004 0 L .47000004 .030000002 L .42200003 .033 C .37300004 .036 .36200003 .049000004 .36200003 .109000008 L .36200003 .18400002 C .421 .18400002 .44200004 .18300002 .47000004 .18 L .47000004 .25100003 C .423 .24700003 .404 .24700003 .38900004 .24800001 L .386 .24800001 L .36200003 .24800001 L .36200003 .387 C .36200003 .56500008 .36400003 .651 .36900003 .69200006 L .35700003 .697 L .28300003 .6700001 L 0 .20700002 L .011 .18400002 L .278 .18400002 M .278 .24800001 L .06300001 .24800001 L .278 .6 L .278 .24800001 Z "/>
</symbol>
<use xlink:href="#font_0_ce" transform="matrix(41.510999,0,0,-41.510999,523.75106,571.47946)" fill="#333333"/>
<path transform="matrix(2.7777777,0,0,-2.7777777,0,660.54757)" stroke-width="1.25" stroke-linecap="butt" stroke-linejoin="round" fill="none" stroke="#333333" d="M 248.62012 46.30171 L 248.62012 52.30171 "/>
<symbol id="font_0_d0">
<path d="M .384 .69200006 L .347 .709 C .25100003 .677 .21000001 .657 .15900001 .61300006 C .056000007 .526 0 .404 0 .26700003 C 0 .102000009 .08 0 .209 0 C .33900003 0 .43600003 .10300001 .43600003 .23900001 C .43600003 .35400004 .367 .42900003 .261 .42900003 C .21100001 .42900003 .18100001 .41600005 .12200001 .36900003 C .111 .36 .11 .35900004 .09900001 .35100005 C .120000008 .532 .20400001 .63 .384 .684 L .384 .69200006 M .22300002 .36900003 C .29900003 .36900003 .35000003 .30300004 .35000003 .20400001 C .35000003 .10000001 .29900003 .033 .222 .033 C .13700001 .033 .091000009 .106000009 .091000009 .24000001 C .091000009 .27500005 .095 .29400004 .106000009 .31100003 C .128 .34500004 .17500001 .36900003 .22300002 .36900003 Z "/>
</symbol>
<use xlink:href="#font_0_d0" transform="matrix(41.510999,0,0,-41.510999,681.562,572.1851)" fill="#333333"/>
<path transform="matrix(2.7777777,0,0,-2.7777777,0,660.54757)" stroke-width="1.25" stroke-linecap="butt" stroke-linejoin="round" fill="none" stroke="#333333" d="M 304.98377 46.30171 L 304.98377 52.30171 "/>
<symbol id="font_0_d2">
<path d="M .13800001 .36500005 C .097 .34600003 .080000009 .33500005 .058000007 .314 C .02 .27600003 0 .231 0 .179 C 0 .076000008 .083000008 0 .19600001 0 C .326 0 .43400003 .102000009 .43400003 .22600001 C .43400003 .30600003 .397 .34900005 .28300003 .40100003 C .374 .46300004 .40600003 .505 .40600003 .565 C .40600003 .651 .335 .709 .229 .709 C .11 .709 .023000002 .633 .023000002 .528 C .023000002 .46000005 .050000006 .42200003 .13800001 .36500005 M .254 .31500004 C .317 .28700004 .35500003 .238 .35500003 .184 C .35500003 .10000001 .29200004 .034 .21100001 .034 C .126 .034 .071 .094000007 .071 .187 C .071 .26000003 .10000001 .30600003 .17400001 .35100005 L .254 .31500004 M .193 .44300003 C .13000001 .47400005 .098000008 .514 .098000008 .564 C .098000008 .63 .14600002 .675 .21700001 .675 C .29000003 .675 .33800004 .62700006 .33800004 .554 C .33800004 .49700005 .31300003 .45800004 .24800003 .41600005 L .193 .44300003 Z "/>
</symbol>
<use xlink:href="#font_0_d2" transform="matrix(41.510999,0,0,-41.510999,838.0446,572.1851)" fill="#333333"/>
<symbol id="font_1_4b">
<path d="M .20700002 .55300006 L .30900003 .55300006 C .323 .55300006 .349 .55300006 .349 .582 C .349 .611 .323 .611 .30900003 .611 L .04 .611 C .026 .611 0 .611 0 .582 C 0 .55300006 .026 .55300006 .04 .55300006 L .142 .55300006 L .142 .058000003 L .04 .058000003 C .026 .058000003 0 .058000003 0 .029000001 C 0 0 .026 0 .04 0 L .30900003 0 C .323 0 .349 0 .349 .029000001 C .349 .058000003 .323 .058000003 .30900003 .058000003 L .20700002 .058000003 L .20700002 .55300006 Z "/>
</symbol>
<symbol id="font_1_45">
<path d="M .43400005 .59700009 C .43400005 .61300006 .43400005 .63500007 .40600003 .63500007 C .38800005 .63500007 .38300003 .6240001 .37900005 .61700007 C .37600003 .609 .36800004 .5910001 .36500005 .58400008 C .32400004 .62000009 .27800004 .63500007 .23600002 .63500007 C .10699999 .63500007 0 .497 0 .31800003 C 0 .135 .11 0 .23600002 0 C .35300002 0 .43400005 .093 .43400005 .18100001 C .43400005 .212 .41300003 .212 .40100003 .212 C .38700003 .212 .37100003 .207 .36900003 .19 C .36100004 .065000008 .26000003 .058000007 .24300002 .058000007 C .15 .058000007 .065 .167 .065 .31800003 C .065 .469 .15100001 .577 .242 .577 C .29600004 .577 .35500003 .53400006 .36900003 .442 C .37200005 .42000003 .38100005 .414 .40100003 .414 C .43400005 .414 .43400005 .432 .43400005 .45200003 L .43400005 .59700009 Z "/>
</symbol>
<symbol id="font_1_4e">
<path d="M .139 .55300006 L .19100002 .55300006 C .20500002 .55300006 .231 .55300006 .231 .582 C .231 .611 .20500002 .611 .19100002 .611 L .041 .611 C .027000003 .611 0 .611 0 .582 C 0 .55300006 .027000003 .55300006 .041 .55300006 L .074 .55300006 L .074 .058000003 L .041 .058000003 C .027000003 .058000003 0 .058000003 0 .029000001 C 0 0 .027000003 0 .041 0 L .405 0 C .43800003 0 .44500003 .009000001 .44500003 .041 L .44500003 .123 C .44500003 .14 .44500003 .163 .41300003 .163 C .38000003 .163 .38000003 .141 .38000003 .123 L .38000003 .058000003 L .139 .058000003 L .139 .55300006 Z "/>
</symbol>
<use xlink:href="#font_1_4b" transform="matrix(46.492326,0,0,-46.492326,447.43254,627.437)" fill="#333333"/>
<use xlink:href="#font_1_45" transform="matrix(46.492326,0,0,-46.492326,469.33039,627.99496)" fill="#333333"/>
<use xlink:href="#font_1_4e" transform="matrix(46.492326,0,0,-46.492326,492.9485,627.437)" fill="#333333"/>
<symbol id="font_0_8d">
<path d="M .194 .572 C .194 .651 .19900002 .65900006 .24500002 .66200008 L .293 .6650001 L .293 .69500008 C .22000002 .69200006 .19800002 .69200006 .14600002 .69200006 C .09600001 .69200006 .072000008 .6930001 0 .69500008 L 0 .6650001 L .048 .66200008 C .094000007 .65900006 .09900001 .651 .09900001 .572 L .09900001 .123 C .09900001 .044 .094000007 .036 .048 .033 L 0 .030000002 L 0 0 C .059 .0019999999 .094000007 .003 .14600002 .003 C .19800002 .003 .23400001 .0019999999 .293 0 L .293 .030000002 L .24500002 .033 C .19900002 .036 .194 .044 .194 .123 L .194 .572 Z "/>
</symbol>
<symbol id="font_0_b9">
<path d="M .076000008 .39400003 L .076000008 .106000009 C .076000008 .032 .10900001 0 .186 0 C .209 0 .23300003 .005 .23900001 .012 L .287 .065000008 L .274 .082 C .24900003 .068 .23400001 .063 .21500002 .063 C .17600002 .063 .16000001 .083000008 .16000001 .132 L .16000001 .39400003 L .288 .39400003 L .297 .448 L .16000001 .442 L .16000001 .48000003 C .16000001 .5220001 .163 .558 .171 .62200006 L .15900001 .6330001 C .135 .61800006 .105000007 .6050001 .074 .595 C .07700001 .56500008 .078 .54600009 .078 .51600006 L .078 .446 L 0 .411 L 0 .39000003 L .076000008 .39400003 Z "/>
</symbol>
<symbol id="font_0_aa">
<path d="M .411 .09 L .39800004 .10000001 C .33400003 .062000008 .31100003 .053000004 .268 .053000004 C .20300001 .053000004 .14900002 .082 .121 .13100001 C .102000009 .164 .095000009 .192 .093 .25 L .23900002 .25 C .30800004 .25 .351 .25300003 .42000003 .26400004 C .42100004 .27800004 .42200003 .28700004 .42200003 .29900003 C .42200003 .41400004 .34800003 .48900003 .23600003 .48900003 C .199 .48900003 .15600002 .47600005 .115 .45200003 C .033000005 .40500004 0 .34300003 0 .23900001 C 0 .176 .015000001 .12200001 .042000005 .08400001 C .082 .031000004 .14900002 0 .224 0 C .261 0 .298 .008000001 .33900003 .026 C .36600004 .037 .38700003 .050000006 .39100004 .056 L .411 .09 M .33300004 .28700004 C .28100003 .28500004 .25700004 .284 .22100002 .284 C .17500001 .284 .14900002 .28500004 .095000009 .29000003 C .095000009 .337 .099 .35900004 .11200001 .38500003 C .13300002 .42900003 .176 .45600004 .224 .45600004 C .25700004 .45600004 .28300003 .44300003 .30100004 .41600005 C .323 .38300003 .33 .35400004 .33300004 .28700004 Z "/>
</symbol>
<symbol id="font_0_b7">
<path d="M .0020000004 .403 L .039 .403 C .078999999 .403 .083000008 .396 .083000008 .33 L .083000008 .105000007 C .083000008 .042 .08 .035 .046 .033 L 0 .030000002 L 0 0 C .072 .0019999999 .098000008 .003 .12300001 .003 C .143 .003 .143 .003 .266 0 L .266 .030000002 L .21400002 .033 C .16900002 .036 .16700001 .039 .16700001 .105000007 L .16700001 .277 C .16700001 .337 .20700002 .387 .256 .387 C .286 .387 .307 .373 .323 .34100003 L .344 .34100003 L .35300002 .46100004 C .342 .46800003 .32400004 .472 .30600003 .472 C .27600003 .472 .24400002 .456 .22300002 .43100003 L .16700001 .365 L .16700001 .46800003 L .158 .472 C .10700001 .451 .055000005 .437 .0020000004 .43100003 L .0020000004 .403 Z "/>
</symbol>
<symbol id="font_0_a6">
<path d="M .292 .094000007 L .287 .009 C .352 .012 .352 .012 .365 .012 C .37 .012 .395 .011 .439 .009 L .439 .039 L .4 .041 C .37600003 .042000005 .372 .050000006 .372 .09900001 L .372 .282 C .372 .428 .33 .481 .214 .481 C .171 .481 .131 .47000004 .092999998 .44700004 L .040000004 .41500003 L .040000004 .35000003 L .066 .34300003 L .07900001 .374 C .099999997 .421 .11 .428 .156 .428 C .25 .428 .289 .391 .292 .3 L .193 .282 C .057 .257 0 .21000001 0 .12300001 C 0 .045 .047000003 0 .126 0 C .14400001 0 .161 .0029999996 .168 .007999999 L .292 .094000007 M .292 .136 C .263 .095000009 .2 .057000005 .161 .057000005 C .12100001 .057000005 .08600001 .094000007 .08600001 .137 C .08600001 .174 .106000009 .209 .136 .228 C .161 .243 .216 .257 .292 .268 L .292 .136 Z "/>
</symbol>
<symbol id="font_0_ae">
<path d="M .16700001 .46800003 L .158 .472 C .10700001 .451 .055000005 .437 .0020000004 .43100003 L .0020000004 .403 L .039 .403 C .078999999 .403 .083000008 .396 .083000008 .33 L .083000008 .105000007 C .083000008 .042 .08 .035 .046 .033 L 0 .030000002 L 0 0 C .10000001 .003 .10000001 .003 .12500002 .003 C .15 .003 .15 .003 .25000004 0 L .25000004 .030000002 L .20400001 .033 C .17000002 .035 .16700001 .042 .16700001 .105000007 L .16700001 .46800003 M .12100001 .69000008 C .091000009 .69000008 .065 .66400006 .065 .63400009 C .065 .6050001 .091000009 .57900008 .120000008 .57900008 C .149 .57900008 .17600002 .6050001 .17600002 .63400009 C .17600002 .66200008 .149 .69000008 .12100001 .69000008 Z "/>
</symbol>
<symbol id="font_0_b4">
<path d="M .24700001 .48900003 C .100999999 .48900003 0 .38600005 0 .237 C 0 .09600001 .089 0 .218 0 C .372 0 .482 .10700001 .482 .25700004 C .482 .39200003 .384 .48900003 .24700001 .48900003 M .229 .45600004 C .321 .45600004 .38900004 .35600005 .38900004 .22 C .38900004 .105000007 .338 .033 .257 .033 C .15900001 .033 .092999998 .12900001 .092999998 .27100004 C .092999998 .39100004 .141 .45600004 .229 .45600004 Z "/>
</symbol>
<symbol id="font_0_b3">
<path d="M .404 0 C .465 .003 .46600003 .003 .483 .003 C .497 .003 .497 .003 .56600007 0 L .56600007 .030000002 L .52500006 .033 C .491 .035 .488 .041 .488 .105000007 L .488 .298 C .488 .41500003 .433 .472 .321 .472 C .284 .472 .263 .465 .24200002 .44700004 L .16600001 .381 L .16600001 .46800003 L .157 .472 C .106000009 .451 .054 .437 .0010000002 .43100003 L .0010000002 .403 L .038000004 .403 C .07800001 .403 .08200001 .396 .08200001 .33 L .08200001 .105000007 C .08200001 .042 .079 .035 .045 .033 L 0 .030000002 L 0 0 C .068 .0019999999 .095000009 .003 .12400001 .003 C .15300001 .003 .18 .0019999999 .24800001 0 L .24800001 .030000002 L .20300001 .033 C .16900002 .035 .16600001 .042 .16600001 .105000007 L .16600001 .317 C .16600001 .36200003 .23200001 .411 .293 .411 C .36 .411 .404 .361 .404 .284 L .404 0 Z "/>
</symbol>
<use xlink:href="#font_0_8d" transform="matrix(46.492326,0,0,-46.492326,527.9921,627.5765)" fill="#333333"/>
<use xlink:href="#font_0_b9" transform="matrix(46.492326,0,0,-46.492326,543.6136,627.99496)" fill="#333333"/>
<use xlink:href="#font_0_aa" transform="matrix(46.492326,0,0,-46.492326,558.90957,628.3669)" fill="#333333"/>
<use xlink:href="#font_0_b7" transform="matrix(46.492326,0,0,-46.492326,580.9004,627.5765)" fill="#333333"/>
<use xlink:href="#font_0_a6" transform="matrix(46.492326,0,0,-46.492326,599.7298,627.99496)" fill="#333333"/>
<use xlink:href="#font_0_b9" transform="matrix(46.492326,0,0,-46.492326,622.51107,627.99496)" fill="#333333"/>
<use xlink:href="#font_0_ae" transform="matrix(46.492326,0,0,-46.492326,637.5745,627.5765)" fill="#333333"/>
<use xlink:href="#font_0_b4" transform="matrix(46.492326,0,0,-46.492326,651.5687,628.3669)" fill="#333333"/>
<use xlink:href="#font_0_b3" transform="matrix(46.492326,0,0,-46.492326,675.69827,627.5765)" fill="#333333"/>
<path transform="matrix(2.7777777,0,0,-2.7777777,0,660.54757)" stroke-width="1.25" stroke-linecap="butt" stroke-linejoin="round" fill="none" stroke="#333333" d="M 66.84739 73.83562 L 72.84739 73.83562 "/>
<symbol id="font_2_1">
<path d="M .57600006 0 C .59300008 0 .611 0 .611 .019999996 C .611 .040000008 .59300008 .040000008 .57600006 .040000008 L .035000005 .040000008 C .018 .040000008 0 .040000008 0 .019999996 C 0 0 .018 0 .035000005 0 L .57600006 0 Z "/>
</symbol>
<use xlink:href="#font_2_1" transform="matrix(43.254434,0,0,-43.254434,83.14619,460.3506)" fill="#333333"/>
<use xlink:href="#font_0_ce" transform="matrix(41.510999,0,0,-41.510999,113.781497,470.42366)" fill="#333333"/>
<use xlink:href="#font_0_d4" transform="matrix(41.510999,0,0,-41.510999,135.65778,471.12934)" fill="#333333"/>
<use xlink:href="#font_0_d4" transform="matrix(41.510999,0,0,-41.510999,156.41329,471.12934)" fill="#333333"/>
<path transform="matrix(2.7777777,0,0,-2.7777777,0,660.54757)" stroke-width="1.25" stroke-linecap="butt" stroke-linejoin="round" fill="none" stroke="#333333" d="M 66.84739 109.14126 L 72.84739 109.14126 "/>
<use xlink:href="#font_2_1" transform="matrix(43.254434,0,0,-43.254434,83.14619,362.2794)" fill="#333333"/>
<use xlink:href="#font_0_cc" transform="matrix(41.510999,0,0,-41.510999,114.36265,372.35246)" fill="#333333"/>
<use xlink:href="#font_0_d4" transform="matrix(41.510999,0,0,-41.510999,135.65778,373.05815)" fill="#333333"/>
<use xlink:href="#font_0_d4" transform="matrix(41.510999,0,0,-41.510999,156.41329,373.05815)" fill="#333333"/>
<path transform="matrix(2.7777777,0,0,-2.7777777,0,660.54757)" stroke-width="1.25" stroke-linecap="butt" stroke-linejoin="round" fill="none" stroke="#333333" d="M 66.84739 144.4469 L 72.84739 144.4469 "/>
<use xlink:href="#font_0_d4" transform="matrix(41.510999,0,0,-41.510999,156.41327,274.98695)" fill="#333333"/>
<path transform="matrix(2.7777777,0,0,-2.7777777,0,660.54757)" stroke-width="1.25" stroke-linecap="butt" stroke-linejoin="round" fill="none" stroke="#333333" d="M 66.84739 179.75254 L 72.84739 179.75254 "/>
<use xlink:href="#font_0_cc" transform="matrix(41.510999,0,0,-41.510999,114.36265,176.20998)" fill="#333333"/>
<use xlink:href="#font_0_d4" transform="matrix(41.510999,0,0,-41.510999,135.65778,176.91567)" fill="#333333"/>
<use xlink:href="#font_0_d4" transform="matrix(41.510999,0,0,-41.510999,156.41329,176.91567)" fill="#333333"/>
<symbol id="font_3_8e">
<path d="M .39000003 .87000009 L .393 .89800009 L .36900003 .89800009 L .279 .89500007 C .263 .89500007 .245 .89500007 .202 .8960001 L .13800001 .89800009 L .135 .87000009 L .182 .8680001 C .206 .86700007 .21700001 .8590001 .21700001 .8410001 C .21700001 .8360001 .21700001 .83300009 .216 .82800009 L .12100001 .18500002 C .106000009 .08200001 .076000008 .032000007 .029 .032000007 C .016999999 .032000007 .007999999 .033000009 0 .036000015 L .0029999987 .010000005 C .013999999 .003000006 .026 0 .038 0 C .09200001 0 .14400001 .047000007 .178 .12800002 C .194 .16600001 .20300001 .19800002 .212 .26000003 L .29700003 .81900009 C .303 .85700008 .31 .8640001 .34800003 .86700007 L .39000003 .87000009 Z "/>
</symbol>
<use xlink:href="#font_3_8e" transform="matrix(0,-46.492326,-46.492326,-0,64.911808,368.4519)" fill="#333333"/>
<symbol id="font_4_29">
<path d="M .23200003 .00999999 C .23200003 .012999982 .23200003 .014999986 .215 .03199999 C .09 .15799999 .058 .347 .058 .5 C .058 .674 .096 .84800007 .21900001 .97300007 C .23200003 .985 .23200003 .98700007 .23200003 .99 C .23200003 .99700006 .22800002 1 .222 1 C .21200001 1 .12200001 .93200007 .06299999 .805 C .012000002 .69500008 0 .584 0 .5 C 0 .422 .011 .301 .066 .188 C .126 .065 .21200001 0 .222 0 C .22800002 0 .23200003 .0029999912 .23200003 .00999999 Z "/>
</symbol>
<use xlink:href="#font_4_29" transform="matrix(0,-48.444997,-48.444997,-0,67.44563,343.75767)" fill="#333333"/>
<symbol id="font_2_2">
<path d="M .106 .05299999 C .106 .082 .08200001 .10599999 .05300001 .10599999 C .024000004 .10599999 0 .082 0 .05299999 C 0 .024000004 .024000004 0 .05300001 0 C .08200001 0 .106 .024000004 .106 .05299999 Z "/>
</symbol>
<use xlink:href="#font_2_2" transform="matrix(0,-48.444997,-48.444997,-0,45.790719,324.44227)" fill="#333333"/>
<symbol id="font_0_e2">
<path d="M .18800001 .278 C .161 .269 .143 .263 .09 .248 C .083000008 .172 .058 .107 0 .0109999929 L .014 0 L .055 .018999994 C .136 .124 .17400001 .187 .202 .264 L .18800001 .278 Z "/>
</symbol>
<use xlink:href="#font_0_e2" transform="matrix(0,-46.492326,-46.492326,-0,62.540697,313.8472)" fill="#333333"/>
<symbol id="font_3_a8">
<path d="M .317 .34100003 L .34 .34100003 C .34800003 .40600003 .35500003 .44300003 .36400003 .46900005 C .34 .48400004 .305 .49300004 .268 .49300004 C .223 .49300004 .149 .45700003 .09300001 .40600003 C .038000004 .35700003 0 .252 0 .14700002 C 0 .051000004 .042000005 0 .122 0 C .176 0 .224 .020000002 .279 .065000008 L .329 .106000009 L .321 .126 L .30600003 .116000007 C .234 .068 .19600001 .051000004 .161 .051000004 C .10500001 .051000004 .076000008 .091000009 .076000008 .17000002 C .076000008 .27800004 .11100001 .38200004 .16 .42000003 C .18100001 .43600003 .205 .44400005 .236 .44400005 C .28100003 .44400005 .317 .42500005 .317 .40100003 L .317 .34100003 Z "/>
</symbol>
<use xlink:href="#font_3_a8" transform="matrix(0,-46.492326,-46.492326,-0,55.845804,293.47596)" fill="#333333"/>
<symbol id="font_2_4">
<path d="M .21000001 .393 C .21100003 .407 .21100003 .43100003 .185 .43100003 C .169 .43100003 .15600002 .418 .15900001 .405 L .15900001 .39200003 L .17300001 .23700002 L .045 .33 C .036 .335 .034 .337 .027000003 .337 C .012999997 .337 0 .323 0 .30900003 C 0 .293 .009999998 .289 .019999996 .284 L .162 .21599999 L .023999997 .14900002 C .008000001 .141 0 .137 0 .122 C 0 .107 .012999997 .094000007 .027000003 .094000007 C .034 .094000007 .036 .094000007 .060999998 .113 L .17300001 .194 L .15799999 .026 C .15799999 .004999999 .176 0 .18400002 0 C .19600001 0 .21100003 .0069999995 .21100003 .026 L .19600001 .194 L .32400004 .101 C .33300004 .09600001 .335 .094000007 .342 .094000007 C .35600005 .094000007 .36900003 .108 .36900003 .122 C .36900003 .137 .36 .14200002 .34800003 .148 C .28800003 .178 .286 .178 .20700002 .215 L .34500004 .282 C .36100004 .29 .36900003 .294 .36900003 .30900003 C .36900003 .324 .35600005 .337 .342 .337 C .335 .337 .33300004 .337 .30800004 .31800003 L .19600001 .23700002 L .21000001 .393 Z "/>
</symbol>
<use xlink:href="#font_2_4" transform="matrix(0,-36.81787,-36.81787,-0,37.2059,272.3004)" fill="#333333"/>
<symbol id="font_4_2a">
<path d="M .232 .5 C .232 .578 .22100002 .699 .16600001 .81200006 C .106 .93500009 .020000004 1 .009999998 1 C .0040000008 1 0 .99600008 0 .99 C 0 .98700007 0 .985 .019000002 .967 C .117000009 .86800006 .174 .709 .174 .5 C .174 .329 .137 .153 .012999997 .026999996 C 0 .014999986 0 .012999982 0 .00999999 C 0 .003999993 .0040000008 0 .009999998 0 C .020000004 0 .11000001 .06799999 .169 .195 C .22 .305 .232 .416 .232 .5 Z "/>
</symbol>
<use xlink:href="#font_4_2a" transform="matrix(0,-48.444997,-48.444997,-0,67.44563,251.11714)" fill="#333333"/>
<clipPath id="cp5">
<path transform="matrix(2.7777777,0,0,-2.7777777,0,660.54757)" d="M 66.84739 46.30171 L 345.84739 46.30171 L 345.84739 212.62172 L 66.84739 212.62172 Z "/>
</clipPath>
<g clip-path="url(#cp5)">
<g>
<path transform="matrix(2.7777777,0,0,-2.7777777,0,660.54757)" d="M 79.529209 134.57706 L 79.529209 53.86171 L 107.71102 54.18793 L 135.89284 119.50493 L 164.07466 155.18349 L 192.25649 85.082798 L 220.4383 120.4208 L 248.62012 101.87701 L 276.80195 99.68187 L 304.98377 129.22489 L 333.16557 101.60578 L 333.16557 135.02945 L 304.98377 137.62133 L 276.80195 133.60295 L 248.62012 128.06777 L 220.4383 158.23384 L 192.25649 164.13536 L 164.07466 205.0617 L 135.89284 203.18779 L 107.71102 147.33065 L 79.529209 134.57706 Z " fill="#f79646" fill-opacity=".1"/>
<path transform="matrix(2.7777777,0,0,-2.7777777,0,660.54757)" stroke-width="1" stroke-linecap="butt" stroke-linejoin="round" fill="none" stroke="#f79646" stroke-opacity=".1" d="M 79.529209 134.57706 L 79.529209 53.86171 L 107.71102 54.18793 L 135.89284 119.50493 L 164.07466 155.18349 L 192.25649 85.082798 L 220.4383 120.4208 L 248.62012 101.87701 L 276.80195 99.68187 L 304.98377 129.22489 L 333.16557 101.60578 L 333.16557 135.02945 L 304.98377 137.62133 L 276.80195 133.60295 L 248.62012 128.06777 L 220.4383 158.23384 L 192.25649 164.13536 L 164.07466 205.0617 L 135.89284 203.18779 L 107.71102 147.33065 L 79.529209 134.57706 Z "/>
</g>
</g>
<clipPath id="cp6">
<path transform="matrix(2.7777777,0,0,-2.7777777,0,660.54757)" d="M 66.84739 46.30171 L 345.84739 46.30171 L 345.84739 212.62172 L 66.84739 212.62172 Z "/>
</clipPath>
<g clip-path="url(#cp6)">
<path transform="matrix(2.7777777,0,0,-2.7777777,0,660.54757)" stroke-width="1.5" stroke-linecap="round" stroke-linejoin="round" fill="none" stroke="#f79646" d="M 79.529209 94.21938 L 107.71102 100.759288 L 135.89284 161.34636 L 164.07466 180.1226 L 192.25649 124.60908 L 220.4383 139.32732 L 248.62012 114.97239 L 276.80195 116.64241 L 304.98377 133.4231 L 333.16557 118.31762 "/>
</g>
<clipPath id="cp7">
<path transform="matrix(2.7777777,0,0,-2.7777777,0,660.54757)" d="M 66.84739 46.30171 L 345.84739 46.30171 L 345.84739 212.62172 L 66.84739 212.62172 Z "/>
</clipPath>
<g clip-path="url(#cp7)">
<path transform="matrix(2.7777777,0,0,-2.7777777,0,660.54757)" stroke-width="1.5" stroke-linecap="butt" stroke-dasharray="5.55,2.4" stroke-linejoin="round" fill="none" stroke="#008000" d="M 79.529209 141.90155 L 107.71102 141.90155 L 135.89284 141.90155 L 164.07466 141.90155 L 192.25649 141.90155 L 220.4383 141.90155 L 248.62012 141.90155 L 276.80195 141.90155 L 304.98377 141.90155 L 333.16557 141.90155 "/>
</g>
<path transform="matrix(2.7777777,0,0,-2.7777777,0,660.54757)" stroke-width="1.25" stroke-linecap="square" stroke-miterlimit="10" stroke-linejoin="miter" fill="none" stroke="#333333" d="M 66.84739 46.30171 L 66.84739 212.6217 "/>
<path transform="matrix(2.7777777,0,0,-2.7777777,0,660.54757)" stroke-width="1.25" stroke-linecap="square" stroke-miterlimit="10" stroke-linejoin="miter" fill="none" stroke="#333333" d="M 66.84739 46.30171 L 345.84739 46.30171 "/>
<symbol id="font_0_94">
<path d="M .194 .64500007 C .22900002 .65300008 .258 .65700009 .292 .65700009 C .4 .65700009 .458 .60700008 .458 .512 C .458 .42200003 .397 .359 .31 .359 C .289 .359 .274 .361 .24800001 .36900003 L .258 .333 C .282 .328 .296 .327 .316 .327 C .453 .327 .558 .42000003 .558 .54 C .558 .63600006 .48000003 .69500008 .35300002 .69500008 C .348 .69500008 .338 .69500008 .325 .69400009 C .288 .6930001 .21200001 .69200006 .18300002 .69200006 C .16100002 .69200006 .16100002 .69200006 .0010000002 .69500008 L .0010000002 .6650001 L .046000005 .66200008 C .091000009 .65900006 .09900001 .646 .09900001 .572 L .09900001 .123 C .09900001 .044 .094000007 .036 .048 .033 L 0 .030000002 L 0 0 C .059 .0019999999 .094000007 .003 .14600002 .003 C .19800002 .003 .23400001 .0019999999 .293 0 L .293 .030000002 L .24500002 .033 C .19900002 .036 .194 .044 .194 .123 L .194 .64500007 Z "/>
</symbol>
<symbol id="font_0_b8">
<path d="M .011 .163 C .011 .094000007 .008000001 .064 0 .024000003 C .052 .007000001 .091000009 0 .13700001 0 C .268 0 .36100004 .07 .36100004 .168 C .36100004 .199 .35200004 .222 .333 .24200002 C .307 .26700003 .27400003 .279 .186 .29600004 C .104 .31200005 .07700001 .33200003 .07700001 .37800003 C .07700001 .42800004 .112 .45600004 .17300001 .45600004 C .24000001 .45600004 .291 .42100004 .291 .374 L .291 .35100005 L .319 .35100005 C .32000003 .40900005 .321 .43300004 .324 .46400006 C .27100004 .48200003 .23500002 .48900003 .194 .48900003 C .078 .48900003 .0069999995 .43400005 .0069999995 .344 C .0069999995 .29600004 .029000003 .26200003 .075 .24100001 C .102 .229 .155 .213 .22300002 .198 C .268 .18800001 .287 .167 .287 .12900001 C .287 .075 .23700002 .037 .16600001 .037 C .093 .037 .041 .072000008 .041 .12200001 L .041 .163 L .011 .163 Z "/>
</symbol>
<symbol id="font_0_87">
<path d="M .648 .10400001 L .639 .11400001 C .577 .074 .508 .054000006 .432 .054000006 C .237 .054000006 .10700001 .184 .10700001 .38100005 C .10700001 .565 .22100002 .68700006 .393 .68700006 C .491 .68700006 .592 .647 .592 .608 L .592 .536 L .623 .536 C .624 .586 .628 .62200006 .642 .688 C .55700007 .716 .48400004 .72900006 .411 .72900006 C .324 .72900006 .24100001 .708 .17400001 .669 C .060000004 .602 0 .49700005 0 .36200003 C 0 .146 .158 0 .393 0 C .476 0 .551 .018000002 .62 .054000006 L .648 .10400001 Z "/>
</symbol>
<use xlink:href="#font_0_94" transform="matrix(46.492326,0,0,-46.492326,375.66716,53.404554)" fill="#333333"/>
<use xlink:href="#font_0_b4" transform="matrix(46.492326,0,0,-46.492326,404.167,54.194925)" fill="#333333"/>
<use xlink:href="#font_0_b8" transform="matrix(46.492326,0,0,-46.492326,429.41233,54.194925)" fill="#333333"/>
<use xlink:href="#font_0_ae" transform="matrix(46.492326,0,0,-46.492326,448.66014,53.404554)" fill="#333333"/>
<use xlink:href="#font_0_b9" transform="matrix(46.492326,0,0,-46.492326,462.1894,53.822984)" fill="#333333"/>
<use xlink:href="#font_0_ae" transform="matrix(46.492326,0,0,-46.492326,477.25294,53.404554)" fill="#333333"/>
<use xlink:href="#font_0_b4" transform="matrix(46.492326,0,0,-46.492326,491.24714,54.194925)" fill="#333333"/>
<use xlink:href="#font_0_b3" transform="matrix(46.492326,0,0,-46.492326,515.37667,53.404554)" fill="#333333"/>
<use xlink:href="#font_0_87" transform="matrix(46.492326,0,0,-46.492326,554.7557,54.194925)" fill="#333333"/>
<use xlink:href="#font_0_b4" transform="matrix(46.492326,0,0,-46.492326,588.13717,54.194925)" fill="#333333"/>
<use xlink:href="#font_0_b3" transform="matrix(46.492326,0,0,-46.492326,612.26669,53.404554)" fill="#333333"/>
<use xlink:href="#font_0_b8" transform="matrix(46.492326,0,0,-46.492326,640.39456,54.194925)" fill="#333333"/>
<use xlink:href="#font_0_b9" transform="matrix(46.492326,0,0,-46.492326,659.68887,53.822984)" fill="#333333"/>
<use xlink:href="#font_0_b7" transform="matrix(46.492326,0,0,-46.492326,674.7523,53.404554)" fill="#333333"/>
<use xlink:href="#font_0_a6" transform="matrix(46.492326,0,0,-46.492326,693.5817,53.822984)" fill="#333333"/>
<use xlink:href="#font_0_ae" transform="matrix(46.492326,0,0,-46.492326,716.31649,53.404554)" fill="#333333"/>
<use xlink:href="#font_0_b3" transform="matrix(46.492326,0,0,-46.492326,729.1018,53.404554)" fill="#333333"/>
<use xlink:href="#font_0_b9" transform="matrix(46.492326,0,0,-46.492326,756.8578,53.822984)" fill="#333333"/>
<g>
<path transform="matrix(2.7777777,0,0,-2.7777777,0,660.54757)" d="M 267.74858 154.29378 L 335.06739 154.29378 C 337.12074 154.29378 338.1474 155.32044 338.1474 157.37377 L 338.1474 201.8417 C 338.1474 203.89504 337.12074 204.9217 335.06739 204.9217 L 267.74858 204.9217 C 265.69526 204.9217 264.66859 203.89504 264.66859 201.8417 L 264.66859 157.37377 C 264.66859 155.32044 265.69526 154.29378 267.74858 154.29378 Z " fill="#ffffff" fill-opacity=".8"/>
<path transform="matrix(2.7777777,0,0,-2.7777777,0,660.54757)" stroke-width="1" stroke-linecap="butt" stroke-miterlimit="10" stroke-linejoin="miter" fill="none" stroke="#d5d6d5" stroke-opacity=".8" d="M 267.74858 154.29378 L 335.06739 154.29378 C 337.12074 154.29378 338.1474 155.32044 338.1474 157.37377 L 338.1474 201.8417 C 338.1474 203.89504 337.12074 204.9217 335.06739 204.9217 L 267.74858 204.9217 C 265.69526 204.9217 264.66859 203.89504 264.66859 201.8417 L 264.66859 157.37377 C 264.66859 155.32044 265.69526 154.29378 267.74858 154.29378 Z "/>
</g>
<path transform="matrix(2.7777777,0,0,-2.7777777,0,660.54757)" stroke-width="1.5" stroke-linecap="round" stroke-linejoin="round" fill="none" stroke="#f79646" d="M 270.82859 193.17423 L 286.22859 193.17423 L 301.62858 193.17423 "/>
<symbol id="font_8_1f">
<path d="M .024999999 .36400003 L .034 .37100003 C .055 .43100003 .095000009 .43400003 .15200001 .43400003 C .164 .43400003 .18200001 .43300004 .20300001 .43300004 C .11900001 .20500002 .08100001 .136 0 .009000001 L .009000003 0 L .08300001 .026 C .11900001 .104 .18 .256 .23500002 .43200005 L .421 .42500005 C .404 .36300005 .34600003 .18200001 .34600003 .11800001 C .34600003 .013000001 .384 0 .41500003 0 C .466 0 .49500004 .013000001 .558 .06600001 L .5500001 .085 L .526 .068 C .52900007 .07000001 .50000008 .047000003 .483 .047000003 C .43600003 .047000003 .42200003 .076000008 .42200003 .13800001 C .42200003 .16300002 .42400003 .19000001 .43000005 .21900001 C .447 .30200003 .46400003 .38400004 .47300003 .42500005 C .49600003 .42500005 .51900008 .42600004 .54200008 .42900003 C .56000009 .42900003 .5820001 .43900005 .59800007 .44500003 C .609 .46600003 .61300006 .46800003 .632 .49200005 L .62500008 .504 C .59800007 .49500004 .55300006 .48500005 .52000007 .48500005 C .5080001 .48400004 .483 .48300005 .45800004 .48300005 C .351 .48400004 .18599999 .49200005 .14200002 .49200005 C .06700001 .49200005 .040000008 .45900003 .011 .37200005 L .024999999 .36400003 Z "/>
</symbol>
<use xlink:href="#font_8_1f" transform="matrix(42.617944,0,0,-42.617944,875.1052,139.39354)" fill="#333333"/>
<path transform="matrix(2.7777777,0,0,-2.7777777,0,660.54757)" stroke-width="1.5" stroke-linecap="butt" stroke-dasharray="5.55,2.4" stroke-linejoin="round" fill="none" stroke="#008000" d="M 270.82859 170.17026 L 286.22859 170.17026 L 301.62858 170.17026 "/>
<use xlink:href="#font_8_1f" transform="matrix(42.617944,0,0,-42.617944,875.1052,203.29341)" fill="#333333"/>
<symbol id="font_3_89">
<path d="M .19100002 .337 L .30800004 .337 C .335 .337 .36600004 .336 .41400004 .33400003 L .44000004 .333 L .45900003 .37800003 L .455 .38500003 C .374 .381 .314 .379 .236 .379 L .19900002 .379 L .24100003 .61700007 C .24400002 .6330001 .24600002 .64100006 .25 .64900007 L .29700003 .651 C .32900004 .65200009 .36100004 .65300008 .38300003 .65300008 C .44500003 .65300008 .48600004 .64400008 .48700003 .62900009 L .49500004 .54 L .51900008 .54 C .5220001 .60400006 .52900007 .65400007 .5400001 .69200006 C .51900008 .69400009 .48900006 .69500008 .47100006 .69500008 C .46800003 .69500008 .45700003 .69500008 .43300004 .69400009 L .31300003 .6930001 C .30400003 .69200006 .245 .69200006 .23500002 .69200006 C .19800002 .69200006 .171 .69200006 .120000008 .69400009 L .075 .69500008 L .072000008 .66700008 L .126 .6650001 C .15 .66400006 .16100002 .6560001 .16100002 .6380001 C .16100002 .6240001 .157 .59200009 .15200001 .56200006 L .065000008 .058000003 C .061000006 .04 .049000004 .033 .004999999 .026000003 L 0 0 L .041 .0009999999 C .072000008 .0019999999 .134 .003 .15400002 .003 L .36900003 0 L .379 0 C .393 0 .418 .0009999999 .45100004 .0019999999 L .484 .003 L .488 .039 C .49000005 .059 .49500004 .089 .50400009 .13800001 L .50900009 .16400002 L .48200003 .16400002 L .46600003 .104 C .45600004 .068 .44700004 .056 .425 .051 C .40500004 .047000003 .33200003 .042 .27800004 .042 C .23700002 .042 .215 .043 .14600002 .049000004 L .14600002 .053 C .14600002 .067 .147 .075 .148 .084 L .19100002 .337 Z "/>
</symbol>
<use xlink:href="#font_3_89" transform="matrix(32.38938,0,0,-32.38938,903.36898,210.65848)" fill="#333333"/>
</g>
</svg>
